<svg xmlns="http://www.w3.org/2000/svg" xmlns:xlink="http://www.w3.org/1999/xlink" width="1604" zoomAndPan="magnify" viewBox="0 0 1203 499.49999" height="666" preserveAspectRatio="xMidYMid meet" version="1.0"><defs><g/><clipPath id="72737b7c58"><path d="M 1.5 0.898438 L 487.957031 0.898438 L 487.957031 497.746094 L 1.5 497.746094 Z M 1.5 0.898438 " clip-rule="nonzero"/></clipPath><clipPath id="05783e80a4"><path d="M 0.601562 0 L 488.855469 0 L 488.855469 498.636719 L 0.601562 498.636719 Z M 0.601562 0 " clip-rule="nonzero"/></clipPath></defs><g clip-path="url(#72737b7c58)"><path fill="#ffffff" d="M 488.855469 167.183594 L 488.855469 179.09375 C 486.476562 184.058594 482.503906 188.109375 478.480469 191.621094 C 472.789062 196.582031 466.589844 201.109375 459.875 205.203125 C 453.28125 209.222656 448.359375 212.121094 445.109375 213.898438 C 430.0625 222.117188 414.355469 229.8125 397.984375 236.980469 C 379.597656 245.035156 370.390625 249.066406 370.359375 249.082031 C 365.976562 251.09375 362.546875 253.1875 360.0625 255.351562 C 357.585938 257.511719 355.222656 259.601562 352.972656 261.617188 C 350.222656 264.074219 347.921875 266.226562 346.070312 268.066406 C 341.140625 272.949219 337.957031 275.785156 332.171875 281.328125 C 324.484375 288.683594 317.359375 295.027344 309.507812 301.6875 C 293.046875 315.648438 274.929688 327.261719 255.164062 336.53125 C 250.097656 338.90625 246.6875 340.90625 242.902344 343.816406 C 241.5625 344.851562 239.253906 346.660156 237.636719 348.253906 C 233.976562 351.847656 231.664062 354.207031 230.707031 355.328125 C 227.441406 359.140625 223.636719 364.199219 219.289062 370.5 C 204.894531 391.371094 191.058594 413.257812 177.785156 436.160156 C 170.554688 448.636719 164.074219 459.992188 158.339844 470.230469 C 154.285156 477.46875 150.324219 484.949219 146.457031 492.679688 C 144.921875 495.746094 143.925781 497.710938 143.46875 498.570312 L 0.601562 498.570312 L 0.601562 428.734375 C 4.335938 423.472656 8.144531 418.257812 12.03125 413.09375 C 24.339844 396.726562 33.917969 383.976562 40.773438 374.847656 C 49.148438 363.695312 57.230469 353 65.023438 342.769531 C 72.132812 333.433594 80.226562 322.746094 89.300781 310.710938 C 97.292969 300.113281 104.515625 289.859375 110.972656 279.953125 C 114.582031 274.421875 117.582031 269.15625 119.976562 264.15625 C 122.40625 259.078125 123.914062 253.886719 124.5 248.589844 C 124.835938 245.570312 125.003906 244.050781 125.007812 244.03125 C 125.1875 242.722656 125.285156 241.195312 125.296875 239.457031 C 125.324219 236.050781 125.324219 231.507812 125.289062 225.832031 C 125.261719 222.183594 124.714844 218.316406 124.734375 214.84375 C 124.75 212.019531 124.171875 209.691406 124.210938 206.867188 C 124.214844 206.351562 124.078125 205.105469 123.789062 203.121094 C 123.652344 202.15625 123.585938 200.894531 123.589844 199.328125 C 123.589844 199.011719 123.546875 198.703125 123.457031 198.398438 C 123.164062 197.40625 123.039062 196.335938 123.085938 195.195312 C 123.152344 193.347656 122.539062 191.144531 122.496094 189.054688 C 122.480469 188.039062 122.398438 187.292969 122.257812 186.824219 C 121.964844 185.835938 122.054688 184.667969 121.925781 183.84375 C 121.691406 182.34375 121.328125 179.753906 120.84375 176.070312 C 120.589844 174.152344 120.160156 171.574219 119.550781 168.34375 C 118.863281 164.679688 118.332031 161.71875 117.964844 159.453125 C 117.699219 157.839844 117.550781 156.707031 117.519531 156.058594 C 117.445312 154.511719 117.039062 153.121094 117.023438 151.507812 C 116.996094 147.539062 116.996094 145.257812 117.023438 144.660156 C 117.078125 143.539062 117.308594 141.808594 117.714844 139.464844 C 117.972656 137.984375 118.410156 136.300781 119.027344 134.414062 C 121.574219 126.582031 124.699219 118.574219 126.75 111.210938 C 129.199219 102.417969 131.089844 95.128906 132.421875 89.339844 C 133.195312 85.96875 134.140625 81.039062 135.257812 74.542969 C 136.867188 65.1875 138.433594 57.25 139.957031 50.738281 C 140.675781 47.683594 141.042969 45.394531 141.066406 43.871094 C 141.101562 41.371094 140.957031 39.046875 140.632812 36.890625 C 139.933594 32.261719 138.566406 26.011719 136.53125 18.136719 C 136.496094 18.007812 136.316406 16.75 135.992188 14.359375 C 135.78125 12.828125 135.777344 11.5625 135.980469 10.566406 C 136.613281 7.472656 138.09375 4.089844 140.835938 2.609375 C 143.992188 0.902344 147.371094 0.40625 150.96875 1.109375 C 154.269531 1.753906 157.28125 3.070312 160 5.054688 C 165.195312 8.847656 169.699219 13.636719 173.511719 19.421875 C 176.042969 23.261719 178.175781 27.042969 179.910156 30.773438 C 180.78125 32.644531 181.6875 34.832031 182.632812 37.328125 C 183.910156 40.710938 184.851562 44.503906 185.453125 48.710938 C 186.015625 52.675781 186.292969 56.523438 186.277344 60.257812 C 186.269531 61.6875 186.15625 63.511719 185.933594 65.738281 C 185.71875 67.851562 185.640625 69.683594 185.699219 71.238281 C 185.707031 71.445312 185.597656 72.054688 185.359375 73.066406 C 184.925781 74.929688 185.332031 76.832031 184.730469 78.585938 C 184.621094 78.917969 184.570312 79.257812 184.578125 79.601562 C 184.625 81.019531 184.542969 82.136719 184.339844 82.945312 C 183.871094 84.820312 184.214844 86.765625 183.609375 88.515625 C 183.535156 88.726562 183.496094 88.945312 183.5 89.171875 C 183.515625 90.710938 183.363281 92.296875 183.042969 93.929688 C 182.96875 94.304688 182.933594 94.679688 182.933594 95.054688 C 182.933594 96.378906 182.796875 97.734375 182.519531 99.117188 C 182.472656 99.359375 182.449219 99.605469 182.453125 99.851562 C 182.480469 102.285156 182.386719 104.359375 182.164062 106.074219 C 181.589844 110.582031 182.140625 114.796875 183.070312 118.933594 C 183.234375 119.667969 183.546875 120.417969 184.015625 121.195312 C 185.011719 122.84375 186.453125 123.523438 188.339844 123.226562 C 188.445312 123.210938 188.546875 123.179688 188.640625 123.136719 C 189.453125 122.738281 190.242188 122.886719 191.097656 122.585938 C 194.109375 121.535156 196.390625 120.605469 197.933594 119.792969 C 202.832031 117.222656 207.734375 114.296875 212.632812 111.015625 C 223.597656 103.679688 233.996094 96.195312 243.828125 88.5625 C 250.71875 83.210938 255.335938 79.621094 257.679688 77.800781 C 260.984375 75.234375 263.71875 73.363281 265.882812 72.183594 C 272.332031 68.667969 279.195312 66.886719 286.597656 67.425781 C 288.050781 67.53125 289.582031 67.992188 290.757812 67.972656 C 290.898438 67.972656 291.027344 68.011719 291.140625 68.09375 C 291.320312 68.21875 291.503906 68.300781 291.699219 68.34375 C 299.980469 70.167969 306.347656 74.707031 310.804688 81.96875 C 310.9375 82.183594 311 82.394531 310.984375 82.601562 C 310.972656 82.753906 311.039062 82.859375 311.175781 82.917969 C 311.425781 83.019531 311.535156 83.207031 311.511719 83.484375 C 311.488281 83.695312 311.554688 83.867188 311.710938 84.007812 C 311.722656 84.019531 311.746094 84.039062 311.777344 84.066406 C 311.839844 84.117188 311.886719 84.179688 311.910156 84.257812 C 312.515625 86.019531 312.914062 87.222656 313.113281 87.875 C 313.285156 88.449219 313.101562 88.957031 313.371094 89.558594 C 313.574219 90.023438 313.679688 90.628906 313.695312 91.375 C 313.746094 94.03125 313.722656 95.910156 313.632812 97.019531 C 313.613281 97.230469 313.554688 97.429688 313.457031 97.617188 C 313.242188 98.011719 313.152344 98.433594 313.1875 98.890625 C 313.210938 99.195312 313.171875 99.492188 313.070312 99.777344 C 312 102.769531 311.179688 104.722656 310.597656 105.636719 C 310.085938 106.449219 309.453125 107.492188 308.703125 108.773438 C 308.65625 108.855469 308.652344 108.941406 308.695312 109.023438 C 308.738281 109.109375 308.808594 109.15625 308.902344 109.164062 L 313.597656 109.613281 C 313.675781 109.621094 313.746094 109.648438 313.8125 109.683594 C 314.566406 110.128906 316.054688 109.953125 317.015625 110.1875 C 320.480469 111.023438 323.28125 112.027344 325.417969 113.199219 C 331.414062 116.480469 336.050781 121.570312 338.148438 128.046875 C 338.980469 130.621094 339.355469 133.082031 339.265625 135.429688 C 339.199219 137.261719 338.710938 138.550781 338.511719 140.195312 C 338.5 140.277344 338.429688 140.394531 338.300781 140.542969 C 338.195312 140.671875 338.140625 140.820312 338.140625 140.988281 C 338.136719 141.898438 337.519531 142.464844 337.53125 143.230469 C 337.535156 143.566406 337.421875 143.796875 337.191406 143.921875 C 337.089844 143.976562 337.03125 144.066406 337.019531 144.183594 L 336.976562 144.644531 C 336.964844 144.777344 336.902344 144.886719 336.796875 144.972656 C 336.457031 145.234375 336.363281 145.675781 336.507812 146.292969 C 336.546875 146.464844 336.652344 146.554688 336.828125 146.558594 L 339.324219 146.636719 C 339.578125 146.644531 339.824219 146.691406 340.0625 146.78125 C 340.757812 147.039062 341.515625 147.175781 342.332031 147.195312 C 342.546875 147.203125 342.761719 147.238281 342.96875 147.300781 C 343.085938 147.339844 343.941406 147.589844 345.539062 148.050781 C 351.277344 149.707031 356.121094 152.761719 360.074219 157.214844 C 362.632812 160.09375 364.511719 163.515625 365.710938 167.484375 C 365.746094 167.609375 365.765625 167.734375 365.777344 167.859375 C 365.8125 168.460938 365.960938 169.027344 366.222656 169.5625 C 366.371094 169.855469 366.445312 170.164062 366.445312 170.492188 L 366.445312 177.390625 C 366.445312 177.625 366.382812 177.839844 366.261719 178.039062 C 365.910156 178.617188 365.746094 179.335938 365.769531 180.195312 C 365.773438 180.378906 365.703125 180.527344 365.554688 180.640625 C 365.285156 180.839844 365.171875 182.058594 364.902344 182.714844 C 362.253906 189.21875 357.898438 194.335938 351.84375 198.058594 C 351.6875 198.152344 351.574219 198.285156 351.507812 198.457031 C 351.4375 198.628906 351.425781 198.804688 351.472656 198.980469 C 352.105469 201.453125 353.726562 202.816406 356.339844 203.078125 C 360.410156 203.488281 364.316406 203.050781 368.050781 201.761719 C 368.554688 201.589844 369.09375 201.464844 369.660156 201.390625 C 369.695312 201.382812 369.730469 201.375 369.765625 201.359375 L 377.042969 198.632812 C 383.140625 195.824219 389.410156 193.144531 395.847656 190.601562 C 402.257812 188.074219 407.261719 186.878906 414.378906 184.597656 C 421.183594 182.414062 427.03125 180.195312 431.921875 177.941406 C 438.179688 175.058594 443.238281 172.453125 447.101562 170.117188 C 450.660156 167.960938 453.914062 165.941406 456.867188 164.058594 C 459.445312 162.417969 462.328125 160.996094 465.515625 159.796875 C 469.402344 158.339844 473.015625 157.84375 476.359375 158.308594 C 477.355469 158.449219 477.894531 158.53125 477.980469 158.546875 C 478.871094 158.792969 479.417969 158.902344 479.613281 158.878906 C 479.78125 158.859375 479.910156 158.917969 480.003906 159.058594 C 480.132812 159.242188 480.414062 159.347656 480.84375 159.367188 C 481.566406 159.40625 481.515625 159.929688 482.203125 159.964844 C 482.3125 159.972656 482.410156 160.003906 482.5 160.058594 C 484.582031 161.347656 486.128906 162.691406 487.136719 164.09375 C 487.421875 164.492188 487.992188 165.519531 488.855469 167.183594 Z M 488.855469 167.183594 " fill-opacity="1" fill-rule="nonzero"/></g><g clip-path="url(#05783e80a4)"><path stroke-linecap="butt" transform="matrix(0.74925, 0, 0, 0.74925, 0.601512, -0.00000000000008518)" fill="none" stroke-linejoin="miter" d="M 0.0000673607 0.000000000000113687 L 0.0000673607 665.514471 L 651.656973 665.514471 L 651.656973 0.000000000000113687 L 0.0000673607 0.000000000000113687 " stroke="#ffffff" stroke-width="20" stroke-opacity="1" stroke-miterlimit="4"/></g><g fill="#ffffff" fill-opacity="1"><g transform="translate(532.930561, 217.853482)"><g><path d="M 101.578125 -16.953125 C 103.609375 -14.222656 104.441406 -11.546875 104.078125 -8.921875 C 103.722656 -6.304688 102.59375 -4.078125 100.6875 -2.234375 C 98.78125 -0.390625 96.488281 0.914062 93.8125 1.6875 C 91.132812 2.46875 88.394531 2.5 85.59375 1.78125 C 82.800781 1.070312 80.394531 -0.648438 78.375 -3.390625 C 73.019531 -10.773438 67.039062 -17.585938 60.4375 -23.828125 C 53.832031 -30.078125 46.71875 -35.703125 39.09375 -40.703125 C 38.5 -33.566406 37.929688 -26.484375 37.390625 -19.453125 C 36.859375 -12.429688 36.296875 -5.351562 35.703125 1.78125 C 35.460938 5.238281 34.359375 7.976562 32.390625 10 C 30.429688 12.019531 28.082031 13.382812 25.34375 14.09375 C 22.613281 14.8125 19.96875 14.8125 17.40625 14.09375 C 14.84375 13.382812 12.726562 12.019531 11.0625 10 C 9.394531 7.976562 8.679688 5.238281 8.921875 1.78125 C 9.992188 -11.3125 10.828125 -24.582031 11.421875 -38.03125 C 12.015625 -51.476562 13.625 -64.628906 16.25 -77.484375 C 17.550781 -84.023438 19.988281 -90.390625 23.5625 -96.578125 C 27.132812 -102.773438 31.6875 -107.925781 37.21875 -112.03125 C 42.757812 -116.132812 49.21875 -118.304688 56.59375 -118.546875 C 61.707031 -118.785156 66.554688 -117.832031 71.140625 -115.6875 C 75.722656 -113.539062 79.617188 -110.59375 82.828125 -106.84375 C 86.046875 -103.101562 88.21875 -98.820312 89.34375 -94 C 90.476562 -89.175781 90.210938 -84.207031 88.546875 -79.09375 C 86.878906 -74.09375 84.171875 -69.300781 80.421875 -64.71875 C 76.671875 -60.132812 72.359375 -56.175781 67.484375 -52.84375 C 80.222656 -42.601562 91.585938 -30.640625 101.578125 -16.953125 Z M 63.375 -88.546875 C 62.90625 -90.929688 61.984375 -92.269531 60.609375 -92.5625 C 59.242188 -92.863281 57.695312 -92.476562 55.96875 -91.40625 C 54.238281 -90.332031 52.539062 -88.960938 50.875 -87.296875 C 49.207031 -85.628906 47.78125 -83.992188 46.59375 -82.390625 C 45.40625 -80.785156 44.632812 -79.625 44.28125 -78.90625 C 43.320312 -76.289062 42.488281 -73.316406 41.78125 -69.984375 C 44.15625 -70.335938 46.296875 -71.078125 48.203125 -72.203125 C 50.109375 -73.335938 51.953125 -74.738281 53.734375 -76.40625 C 54.453125 -77.125 55.644531 -78.253906 57.3125 -79.796875 C 58.976562 -81.347656 60.460938 -82.957031 61.765625 -84.625 C 63.078125 -86.289062 63.613281 -87.597656 63.375 -88.546875 Z M 63.375 -88.546875 "/></g></g></g><g fill="#ffffff" fill-opacity="1"><g transform="translate(645.941454, 217.853482)"><g><path d="M 74.453125 -37.671875 C 77.898438 -37.546875 80.664062 -36.53125 82.75 -34.625 C 84.832031 -32.726562 86.203125 -30.441406 86.859375 -27.765625 C 87.515625 -25.085938 87.515625 -22.4375 86.859375 -19.8125 C 86.203125 -17.195312 84.832031 -15.023438 82.75 -13.296875 C 80.664062 -11.578125 77.898438 -10.773438 74.453125 -10.890625 C 66.359375 -11.242188 58.265625 -11.210938 50.171875 -10.796875 C 42.078125 -10.378906 33.984375 -9.519531 25.890625 -8.21875 C 23.390625 -7.851562 20.769531 -8.117188 18.03125 -9.015625 C 15.289062 -9.910156 13 -11.367188 11.15625 -13.390625 C 9.3125 -15.410156 8.628906 -18.03125 9.109375 -21.25 C 11.128906 -37.664062 13.359375 -54.085938 15.796875 -70.515625 C 18.234375 -86.941406 20.882812 -103.367188 23.75 -119.796875 C 24.101562 -121.816406 24.816406 -123.539062 25.890625 -124.96875 C 26.835938 -126.632812 28.203125 -128.03125 29.984375 -129.15625 C 31.773438 -130.289062 33.976562 -130.921875 36.59375 -131.046875 C 49.445312 -131.398438 62.300781 -131.160156 75.15625 -130.328125 C 78.613281 -130.085938 81.382812 -128.984375 83.46875 -127.015625 C 85.550781 -125.054688 86.914062 -122.738281 87.5625 -120.0625 C 88.21875 -117.382812 88.21875 -114.734375 87.5625 -112.109375 C 86.914062 -109.492188 85.550781 -107.351562 83.46875 -105.6875 C 81.382812 -104.019531 78.613281 -103.304688 75.15625 -103.546875 C 66.351562 -104.140625 57.367188 -104.4375 48.203125 -104.4375 C 47.609375 -100.988281 47.015625 -97.535156 46.421875 -94.078125 C 45.828125 -90.628906 45.289062 -87.179688 44.8125 -83.734375 C 49.6875 -83.609375 54.390625 -83.3125 58.921875 -82.84375 C 62.484375 -82.476562 65.601562 -81.132812 68.28125 -78.8125 C 70.96875 -76.5 72.3125 -73.378906 72.3125 -69.453125 C 72.3125 -67.191406 71.6875 -64.988281 70.4375 -62.84375 C 69.1875 -60.695312 67.546875 -58.96875 65.515625 -57.65625 C 63.492188 -56.351562 61.296875 -55.820312 58.921875 -56.0625 C 52.847656 -56.65625 46.773438 -56.953125 40.703125 -56.953125 C 40.222656 -53.617188 39.742188 -50.222656 39.265625 -46.765625 C 38.796875 -43.316406 38.320312 -39.925781 37.84375 -36.59375 C 43.914062 -37.1875 49.984375 -37.570312 56.046875 -37.75 C 62.117188 -37.9375 68.253906 -37.910156 74.453125 -37.671875 Z M 74.453125 -37.671875 "/></g></g></g><g fill="#ffffff" fill-opacity="1"><g transform="translate(742.884447, 217.853482)"><g><path d="M 78.546875 -108.1875 C 79.023438 -111.519531 80.273438 -113.957031 82.296875 -115.5 C 84.328125 -117.050781 86.679688 -117.828125 89.359375 -117.828125 C 92.035156 -117.828125 94.625 -117.113281 97.125 -115.6875 C 99.625 -114.257812 101.585938 -112.296875 103.015625 -109.796875 C 104.441406 -107.296875 104.914062 -104.378906 104.4375 -101.046875 C 99.5625 -68.203125 93.492188 -35.59375 86.234375 -3.21875 C 85.640625 -0.59375 84.300781 1.550781 82.21875 3.21875 C 80.132812 4.882812 77.722656 5.925781 74.984375 6.34375 C 72.242188 6.757812 69.65625 6.457031 67.21875 5.4375 C 64.78125 4.425781 62.960938 2.613281 61.765625 0 C 59.035156 -6.539062 56.238281 -13.054688 53.375 -19.546875 C 50.519531 -26.035156 47.664062 -32.492188 44.8125 -38.921875 C 43.03125 -31.179688 41.304688 -23.410156 39.640625 -15.609375 C 37.972656 -7.816406 36.421875 -0.0546875 34.984375 7.671875 C 34.390625 11.128906 33.019531 13.628906 30.875 15.171875 C 28.738281 16.722656 26.332031 17.46875 23.65625 17.40625 C 20.976562 17.34375 18.414062 16.628906 15.96875 15.265625 C 13.53125 13.898438 11.628906 11.96875 10.265625 9.46875 C 8.898438 6.96875 8.570312 3.988281 9.28125 0.53125 C 14.519531 -27.789062 20.945312 -55.878906 28.5625 -83.734375 C 29.28125 -86.234375 30.707031 -88.316406 32.84375 -89.984375 C 34.988281 -91.648438 37.398438 -92.71875 40.078125 -93.1875 C 42.753906 -93.664062 45.28125 -93.425781 47.65625 -92.46875 C 50.039062 -91.519531 51.832031 -89.675781 53.03125 -86.9375 L 68.734375 -50.703125 C 70.640625 -60.222656 72.394531 -69.773438 74 -79.359375 C 75.601562 -88.941406 77.117188 -98.550781 78.546875 -108.1875 Z M 78.546875 -108.1875 "/></g></g></g><g fill="#ffffff" fill-opacity="1"><g transform="translate(856.430936, 217.853482)"><g><path d="M 81.40625 -122.65625 C 84.738281 -122.175781 87.414062 -120.921875 89.4375 -118.890625 C 91.46875 -116.867188 92.835938 -114.488281 93.546875 -111.75 C 94.265625 -109.019531 94.265625 -106.34375 93.546875 -103.71875 C 92.835938 -101.101562 91.46875 -99.050781 89.4375 -97.5625 C 87.414062 -96.070312 84.738281 -95.507812 81.40625 -95.875 C 75.9375 -96.582031 70.222656 -97.117188 64.265625 -97.484375 C 63.429688 -84.503906 62.628906 -71.523438 61.859375 -58.546875 C 61.085938 -45.578125 60.285156 -32.546875 59.453125 -19.453125 C 59.328125 -16.128906 58.28125 -13.425781 56.3125 -11.34375 C 54.351562 -9.257812 52.035156 -7.859375 49.359375 -7.140625 C 46.679688 -6.421875 44.03125 -6.421875 41.40625 -7.140625 C 38.789062 -7.859375 36.648438 -9.226562 34.984375 -11.25 C 33.328125 -13.269531 32.554688 -16.003906 32.671875 -19.453125 C 33.503906 -32.546875 34.304688 -45.609375 35.078125 -58.640625 C 35.847656 -71.679688 36.648438 -84.742188 37.484375 -97.828125 C 32.128906 -97.597656 26.894531 -97.242188 21.78125 -96.765625 C 18.332031 -96.410156 15.566406 -97.035156 13.484375 -98.640625 C 11.398438 -100.242188 10.03125 -102.351562 9.375 -104.96875 C 8.71875 -107.59375 8.742188 -110.242188 9.453125 -112.921875 C 10.171875 -115.597656 11.539062 -117.945312 13.5625 -119.96875 C 15.59375 -122 18.332031 -123.191406 21.78125 -123.546875 C 41.65625 -125.566406 61.53125 -125.269531 81.40625 -122.65625 Z M 81.40625 -122.65625 "/></g></g></g><g fill="#ffffff" fill-opacity="1"><g transform="translate(959.444024, 217.853482)"><g><path d="M 92.484375 -78.015625 C 92.835938 -66.234375 93.132812 -54.390625 93.375 -42.484375 C 93.613281 -30.585938 93.910156 -18.6875 94.265625 -6.78125 C 94.378906 -3.332031 93.546875 -0.566406 91.765625 1.515625 C 89.984375 3.597656 87.78125 4.96875 85.15625 5.625 C 82.539062 6.28125 79.894531 6.28125 77.21875 5.625 C 74.539062 4.96875 72.273438 3.597656 70.421875 1.515625 C 68.578125 -0.566406 67.597656 -3.332031 67.484375 -6.78125 C 67.367188 -10.351562 67.28125 -13.894531 67.21875 -17.40625 C 67.15625 -20.914062 67.066406 -24.457031 66.953125 -28.03125 L 40.171875 -29.09375 C 39.210938 -24.570312 38.316406 -20.078125 37.484375 -15.609375 C 36.648438 -11.148438 35.816406 -6.660156 34.984375 -2.140625 C 34.390625 1.304688 33.050781 3.800781 30.96875 5.34375 C 28.882812 6.894531 26.472656 7.640625 23.734375 7.578125 C 21.003906 7.523438 18.414062 6.8125 15.96875 5.4375 C 13.53125 4.070312 11.628906 2.140625 10.265625 -0.359375 C 8.898438 -2.859375 8.515625 -5.832031 9.109375 -9.28125 C 11.242188 -20.945312 13.648438 -32.492188 16.328125 -43.921875 C 19.015625 -55.347656 22.796875 -66.472656 27.671875 -77.296875 C 30.054688 -82.660156 33.09375 -88.4375 36.78125 -94.625 C 40.46875 -100.8125 44.660156 -106.492188 49.359375 -111.671875 C 54.066406 -116.847656 59.273438 -120.628906 64.984375 -123.015625 C 70.335938 -125.273438 74.679688 -125.6875 78.015625 -124.25 C 81.347656 -122.820312 83.96875 -120.265625 85.875 -116.578125 C 87.78125 -112.890625 89.175781 -108.632812 90.0625 -103.8125 C 90.957031 -98.988281 91.550781 -94.253906 91.84375 -89.609375 C 92.144531 -84.972656 92.359375 -81.109375 92.484375 -78.015625 Z M 47.484375 -55.515625 C 50.703125 -55.398438 53.859375 -55.28125 56.953125 -55.15625 C 60.046875 -55.039062 63.140625 -54.925781 66.234375 -54.8125 C 66.117188 -58.738281 66.03125 -62.632812 65.96875 -66.5 C 65.90625 -70.375 65.816406 -74.210938 65.703125 -78.015625 C 65.578125 -79.566406 65.515625 -81.203125 65.515625 -82.921875 C 65.515625 -84.648438 65.515625 -86.40625 65.515625 -88.1875 C 63.492188 -85.8125 61.769531 -83.550781 60.34375 -81.40625 C 57.957031 -77.832031 55.78125 -74.113281 53.8125 -70.25 C 51.851562 -66.382812 50.101562 -62.488281 48.5625 -58.5625 C 48.4375 -58.082031 48.285156 -57.570312 48.109375 -57.03125 C 47.929688 -56.5 47.722656 -55.992188 47.484375 -55.515625 Z M 47.484375 -55.515625 "/></g></g></g><g fill="#ffffff" fill-opacity="1"><g transform="translate(1062.635645, 217.853482)"><g><path d="M 78.734375 -57.671875 C 82.179688 -57.898438 84.914062 -57.210938 86.9375 -55.609375 C 88.96875 -54.003906 90.335938 -51.890625 91.046875 -49.265625 C 91.765625 -46.648438 91.765625 -43.972656 91.046875 -41.234375 C 90.335938 -38.503906 88.941406 -36.15625 86.859375 -34.1875 C 84.773438 -32.226562 82.066406 -31.128906 78.734375 -30.890625 C 69.679688 -30.171875 60.78125 -29.007812 52.03125 -27.40625 C 43.289062 -25.800781 34.578125 -23.75 25.890625 -21.25 C 23.390625 -20.53125 20.769531 -20.675781 18.03125 -21.6875 C 15.289062 -22.695312 13.023438 -24.300781 11.234375 -26.5 C 9.453125 -28.707031 8.679688 -31.300781 8.921875 -34.28125 C 10.347656 -48.207031 11.742188 -62.128906 13.109375 -76.046875 C 14.484375 -89.972656 15.828125 -103.898438 17.140625 -117.828125 C 17.492188 -121.160156 18.679688 -123.867188 20.703125 -125.953125 C 22.734375 -128.035156 25.113281 -129.40625 27.84375 -130.0625 C 30.582031 -130.71875 33.234375 -130.71875 35.796875 -130.0625 C 38.359375 -129.40625 40.441406 -128.035156 42.046875 -125.953125 C 43.648438 -123.867188 44.273438 -121.160156 43.921875 -117.828125 C 42.847656 -106.765625 41.773438 -95.726562 40.703125 -84.71875 C 39.628906 -73.707031 38.554688 -62.726562 37.484375 -51.78125 C 50.941406 -54.632812 64.691406 -56.597656 78.734375 -57.671875 Z M 78.734375 -57.671875 "/></g></g></g><g fill="#ffffff" fill-opacity="1"><g transform="translate(532.930561, 396.174971)"><g><path d="M 109.796875 -97.828125 C 110.867188 -92.472656 110.570312 -87.710938 108.90625 -83.546875 C 107.238281 -79.378906 104.585938 -75.71875 100.953125 -72.5625 C 97.328125 -69.414062 93.132812 -66.710938 88.375 -64.453125 C 89.800781 -62.304688 90.898438 -59.953125 91.671875 -57.390625 C 92.453125 -54.835938 92.84375 -52.015625 92.84375 -48.921875 C 92.957031 -43.328125 91.789062 -38.117188 89.34375 -33.296875 C 86.90625 -28.472656 83.632812 -24.21875 79.53125 -20.53125 C 75.425781 -16.84375 70.84375 -13.867188 65.78125 -11.609375 C 60.726562 -9.347656 55.644531 -7.914062 50.53125 -7.3125 C 43.144531 -6.363281 36.238281 -7.050781 29.8125 -9.375 C 23.382812 -11.695312 18.234375 -15.503906 14.359375 -20.796875 C 10.492188 -26.097656 8.679688 -32.734375 8.921875 -40.703125 C 9.285156 -53.679688 10.597656 -66.804688 12.859375 -80.078125 C 15.117188 -93.347656 17.140625 -106.410156 18.921875 -119.265625 C 19.398438 -122.472656 21.1875 -124.96875 24.28125 -126.75 C 27.375 -128.539062 30.410156 -129.257812 33.390625 -128.90625 C 33.859375 -129.132812 34.273438 -129.367188 34.640625 -129.609375 C 39.753906 -131.398438 45.375 -132.410156 51.5 -132.640625 C 57.632812 -132.878906 63.828125 -132.316406 70.078125 -130.953125 C 76.328125 -129.585938 82.21875 -127.445312 87.75 -124.53125 C 93.28125 -121.613281 98.007812 -117.921875 101.9375 -113.453125 C 105.863281 -108.992188 108.484375 -103.785156 109.796875 -97.828125 Z M 64.265625 -104.796875 C 60.578125 -105.867188 57.097656 -106.34375 53.828125 -106.21875 C 50.554688 -106.101562 47.191406 -105.507812 43.734375 -104.4375 C 43.140625 -100.507812 42.601562 -96.640625 42.125 -92.828125 C 41.65625 -89.023438 41.179688 -85.160156 40.703125 -81.234375 C 41.535156 -81.472656 42.367188 -81.59375 43.203125 -81.59375 C 43.921875 -81.59375 44.875 -81.59375 46.0625 -81.59375 C 49.875 -81.59375 53.625 -81.890625 57.3125 -82.484375 C 61 -83.078125 64.6875 -84.03125 68.375 -85.34375 C 69.332031 -85.695312 71 -86.347656 73.375 -87.296875 C 75.757812 -88.253906 77.960938 -89.265625 79.984375 -90.328125 C 82.003906 -91.398438 83.078125 -92.351562 83.203125 -93.1875 C 83.316406 -94.5 82.539062 -95.78125 80.875 -97.03125 C 79.207031 -98.28125 77.210938 -99.46875 74.890625 -100.59375 C 72.566406 -101.726562 70.394531 -102.679688 68.375 -103.453125 C 66.351562 -104.234375 64.984375 -104.679688 64.265625 -104.796875 Z M 62.3125 -41.0625 C 65.039062 -44.039062 66.195312 -46.453125 65.78125 -48.296875 C 65.363281 -50.140625 64.023438 -51.503906 61.765625 -52.390625 C 59.503906 -53.285156 56.882812 -53.910156 53.90625 -54.265625 C 50.9375 -54.628906 48.257812 -54.8125 45.875 -54.8125 C 44.8125 -54.8125 43.921875 -54.8125 43.203125 -54.8125 C 41.054688 -54.8125 39.09375 -55.226562 37.3125 -56.0625 C 37.195312 -54.507812 37.046875 -52.957031 36.859375 -51.40625 C 36.679688 -49.863281 36.472656 -48.320312 36.234375 -46.78125 C 36.117188 -45.113281 35.878906 -43.03125 35.515625 -40.53125 C 35.160156 -38.03125 35.519531 -36.179688 36.59375 -34.984375 C 38.144531 -33.554688 40.140625 -32.8125 42.578125 -32.75 C 45.015625 -32.695312 47.539062 -33.113281 50.15625 -34 C 52.78125 -34.894531 55.191406 -36 57.390625 -37.3125 C 59.597656 -38.625 61.238281 -39.875 62.3125 -41.0625 Z M 62.3125 -41.0625 "/></g></g></g><g fill="#ffffff" fill-opacity="1"><g transform="translate(652.190081, 396.174971)"><g><path d="M 92.484375 -78.015625 C 92.835938 -66.234375 93.132812 -54.390625 93.375 -42.484375 C 93.613281 -30.585938 93.910156 -18.6875 94.265625 -6.78125 C 94.378906 -3.332031 93.546875 -0.566406 91.765625 1.515625 C 89.984375 3.597656 87.78125 4.96875 85.15625 5.625 C 82.539062 6.28125 79.894531 6.28125 77.21875 5.625 C 74.539062 4.96875 72.273438 3.597656 70.421875 1.515625 C 68.578125 -0.566406 67.597656 -3.332031 67.484375 -6.78125 C 67.367188 -10.351562 67.28125 -13.894531 67.21875 -17.40625 C 67.15625 -20.914062 67.066406 -24.457031 66.953125 -28.03125 L 40.171875 -29.09375 C 39.210938 -24.570312 38.316406 -20.078125 37.484375 -15.609375 C 36.648438 -11.148438 35.816406 -6.660156 34.984375 -2.140625 C 34.390625 1.304688 33.050781 3.800781 30.96875 5.34375 C 28.882812 6.894531 26.472656 7.640625 23.734375 7.578125 C 21.003906 7.523438 18.414062 6.8125 15.96875 5.4375 C 13.53125 4.070312 11.628906 2.140625 10.265625 -0.359375 C 8.898438 -2.859375 8.515625 -5.832031 9.109375 -9.28125 C 11.242188 -20.945312 13.648438 -32.492188 16.328125 -43.921875 C 19.015625 -55.347656 22.796875 -66.472656 27.671875 -77.296875 C 30.054688 -82.660156 33.09375 -88.4375 36.78125 -94.625 C 40.46875 -100.8125 44.660156 -106.492188 49.359375 -111.671875 C 54.066406 -116.847656 59.273438 -120.628906 64.984375 -123.015625 C 70.335938 -125.273438 74.679688 -125.6875 78.015625 -124.25 C 81.347656 -122.820312 83.96875 -120.265625 85.875 -116.578125 C 87.78125 -112.890625 89.175781 -108.632812 90.0625 -103.8125 C 90.957031 -98.988281 91.550781 -94.253906 91.84375 -89.609375 C 92.144531 -84.972656 92.359375 -81.109375 92.484375 -78.015625 Z M 47.484375 -55.515625 C 50.703125 -55.398438 53.859375 -55.28125 56.953125 -55.15625 C 60.046875 -55.039062 63.140625 -54.925781 66.234375 -54.8125 C 66.117188 -58.738281 66.03125 -62.632812 65.96875 -66.5 C 65.90625 -70.375 65.816406 -74.210938 65.703125 -78.015625 C 65.578125 -79.566406 65.515625 -81.203125 65.515625 -82.921875 C 65.515625 -84.648438 65.515625 -86.40625 65.515625 -88.1875 C 63.492188 -85.8125 61.769531 -83.550781 60.34375 -81.40625 C 57.957031 -77.832031 55.78125 -74.113281 53.8125 -70.25 C 51.851562 -66.382812 50.101562 -62.488281 48.5625 -58.5625 C 48.4375 -58.082031 48.285156 -57.570312 48.109375 -57.03125 C 47.929688 -56.5 47.722656 -55.992188 47.484375 -55.515625 Z M 47.484375 -55.515625 "/></g></g></g><g fill="#ffffff" fill-opacity="1"><g transform="translate(755.381702, 396.174971)"><g><path d="M 66.59375 -77.125 C 73.257812 -72.601562 78.523438 -66.710938 82.390625 -59.453125 C 86.253906 -52.191406 87.769531 -44.453125 86.9375 -36.234375 C 86.101562 -29.097656 83.664062 -22.96875 79.625 -17.84375 C 75.582031 -12.726562 70.613281 -8.742188 64.71875 -5.890625 C 58.820312 -3.035156 52.570312 -1.457031 45.96875 -1.15625 C 39.363281 -0.863281 33.023438 -1.96875 26.953125 -4.46875 C 20.890625 -6.96875 15.773438 -11.015625 11.609375 -16.609375 C 9.460938 -19.335938 8.566406 -21.984375 8.921875 -24.546875 C 9.285156 -27.109375 10.390625 -29.335938 12.234375 -31.234375 C 14.078125 -33.140625 16.363281 -34.476562 19.09375 -35.25 C 21.832031 -36.03125 24.597656 -36.0625 27.390625 -35.34375 C 30.191406 -34.632812 32.609375 -32.910156 34.640625 -30.171875 C 35.585938 -28.859375 37.367188 -28.113281 39.984375 -27.9375 C 42.609375 -27.757812 45.226562 -27.878906 47.84375 -28.296875 C 50.46875 -28.710938 52.3125 -29.160156 53.375 -29.640625 C 55.875 -30.828125 57.75 -32.582031 59 -34.90625 C 60.25 -37.226562 60.695312 -39.753906 60.34375 -42.484375 C 59.988281 -45.816406 58.796875 -48.554688 56.765625 -50.703125 C 54.742188 -52.847656 52.332031 -54.722656 49.53125 -56.328125 C 46.738281 -57.929688 43.914062 -59.476562 41.0625 -60.96875 C 38.207031 -62.457031 35.707031 -64.09375 33.5625 -65.875 C 27.613281 -71.113281 23.984375 -76.796875 22.671875 -82.921875 C 21.359375 -89.054688 21.800781 -95.1875 24 -101.3125 C 26.207031 -107.445312 29.628906 -113.007812 34.265625 -118 C 38.910156 -123 44.210938 -126.867188 50.171875 -129.609375 C 53.378906 -131.160156 56.351562 -131.578125 59.09375 -130.859375 C 61.832031 -130.148438 64.179688 -128.8125 66.140625 -126.84375 C 68.109375 -124.882812 69.445312 -122.59375 70.15625 -119.96875 C 70.875 -117.351562 70.753906 -114.820312 69.796875 -112.375 C 68.847656 -109.9375 66.828125 -108.003906 63.734375 -106.578125 C 61.710938 -105.628906 59.363281 -104.320312 56.6875 -102.65625 C 54.007812 -100.988281 51.804688 -98.992188 50.078125 -96.671875 C 48.347656 -94.347656 48.019531 -91.757812 49.09375 -88.90625 C 49.6875 -87 51.082031 -85.363281 53.28125 -84 C 55.488281 -82.632812 57.84375 -81.414062 60.34375 -80.34375 C 62.84375 -79.269531 64.925781 -78.195312 66.59375 -77.125 Z M 66.59375 -77.125 "/></g></g></g><g fill="#ffffff" fill-opacity="1"><g transform="translate(851.432035, 396.174971)"><g><path d="M 16.953125 -109.96875 C 17.316406 -113.300781 18.507812 -115.976562 20.53125 -118 C 22.550781 -120.03125 24.929688 -121.398438 27.671875 -122.109375 C 30.410156 -122.828125 33.085938 -122.859375 35.703125 -122.203125 C 38.328125 -121.546875 40.410156 -120.175781 41.953125 -118.09375 C 43.503906 -116.007812 44.097656 -113.300781 43.734375 -109.96875 C 40.285156 -77.71875 37.609375 -45.40625 35.703125 -13.03125 C 35.460938 -9.582031 34.390625 -6.816406 32.484375 -4.734375 C 30.585938 -2.648438 28.300781 -1.28125 25.625 -0.625 C 22.945312 0.03125 20.296875 0.03125 17.671875 -0.625 C 15.054688 -1.28125 12.882812 -2.648438 11.15625 -4.734375 C 9.425781 -6.816406 8.679688 -9.582031 8.921875 -13.03125 C 10.828125 -45.40625 13.503906 -77.71875 16.953125 -109.96875 Z M 16.953125 -109.96875 "/></g></g></g><g fill="#ffffff" fill-opacity="1"><g transform="translate(904.27757, 396.174971)"><g><path d="M 79.453125 -42.84375 C 82.773438 -43.800781 85.65625 -43.679688 88.09375 -42.484375 C 90.539062 -41.296875 92.445312 -39.507812 93.8125 -37.125 C 95.1875 -34.75 95.898438 -32.191406 95.953125 -29.453125 C 96.015625 -26.710938 95.300781 -24.179688 93.8125 -21.859375 C 92.332031 -19.546875 89.925781 -17.972656 86.59375 -17.140625 C 80.519531 -15.359375 74.296875 -14.050781 67.921875 -13.21875 C 61.554688 -12.382812 55.25 -12.351562 49 -13.125 C 42.757812 -13.894531 36.78125 -15.890625 31.0625 -19.109375 C 23.6875 -23.390625 18.0625 -29.21875 14.1875 -36.59375 C 10.320312 -43.976562 8.566406 -51.894531 8.921875 -60.34375 C 9.398438 -68.675781 11.484375 -76.679688 15.171875 -84.359375 C 18.859375 -92.035156 23.765625 -98.789062 29.890625 -104.625 C 36.023438 -110.457031 42.988281 -114.945312 50.78125 -118.09375 C 58.582031 -121.25 66.707031 -122.53125 75.15625 -121.9375 C 78.613281 -121.582031 81.382812 -120.421875 83.46875 -118.453125 C 85.550781 -116.492188 86.914062 -114.171875 87.5625 -111.484375 C 88.21875 -108.804688 88.21875 -106.160156 87.5625 -103.546875 C 86.914062 -100.929688 85.550781 -98.789062 83.46875 -97.125 C 81.382812 -95.457031 78.613281 -94.800781 75.15625 -95.15625 C 68.96875 -95.632812 63.109375 -94.472656 57.578125 -91.671875 C 52.046875 -88.878906 47.375 -84.984375 43.5625 -79.984375 C 39.75 -74.984375 37.304688 -69.445312 36.234375 -63.375 C 35.171875 -57.90625 35.441406 -53.53125 37.046875 -50.25 C 38.648438 -46.976562 41.054688 -44.566406 44.265625 -43.015625 C 47.484375 -41.472656 51.144531 -40.523438 55.25 -40.171875 C 59.363281 -39.816406 63.53125 -39.9375 67.75 -40.53125 C 71.976562 -41.125 75.878906 -41.894531 79.453125 -42.84375 Z M 79.453125 -42.84375 "/></g></g></g></svg>