<svg xmlns="http://www.w3.org/2000/svg" xmlns:xlink="http://www.w3.org/1999/xlink" width="400" zoomAndPan="magnify" viewBox="0 0 300 149.999998" height="200" preserveAspectRatio="xMidYMid meet" version="1.0"><defs><g/><clipPath id="9ad5c36ab6"><path d="M 59.40625 48 L 107 48 L 107 99 L 59.40625 99 Z M 59.40625 48 " clip-rule="nonzero"/></clipPath><clipPath id="ec16701ff3"><path d="M 115 11 L 126.71875 11 L 126.71875 25 L 115 25 Z M 115 11 " clip-rule="nonzero"/></clipPath><clipPath id="ee22b74915"><rect x="0" width="127" y="0" height="32"/></clipPath></defs><g clip-path="url(#9ad5c36ab6)"><path fill="#1f2d47" d="M 106.171875 73.652344 C 105.84375 68.949219 103.976562 64.386719 101.03125 60.695312 C 99.082031 58.25 96.871094 56.613281 95.96875 55.957031 C 93.476562 54.105469 90.484375 52.515625 88.992188 52.113281 C 88.851562 52.082031 88.648438 52.082031 88.445312 51.910156 C 86.597656 50.375 86.835938 48.714844 86.046875 48.605469 C 85.703125 48.558594 85.484375 48.839844 85.300781 49.105469 C 85.113281 49.339844 85.082031 49.605469 85.050781 49.867188 C 85.035156 50.023438 85.050781 50.164062 84.878906 50.257812 C 84.300781 50.539062 83.210938 50.085938 82.960938 49.496094 C 82.824219 49.121094 82.621094 48.777344 82.417969 48.433594 C 82.136719 47.96875 81.746094 48.03125 81.40625 48.328125 C 80.332031 49.273438 81.304688 50.40625 80.082031 50.242188 C 77.925781 49.949219 77.101562 50.824219 74.285156 49.605469 C 73.695312 49.339844 72.761719 49.621094 72.636719 50.179688 C 72.277344 51.792969 72.929688 53.277344 74.613281 54.042969 C 73.871094 55.03125 73.511719 56.417969 73.601562 57.453125 C 74.765625 56.292969 76.410156 55.308594 78.039062 54.898438 C 78.164062 54.914062 78.289062 54.960938 78.414062 55.007812 C 79.816406 55.398438 81.15625 55.957031 82.511719 56.519531 C 83.226562 56.792969 83.695312 57.269531 83.304688 57.921875 C 82.824219 58.730469 81.683594 59.042969 80.921875 59.511719 C 80.648438 59.671875 80.378906 59.835938 80.105469 59.996094 C 79.085938 59.699219 78.035156 59.511719 77.007812 59.78125 C 74.328125 60.472656 73.074219 63.558594 72.148438 65.929688 C 72.664062 65.90625 73.171875 65.59375 73.464844 65.117188 C 73.558594 65.738281 73.652344 66.355469 73.742188 66.976562 C 74.011719 65.992188 74.507812 64.71875 75.449219 63.511719 C 76.019531 62.785156 76.726562 61.886719 77.714844 61.566406 C 77.269531 62.105469 77.507812 62.664062 78.039062 62.984375 C 78.945312 63.457031 82.347656 63.453125 85.207031 61.769531 C 86.28125 61.144531 87.496094 60.085938 88.804688 60.085938 C 90.003906 60.085938 91.53125 60.988281 92.511719 61.644531 C 96.109375 63.996094 98.226562 68.296875 98.367188 72.59375 C 98.554688 77.9375 95.734375 83.292969 91.234375 86.191406 C 84.054688 90.8125 76.410156 87.261719 75.90625 87.019531 C 75.171875 86.660156 69.769531 83.929688 67.792969 77.644531 C 65.933594 71.734375 67.839844 65.605469 72.363281 61.429688 C 74.667969 59.300781 77.292969 58.144531 77.011719 57.3125 C 76.890625 56.957031 76.292969 56.832031 75.78125 56.785156 C 75.058594 57.277344 74.832031 57.628906 72.945312 59.480469 C 72.816406 56.511719 72.800781 56.4375 72.824219 56.097656 C 72.851562 55.695312 72.917969 55.574219 72.882812 55.539062 C 72.695312 55.335938 69.628906 57.714844 68.015625 59.257812 C 62.855469 64.195312 60.96875 69.753906 60.28125 73.371094 C 60.839844 71.964844 62.605469 71.464844 63.820312 72.40625 C 64.160156 72.671875 64.21875 73.160156 63.957031 73.5 C 63.691406 73.839844 63.203125 73.902344 62.863281 73.636719 C 62.484375 73.339844 61.90625 73.492188 61.726562 73.949219 C 61.574219 74.339844 61.132812 74.550781 60.714844 74.390625 C 60.339844 74.242188 60.15625 73.832031 60.261719 73.453125 C 59.832031 75.753906 59.882812 77.253906 59.882812 77.253906 C 60.398438 90.121094 72.324219 96.148438 72.839844 96.394531 C 84.617188 102.09375 95.578125 94.894531 96.03125 94.585938 C 102.730469 90.023438 106.746094 81.753906 106.171875 73.652344 Z M 79.273438 53.445312 C 78.738281 53.445312 78.304688 53.015625 78.304688 52.480469 C 78.304688 51.945312 78.738281 51.515625 79.273438 51.515625 C 79.808594 51.515625 80.238281 51.945312 80.238281 52.480469 C 80.238281 53.015625 79.808594 53.445312 79.273438 53.445312 Z M 65.902344 83.039062 C 65.808594 83.457031 65.394531 83.722656 64.96875 83.625 C 64.488281 83.515625 64.042969 83.902344 64.070312 84.386719 C 64.09375 84.816406 63.765625 85.183594 63.335938 85.207031 C 63.320312 85.207031 63.308594 85.207031 63.292969 85.207031 C 62.882812 85.207031 62.539062 84.886719 62.515625 84.472656 C 62.429688 82.953125 63.828125 81.761719 65.320312 82.105469 C 65.738281 82.203125 66 82.621094 65.902344 83.039062 Z M 66.535156 76.835938 C 66.441406 77.257812 66.023438 77.523438 65.601562 77.421875 C 65.128906 77.316406 64.675781 77.691406 64.699219 78.183594 C 64.726562 78.613281 64.398438 78.980469 63.96875 79.007812 C 63.953125 79.007812 63.9375 79.007812 63.921875 79.007812 C 63.511719 79.007812 63.171875 78.6875 63.144531 78.273438 C 63.058594 76.734375 64.480469 75.5625 65.953125 75.902344 C 66.371094 76 66.632812 76.417969 66.535156 76.835938 Z M 66.0625 68.597656 C 65.703125 68.246094 65.121094 68.351562 64.894531 68.773438 C 64.753906 69.035156 64.484375 69.183594 64.207031 69.183594 C 63.621094 69.183594 63.246094 68.554688 63.523438 68.035156 C 64.242188 66.691406 66.0625 66.414062 67.152344 67.484375 C 67.460938 67.785156 67.464844 68.28125 67.164062 68.585938 C 66.859375 68.894531 66.367188 68.894531 66.0625 68.597656 Z M 68.265625 87.203125 C 66.605469 87.714844 66.75 83.757812 69.449219 83.714844 C 69.453125 83.714844 69.457031 83.714844 69.460938 83.714844 C 69.886719 83.714844 70.234375 84.054688 70.238281 84.480469 C 70.246094 84.910156 69.902344 85.265625 69.472656 85.273438 C 68.984375 85.28125 68.636719 85.761719 68.78125 86.230469 C 68.910156 86.640625 68.679688 87.074219 68.265625 87.203125 Z M 70.792969 90.222656 C 70.308594 90.28125 70.007812 90.792969 70.195312 91.242188 C 70.363281 91.636719 70.175781 92.09375 69.78125 92.261719 C 69.386719 92.425781 68.925781 92.242188 68.761719 91.84375 C 68.171875 90.4375 69.097656 88.851562 70.617188 88.675781 C 71.039062 88.617188 71.429688 88.933594 71.480469 89.363281 C 71.527344 89.789062 71.222656 90.175781 70.792969 90.222656 Z M 75.984375 91.152344 C 75.519531 91.289062 75.3125 91.847656 75.578125 92.261719 C 75.917969 92.78125 75.535156 93.460938 74.925781 93.460938 C 73.648438 93.460938 73.289062 90.335938 75.539062 89.660156 C 75.949219 89.539062 76.382812 89.769531 76.507812 90.183594 C 76.632812 90.59375 76.398438 91.027344 75.984375 91.152344 Z M 80.800781 97.0625 C 79.28125 96.863281 78.378906 95.261719 78.992188 93.863281 C 79.160156 93.46875 79.621094 93.289062 80.015625 93.464844 C 80.410156 93.636719 80.589844 94.09375 80.417969 94.488281 C 80.222656 94.9375 80.515625 95.453125 81 95.515625 C 81.425781 95.570312 81.726562 95.960938 81.671875 96.386719 C 81.621094 96.785156 81.265625 97.109375 80.800781 97.0625 Z M 86.023438 93.972656 C 84.507812 93.777344 83.601562 92.179688 84.210938 90.777344 C 84.382812 90.386719 84.84375 90.203125 85.238281 90.375 C 85.632812 90.546875 85.8125 91.007812 85.640625 91.402344 C 85.445312 91.847656 85.738281 92.367188 86.222656 92.425781 C 86.648438 92.484375 86.949219 92.871094 86.894531 93.300781 C 86.839844 93.707031 86.472656 94.023438 86.023438 93.972656 Z M 92.578125 94.679688 C 89.832031 94.980469 89.292969 91.089844 90.945312 91.378906 C 91.371094 91.449219 91.65625 91.851562 91.585938 92.273438 C 91.503906 92.765625 91.925781 93.191406 92.398438 93.128906 C 92.835938 93.074219 93.214844 93.386719 93.261719 93.816406 C 93.3125 94.242188 93.007812 94.628906 92.578125 94.679688 Z M 94.960938 89.851562 C 93.445312 90.03125 92.175781 88.703125 92.429688 87.191406 C 92.5 86.769531 92.902344 86.476562 93.324219 86.554688 C 93.75 86.625 94.035156 87.027344 93.964844 87.449219 C 93.882812 87.929688 94.285156 88.359375 94.777344 88.304688 C 95.210938 88.246094 95.59375 88.558594 95.644531 88.988281 C 95.695312 89.414062 95.386719 89.800781 94.960938 89.851562 Z M 100.761719 66.828125 C 101.21875 67.011719 101.722656 66.699219 101.769531 66.21875 C 101.8125 65.789062 102.207031 65.484375 102.621094 65.519531 C 103.050781 65.5625 103.363281 65.945312 103.320312 66.371094 C 103.167969 67.910156 101.578125 68.835938 100.179688 68.273438 C 99.78125 68.113281 99.585938 67.660156 99.75 67.261719 C 99.910156 66.859375 100.363281 66.671875 100.761719 66.828125 Z M 103.113281 72.757812 C 102.316406 74.042969 100.496094 74.234375 99.457031 73.089844 C 99.167969 72.769531 99.191406 72.277344 99.511719 71.988281 C 99.832031 71.699219 100.324219 71.722656 100.613281 72.042969 C 100.957031 72.425781 101.542969 72.335938 101.789062 71.9375 C 102.015625 71.570312 102.496094 71.457031 102.859375 71.683594 C 103.226562 71.910156 103.339844 72.390625 103.113281 72.757812 Z M 94.472656 59.894531 C 94.046875 59.824219 93.761719 59.421875 93.832031 59 C 93.90625 58.574219 94.304688 58.28125 94.730469 58.359375 C 95.210938 58.441406 95.640625 58.03125 95.585938 57.546875 C 95.535156 57.117188 95.839844 56.730469 96.265625 56.679688 C 96.699219 56.621094 97.082031 56.9375 97.132812 57.363281 C 97.308594 58.886719 95.976562 60.144531 94.472656 59.894531 Z M 96.425781 64.949219 C 96.042969 64.757812 95.882812 64.292969 96.078125 63.90625 C 96.269531 63.523438 96.734375 63.363281 97.121094 63.558594 C 97.566406 63.777344 98.089844 63.503906 98.179688 63.03125 C 98.257812 62.605469 98.667969 62.324219 99.085938 62.402344 C 99.507812 62.480469 99.789062 62.886719 99.710938 63.308594 C 99.433594 64.824219 97.78125 65.628906 96.425781 64.949219 Z M 100.519531 87.660156 C 100.140625 87.914062 99.695312 88.042969 99.246094 88.042969 C 97.394531 88.042969 96.332031 85.847656 97.566406 85.457031 C 97.980469 85.332031 98.414062 85.558594 98.542969 85.96875 C 98.691406 86.4375 99.253906 86.632812 99.65625 86.363281 C 100.011719 86.125 100.496094 86.222656 100.734375 86.582031 C 100.972656 86.9375 100.875 87.421875 100.519531 87.660156 Z M 101.644531 81.984375 C 100.617188 83.117188 98.789062 82.9375 97.992188 81.636719 C 97.765625 81.273438 97.882812 80.792969 98.246094 80.566406 C 98.613281 80.34375 99.09375 80.457031 99.320312 80.824219 C 99.578125 81.25 100.171875 81.289062 100.492188 80.9375 C 100.785156 80.617188 101.277344 80.597656 101.59375 80.882812 C 101.910156 81.171875 101.933594 81.667969 101.644531 81.984375 Z M 105.097656 78.128906 C 104.074219 79.253906 102.242188 79.089844 101.441406 77.78125 C 101.21875 77.414062 101.332031 76.933594 101.699219 76.710938 C 102.066406 76.488281 102.546875 76.601562 102.769531 76.96875 C 103.035156 77.402344 103.632812 77.421875 103.945312 77.082031 C 104.234375 76.761719 104.726562 76.738281 105.046875 77.027344 C 105.363281 77.316406 105.386719 77.8125 105.097656 78.128906 Z M 105.097656 78.128906 " fill-opacity="1" fill-rule="nonzero"/></g><g transform="matrix(1, 0, 0, 1, 114, 59)"><g clip-path="url(#ee22b74915)"><g fill="#ffffff" fill-opacity="1"><g transform="translate(0.0971443, 23.840924)"><g><path d="M 7.09375 -6 C 6.863281 -5.976562 6.628906 -5.960938 6.390625 -5.953125 C 6.160156 -5.953125 5.925781 -5.953125 5.6875 -5.953125 C 5.40625 -5.953125 5.125 -5.953125 4.84375 -5.953125 C 4.570312 -5.953125 4.265625 -5.96875 3.921875 -6 L 3.921875 -1.046875 C 3.921875 -0.523438 3.796875 -0.203125 3.546875 -0.078125 C 3.296875 0.0351562 2.984375 0.09375 2.609375 0.09375 C 2.410156 0.09375 2.253906 0.0820312 2.140625 0.0625 C 2.023438 0.0390625 1.929688 -0.00390625 1.859375 -0.078125 C 1.785156 -0.148438 1.726562 -0.257812 1.6875 -0.40625 C 1.65625 -0.5625 1.628906 -0.769531 1.609375 -1.03125 C 1.578125 -1.320312 1.550781 -1.742188 1.53125 -2.296875 C 1.519531 -2.859375 1.507812 -3.585938 1.5 -4.484375 C 1.488281 -5.378906 1.476562 -6.460938 1.46875 -7.734375 C 1.46875 -9.015625 1.46875 -10.519531 1.46875 -12.25 C 1.46875 -12.914062 1.546875 -13.5625 1.703125 -14.1875 C 1.867188 -14.8125 2.160156 -15.363281 2.578125 -15.84375 C 3.003906 -16.320312 3.578125 -16.707031 4.296875 -17 C 5.023438 -17.289062 5.953125 -17.4375 7.078125 -17.4375 C 7.867188 -17.4375 8.640625 -17.347656 9.390625 -17.171875 C 10.148438 -16.992188 10.820312 -16.679688 11.40625 -16.234375 C 12 -15.796875 12.472656 -15.203125 12.828125 -14.453125 C 13.179688 -13.710938 13.359375 -12.78125 13.359375 -11.65625 C 13.359375 -10.164062 13.035156 -9.007812 12.390625 -8.1875 C 11.753906 -7.363281 10.875 -6.78125 9.75 -6.4375 L 13.03125 -1.953125 C 13.320312 -1.554688 13.46875 -1.15625 13.46875 -0.75 C 13.46875 -0.425781 13.359375 -0.171875 13.140625 0.015625 C 12.921875 0.203125 12.644531 0.296875 12.3125 0.296875 C 11.957031 0.296875 11.648438 0.195312 11.390625 0 C 11.128906 -0.207031 10.882812 -0.476562 10.65625 -0.8125 Z M 10.921875 -11.6875 C 10.921875 -12.800781 10.582031 -13.628906 9.90625 -14.171875 C 9.238281 -14.722656 8.171875 -15 6.703125 -15 C 6.171875 -15 5.722656 -14.953125 5.359375 -14.859375 C 5.003906 -14.773438 4.71875 -14.609375 4.5 -14.359375 C 4.289062 -14.117188 4.140625 -13.78125 4.046875 -13.34375 C 3.960938 -12.914062 3.921875 -12.367188 3.921875 -11.703125 C 3.921875 -11.234375 3.921875 -10.679688 3.921875 -10.046875 C 3.921875 -9.410156 3.929688 -8.832031 3.953125 -8.3125 C 4.328125 -8.300781 4.742188 -8.296875 5.203125 -8.296875 C 5.671875 -8.296875 6.109375 -8.296875 6.515625 -8.296875 C 6.960938 -8.296875 7.441406 -8.320312 7.953125 -8.375 C 8.472656 -8.4375 8.953125 -8.582031 9.390625 -8.8125 C 9.828125 -9.050781 10.191406 -9.394531 10.484375 -9.84375 C 10.773438 -10.289062 10.921875 -10.90625 10.921875 -11.6875 Z M 10.921875 -11.6875 "/></g></g></g><g fill="#ffffff" fill-opacity="1"><g transform="translate(14.170534, 23.840924)"><g><path d="M 7.125 -4.484375 C 6.550781 -4.484375 5.953125 -4.523438 5.328125 -4.609375 C 4.703125 -4.703125 4.023438 -4.894531 3.296875 -5.1875 C 3.441406 -4.195312 3.847656 -3.445312 4.515625 -2.9375 C 5.191406 -2.4375 6.164062 -2.1875 7.4375 -2.1875 C 7.894531 -2.1875 8.304688 -2.210938 8.671875 -2.265625 C 9.035156 -2.328125 9.351562 -2.394531 9.625 -2.46875 C 9.90625 -2.539062 10.148438 -2.601562 10.359375 -2.65625 C 10.578125 -2.71875 10.773438 -2.75 10.953125 -2.75 C 11.179688 -2.75 11.398438 -2.679688 11.609375 -2.546875 C 11.816406 -2.410156 11.921875 -2.179688 11.921875 -1.859375 C 11.921875 -1.453125 11.753906 -1.117188 11.421875 -0.859375 C 11.085938 -0.597656 10.679688 -0.390625 10.203125 -0.234375 C 9.722656 -0.078125 9.210938 0.0234375 8.671875 0.078125 C 8.140625 0.140625 7.671875 0.171875 7.265625 0.171875 C 6.304688 0.171875 5.425781 0.0390625 4.625 -0.21875 C 3.820312 -0.476562 3.125 -0.867188 2.53125 -1.390625 C 1.945312 -1.921875 1.492188 -2.578125 1.171875 -3.359375 C 0.847656 -4.140625 0.6875 -5.050781 0.6875 -6.09375 C 0.6875 -7.101562 0.84375 -8 1.15625 -8.78125 C 1.476562 -9.5625 1.914062 -10.21875 2.46875 -10.75 C 3.019531 -11.289062 3.671875 -11.695312 4.421875 -11.96875 C 5.179688 -12.25 6 -12.390625 6.875 -12.390625 C 7.5625 -12.390625 8.222656 -12.300781 8.859375 -12.125 C 9.503906 -11.945312 10.070312 -11.675781 10.5625 -11.3125 C 11.0625 -10.957031 11.460938 -10.503906 11.765625 -9.953125 C 12.066406 -9.410156 12.21875 -8.773438 12.21875 -8.046875 C 12.21875 -7.398438 12.09375 -6.847656 11.84375 -6.390625 C 11.601562 -5.929688 11.257812 -5.5625 10.8125 -5.28125 C 10.363281 -5.007812 9.828125 -4.804688 9.203125 -4.671875 C 8.578125 -4.546875 7.882812 -4.484375 7.125 -4.484375 Z M 6.953125 -10.140625 C 6.515625 -10.140625 6.09375 -10.085938 5.6875 -9.984375 C 5.28125 -9.878906 4.910156 -9.707031 4.578125 -9.46875 C 4.242188 -9.238281 3.960938 -8.929688 3.734375 -8.546875 C 3.503906 -8.160156 3.347656 -7.6875 3.265625 -7.125 C 3.878906 -6.84375 4.476562 -6.648438 5.0625 -6.546875 C 5.65625 -6.441406 6.273438 -6.390625 6.921875 -6.390625 C 7.878906 -6.390625 8.585938 -6.503906 9.046875 -6.734375 C 9.515625 -6.972656 9.75 -7.40625 9.75 -8.03125 C 9.75 -8.59375 9.535156 -9.082031 9.109375 -9.5 C 8.679688 -9.925781 7.960938 -10.140625 6.953125 -10.140625 Z M 6.953125 -10.140625 "/></g></g></g><g fill="#ffffff" fill-opacity="1"><g transform="translate(27.219516, 23.840924)"><g><path d="M 7.21875 -10.390625 C 6.613281 -10.390625 6.070312 -10.289062 5.59375 -10.09375 C 5.113281 -9.90625 4.570312 -9.613281 3.96875 -9.21875 C 3.96875 -8.875 3.96875 -8.375 3.96875 -7.71875 C 3.96875 -7.0625 3.957031 -6.347656 3.9375 -5.578125 C 3.925781 -4.804688 3.910156 -4.046875 3.890625 -3.296875 C 3.878906 -2.546875 3.851562 -1.921875 3.8125 -1.421875 C 3.769531 -1.085938 3.726562 -0.828125 3.6875 -0.640625 C 3.65625 -0.453125 3.601562 -0.3125 3.53125 -0.21875 C 3.457031 -0.125 3.359375 -0.0625 3.234375 -0.03125 C 3.109375 -0.0078125 2.945312 0 2.75 0 C 2.5625 0 2.40625 -0.0078125 2.28125 -0.03125 C 2.15625 -0.0625 2.050781 -0.117188 1.96875 -0.203125 C 1.894531 -0.296875 1.832031 -0.429688 1.78125 -0.609375 C 1.726562 -0.785156 1.6875 -1.03125 1.65625 -1.34375 C 1.625 -1.632812 1.59375 -2.023438 1.5625 -2.515625 C 1.539062 -3.003906 1.519531 -3.535156 1.5 -4.109375 C 1.488281 -4.679688 1.476562 -5.265625 1.46875 -5.859375 C 1.46875 -6.453125 1.46875 -7.003906 1.46875 -7.515625 C 1.46875 -8.335938 1.476562 -9.007812 1.5 -9.53125 C 1.519531 -10.050781 1.566406 -10.515625 1.640625 -10.921875 C 1.734375 -11.609375 1.859375 -12.039062 2.015625 -12.21875 C 2.179688 -12.394531 2.40625 -12.484375 2.6875 -12.484375 C 3.09375 -12.484375 3.394531 -12.367188 3.59375 -12.140625 C 3.800781 -11.921875 3.925781 -11.550781 3.96875 -11.03125 C 4.570312 -11.550781 5.21875 -11.960938 5.90625 -12.265625 C 6.601562 -12.578125 7.316406 -12.734375 8.046875 -12.734375 C 8.742188 -12.734375 9.378906 -12.566406 9.953125 -12.234375 C 10.535156 -11.910156 11.015625 -11.382812 11.390625 -10.65625 C 11.617188 -10.21875 11.789062 -9.734375 11.90625 -9.203125 C 12.019531 -8.679688 12.097656 -8.125 12.140625 -7.53125 C 12.160156 -7.269531 12.175781 -7.015625 12.1875 -6.765625 C 12.207031 -6.515625 12.222656 -6.242188 12.234375 -5.953125 C 12.242188 -5.671875 12.25 -5.351562 12.25 -5 C 12.25 -4.644531 12.25 -4.222656 12.25 -3.734375 C 12.25 -3.210938 12.238281 -2.722656 12.21875 -2.265625 C 12.207031 -1.804688 12.160156 -1.410156 12.078125 -1.078125 C 12.003906 -0.742188 11.878906 -0.484375 11.703125 -0.296875 C 11.523438 -0.117188 11.28125 -0.03125 10.96875 -0.03125 C 10.226562 -0.03125 9.84375 -0.382812 9.8125 -1.09375 C 9.8125 -1.144531 9.8125 -1.351562 9.8125 -1.71875 C 9.8125 -2.082031 9.804688 -2.507812 9.796875 -3 C 9.785156 -3.488281 9.773438 -3.984375 9.765625 -4.484375 C 9.753906 -4.992188 9.742188 -5.410156 9.734375 -5.734375 C 9.710938 -5.992188 9.691406 -6.273438 9.671875 -6.578125 C 9.648438 -6.878906 9.617188 -7.179688 9.578125 -7.484375 C 9.535156 -7.796875 9.476562 -8.09375 9.40625 -8.375 C 9.34375 -8.664062 9.265625 -8.921875 9.171875 -9.140625 C 8.941406 -9.679688 8.65625 -10.023438 8.3125 -10.171875 C 7.976562 -10.316406 7.613281 -10.390625 7.21875 -10.390625 Z M 7.21875 -10.390625 "/></g></g></g><g fill="#ffffff" fill-opacity="1"><g transform="translate(40.439216, 23.840924)"><g><path d="M 3.578125 -1.578125 C 3.535156 -2.609375 3.507812 -3.828125 3.5 -5.234375 C 3.488281 -6.640625 3.484375 -8.238281 3.484375 -10.03125 C 3.328125 -10.007812 3.132812 -10 2.90625 -10 C 2.6875 -10 2.515625 -10 2.390625 -10 C 2.097656 -10 1.832031 -10.003906 1.59375 -10.015625 C 1.363281 -10.035156 1.15625 -10.085938 0.96875 -10.171875 C 0.789062 -10.253906 0.65625 -10.367188 0.5625 -10.515625 C 0.46875 -10.671875 0.421875 -10.890625 0.421875 -11.171875 C 0.421875 -11.953125 1.003906 -12.34375 2.171875 -12.34375 C 2.347656 -12.34375 2.566406 -12.34375 2.828125 -12.34375 C 3.085938 -12.34375 3.304688 -12.328125 3.484375 -12.296875 C 3.484375 -13.148438 3.5 -13.835938 3.53125 -14.359375 C 3.5625 -14.878906 3.625 -15.28125 3.71875 -15.5625 C 3.8125 -15.851562 3.929688 -16.039062 4.078125 -16.125 C 4.234375 -16.21875 4.4375 -16.265625 4.6875 -16.265625 C 4.945312 -16.265625 5.15625 -16.175781 5.3125 -16 C 5.476562 -15.820312 5.601562 -15.59375 5.6875 -15.3125 C 5.78125 -15.039062 5.835938 -14.734375 5.859375 -14.390625 C 5.890625 -14.046875 5.90625 -13.710938 5.90625 -13.390625 C 5.90625 -13.160156 5.898438 -12.953125 5.890625 -12.765625 C 5.878906 -12.578125 5.875 -12.410156 5.875 -12.265625 C 6.101562 -12.328125 6.335938 -12.363281 6.578125 -12.375 C 6.828125 -12.382812 7.066406 -12.390625 7.296875 -12.390625 C 7.890625 -12.390625 8.347656 -12.296875 8.671875 -12.109375 C 9.003906 -11.921875 9.171875 -11.617188 9.171875 -11.203125 C 9.171875 -10.941406 9.113281 -10.734375 9 -10.578125 C 8.882812 -10.421875 8.734375 -10.300781 8.546875 -10.21875 C 8.359375 -10.132812 8.140625 -10.082031 7.890625 -10.0625 C 7.640625 -10.039062 7.367188 -10.03125 7.078125 -10.03125 C 6.910156 -10.03125 6.71875 -10.03125 6.5 -10.03125 C 6.289062 -10.03125 6.097656 -10.046875 5.921875 -10.078125 C 5.921875 -9.210938 5.921875 -8.421875 5.921875 -7.703125 C 5.921875 -6.992188 5.910156 -6.304688 5.890625 -5.640625 C 5.878906 -4.984375 5.863281 -4.328125 5.84375 -3.671875 C 5.832031 -3.023438 5.8125 -2.335938 5.78125 -1.609375 C 5.757812 -1.222656 5.71875 -0.921875 5.65625 -0.703125 C 5.601562 -0.492188 5.53125 -0.332031 5.4375 -0.21875 C 5.34375 -0.101562 5.234375 -0.03125 5.109375 0 C 4.984375 0.0195312 4.84375 0.03125 4.6875 0.03125 C 4.394531 0.03125 4.144531 -0.0664062 3.9375 -0.265625 C 3.738281 -0.472656 3.617188 -0.910156 3.578125 -1.578125 Z M 3.578125 -1.578125 "/></g></g></g><g fill="#ffffff" fill-opacity="1"><g transform="translate(50.122293, 23.840924)"><g><path d="M 11.484375 0.09375 C 11.222656 0.09375 11.015625 0.0507812 10.859375 -0.03125 C 10.710938 -0.125 10.597656 -0.242188 10.515625 -0.390625 C 10.429688 -0.535156 10.375 -0.707031 10.34375 -0.90625 C 10.3125 -1.113281 10.285156 -1.332031 10.265625 -1.5625 C 9.859375 -1.0625 9.332031 -0.640625 8.6875 -0.296875 C 8.050781 0.046875 7.238281 0.21875 6.25 0.21875 C 5.613281 0.21875 4.960938 0.125 4.296875 -0.0625 C 3.640625 -0.25 3.039062 -0.570312 2.5 -1.03125 C 1.96875 -1.5 1.53125 -2.125 1.1875 -2.90625 C 0.851562 -3.6875 0.6875 -4.671875 0.6875 -5.859375 C 0.6875 -6.785156 0.796875 -7.65625 1.015625 -8.46875 C 1.242188 -9.28125 1.585938 -9.988281 2.046875 -10.59375 C 2.515625 -11.207031 3.097656 -11.691406 3.796875 -12.046875 C 4.503906 -12.398438 5.328125 -12.578125 6.265625 -12.578125 C 7.097656 -12.578125 7.835938 -12.425781 8.484375 -12.125 C 9.140625 -11.832031 9.726562 -11.34375 10.25 -10.65625 C 10.25 -10.851562 10.253906 -11.050781 10.265625 -11.25 C 10.285156 -11.457031 10.332031 -11.644531 10.40625 -11.8125 C 10.476562 -11.988281 10.59375 -12.128906 10.75 -12.234375 C 10.914062 -12.335938 11.140625 -12.390625 11.421875 -12.390625 C 11.660156 -12.390625 11.882812 -12.289062 12.09375 -12.09375 C 12.3125 -11.90625 12.4375 -11.484375 12.46875 -10.828125 C 12.507812 -9.960938 12.539062 -9.1875 12.5625 -8.5 C 12.59375 -7.820312 12.609375 -7.117188 12.609375 -6.390625 C 12.609375 -5.492188 12.597656 -4.671875 12.578125 -3.921875 C 12.566406 -3.179688 12.53125 -2.382812 12.46875 -1.53125 C 12.4375 -1.15625 12.390625 -0.859375 12.328125 -0.640625 C 12.273438 -0.421875 12.207031 -0.257812 12.125 -0.15625 C 12.039062 -0.0507812 11.941406 0.015625 11.828125 0.046875 C 11.710938 0.078125 11.597656 0.09375 11.484375 0.09375 Z M 10.171875 -6.09375 C 10.171875 -6.9375 10.046875 -7.625 9.796875 -8.15625 C 9.546875 -8.695312 9.226562 -9.117188 8.84375 -9.421875 C 8.457031 -9.722656 8.046875 -9.929688 7.609375 -10.046875 C 7.171875 -10.160156 6.765625 -10.21875 6.390625 -10.21875 C 5.804688 -10.21875 5.304688 -10.109375 4.890625 -9.890625 C 4.472656 -9.679688 4.132812 -9.394531 3.875 -9.03125 C 3.613281 -8.664062 3.421875 -8.234375 3.296875 -7.734375 C 3.179688 -7.242188 3.125 -6.707031 3.125 -6.125 C 3.125 -4.6875 3.4375 -3.625 4.0625 -2.9375 C 4.6875 -2.257812 5.535156 -1.921875 6.609375 -1.921875 C 7.242188 -1.921875 7.785156 -2.03125 8.234375 -2.25 C 8.679688 -2.46875 9.046875 -2.765625 9.328125 -3.140625 C 9.609375 -3.515625 9.816406 -3.957031 9.953125 -4.46875 C 10.097656 -4.988281 10.171875 -5.53125 10.171875 -6.09375 Z M 10.171875 -6.09375 "/></g></g></g><g fill="#ffffff" fill-opacity="1"><g transform="translate(64.098124, 23.840924)"><g><path d="M 1.640625 -1.421875 C 1.617188 -2.003906 1.597656 -2.6875 1.578125 -3.46875 C 1.566406 -4.25 1.554688 -5.09375 1.546875 -6 C 1.535156 -6.90625 1.523438 -7.863281 1.515625 -8.875 C 1.515625 -9.882812 1.515625 -10.914062 1.515625 -11.96875 C 1.515625 -13.125 1.519531 -14.117188 1.53125 -14.953125 C 1.550781 -15.785156 1.597656 -16.46875 1.671875 -17 C 1.742188 -17.539062 1.859375 -17.9375 2.015625 -18.1875 C 2.179688 -18.4375 2.410156 -18.5625 2.703125 -18.5625 C 2.984375 -18.5625 3.226562 -18.472656 3.4375 -18.296875 C 3.644531 -18.117188 3.769531 -17.703125 3.8125 -17.046875 C 3.875 -15.878906 3.910156 -14.664062 3.921875 -13.40625 C 3.941406 -12.144531 3.953125 -10.90625 3.953125 -9.6875 C 3.953125 -8.945312 3.953125 -8.238281 3.953125 -7.5625 C 3.953125 -6.894531 3.941406 -6.226562 3.921875 -5.5625 C 3.910156 -4.90625 3.894531 -4.234375 3.875 -3.546875 C 3.863281 -2.867188 3.84375 -2.164062 3.8125 -1.4375 C 3.789062 -1.050781 3.75 -0.75 3.6875 -0.53125 C 3.632812 -0.320312 3.554688 -0.160156 3.453125 -0.046875 C 3.359375 0.0664062 3.25 0.132812 3.125 0.15625 C 3.007812 0.175781 2.867188 0.1875 2.703125 0.1875 C 2.410156 0.1875 2.164062 0.0859375 1.96875 -0.109375 C 1.78125 -0.316406 1.671875 -0.753906 1.640625 -1.421875 Z M 1.640625 -1.421875 "/></g></g></g><g fill="#ffffff" fill-opacity="1"><g transform="translate(69.561626, 23.840924)"><g><path d="M 5.921875 0 C 5.015625 0 4.285156 -0.0703125 3.734375 -0.21875 C 3.179688 -0.363281 2.753906 -0.570312 2.453125 -0.84375 C 2.148438 -1.113281 1.945312 -1.441406 1.84375 -1.828125 C 1.738281 -2.222656 1.660156 -2.660156 1.609375 -3.140625 C 1.554688 -3.710938 1.519531 -4.46875 1.5 -5.40625 C 1.476562 -6.34375 1.46875 -7.3125 1.46875 -8.3125 C 1.46875 -8.800781 1.46875 -9.316406 1.46875 -9.859375 C 1.476562 -10.410156 1.488281 -10.945312 1.5 -11.46875 C 1.507812 -12 1.519531 -12.492188 1.53125 -12.953125 C 1.550781 -13.410156 1.578125 -13.800781 1.609375 -14.125 C 1.660156 -14.625 1.742188 -15.078125 1.859375 -15.484375 C 1.972656 -15.890625 2.1875 -16.238281 2.5 -16.53125 C 2.8125 -16.820312 3.253906 -17.046875 3.828125 -17.203125 C 4.410156 -17.359375 5.179688 -17.4375 6.140625 -17.4375 C 8.328125 -17.4375 9.957031 -17.035156 11.03125 -16.234375 C 12.113281 -15.429688 12.65625 -14.289062 12.65625 -12.8125 C 12.65625 -12.039062 12.488281 -11.328125 12.15625 -10.671875 C 11.820312 -10.023438 11.25 -9.539062 10.4375 -9.21875 C 10.894531 -9.132812 11.3125 -8.960938 11.6875 -8.703125 C 12.0625 -8.441406 12.378906 -8.128906 12.640625 -7.765625 C 12.910156 -7.398438 13.113281 -6.992188 13.25 -6.546875 C 13.394531 -6.097656 13.46875 -5.644531 13.46875 -5.1875 C 13.46875 -4.601562 13.34375 -4.003906 13.09375 -3.390625 C 12.851562 -2.785156 12.4375 -2.226562 11.84375 -1.71875 C 11.257812 -1.21875 10.484375 -0.804688 9.515625 -0.484375 C 8.554688 -0.160156 7.359375 0 5.921875 0 Z M 11.03125 -5.265625 C 11.03125 -5.847656 10.894531 -6.316406 10.625 -6.671875 C 10.351562 -7.035156 10.003906 -7.3125 9.578125 -7.5 C 9.160156 -7.6875 8.691406 -7.8125 8.171875 -7.875 C 7.648438 -7.9375 7.128906 -7.96875 6.609375 -7.96875 C 6.203125 -7.96875 5.78125 -7.96875 5.34375 -7.96875 C 4.90625 -7.96875 4.5 -7.960938 4.125 -7.953125 C 4.101562 -7.609375 4.082031 -7.253906 4.0625 -6.890625 C 4.050781 -6.535156 4.039062 -6.203125 4.03125 -5.890625 C 4.03125 -5.578125 4.03125 -5.300781 4.03125 -5.0625 C 4.03125 -4.820312 4.03125 -4.65625 4.03125 -4.5625 C 4.03125 -4.125 4.0625 -3.757812 4.125 -3.46875 C 4.1875 -3.175781 4.304688 -2.9375 4.484375 -2.75 C 4.660156 -2.570312 4.914062 -2.445312 5.25 -2.375 C 5.582031 -2.300781 6.007812 -2.265625 6.53125 -2.265625 C 7.96875 -2.265625 9.078125 -2.515625 9.859375 -3.015625 C 10.640625 -3.523438 11.03125 -4.273438 11.03125 -5.265625 Z M 6.515625 -15.125 C 5.972656 -15.125 5.535156 -15.078125 5.203125 -14.984375 C 4.867188 -14.898438 4.613281 -14.785156 4.4375 -14.640625 C 4.269531 -14.492188 4.160156 -14.3125 4.109375 -14.09375 C 4.054688 -13.882812 4.03125 -13.660156 4.03125 -13.421875 L 4.03125 -10 C 4.25 -9.976562 4.484375 -9.96875 4.734375 -9.96875 C 4.992188 -9.96875 5.238281 -9.96875 5.46875 -9.96875 C 6.050781 -9.96875 6.625 -10.007812 7.1875 -10.09375 C 7.75 -10.175781 8.253906 -10.316406 8.703125 -10.515625 C 9.160156 -10.710938 9.523438 -10.976562 9.796875 -11.3125 C 10.078125 -11.65625 10.21875 -12.097656 10.21875 -12.640625 C 10.21875 -13.367188 9.921875 -13.960938 9.328125 -14.421875 C 8.734375 -14.890625 7.796875 -15.125 6.515625 -15.125 Z M 6.515625 -15.125 "/></g></g></g><g fill="#ffffff" fill-opacity="1"><g transform="translate(83.756965, 23.840924)"><g><path d="M 11.484375 0.09375 C 11.222656 0.09375 11.015625 0.0507812 10.859375 -0.03125 C 10.710938 -0.125 10.597656 -0.242188 10.515625 -0.390625 C 10.429688 -0.535156 10.375 -0.707031 10.34375 -0.90625 C 10.3125 -1.113281 10.285156 -1.332031 10.265625 -1.5625 C 9.859375 -1.0625 9.332031 -0.640625 8.6875 -0.296875 C 8.050781 0.046875 7.238281 0.21875 6.25 0.21875 C 5.613281 0.21875 4.960938 0.125 4.296875 -0.0625 C 3.640625 -0.25 3.039062 -0.570312 2.5 -1.03125 C 1.96875 -1.5 1.53125 -2.125 1.1875 -2.90625 C 0.851562 -3.6875 0.6875 -4.671875 0.6875 -5.859375 C 0.6875 -6.785156 0.796875 -7.65625 1.015625 -8.46875 C 1.242188 -9.28125 1.585938 -9.988281 2.046875 -10.59375 C 2.515625 -11.207031 3.097656 -11.691406 3.796875 -12.046875 C 4.503906 -12.398438 5.328125 -12.578125 6.265625 -12.578125 C 7.097656 -12.578125 7.835938 -12.425781 8.484375 -12.125 C 9.140625 -11.832031 9.726562 -11.34375 10.25 -10.65625 C 10.25 -10.851562 10.253906 -11.050781 10.265625 -11.25 C 10.285156 -11.457031 10.332031 -11.644531 10.40625 -11.8125 C 10.476562 -11.988281 10.59375 -12.128906 10.75 -12.234375 C 10.914062 -12.335938 11.140625 -12.390625 11.421875 -12.390625 C 11.660156 -12.390625 11.882812 -12.289062 12.09375 -12.09375 C 12.3125 -11.90625 12.4375 -11.484375 12.46875 -10.828125 C 12.507812 -9.960938 12.539062 -9.1875 12.5625 -8.5 C 12.59375 -7.820312 12.609375 -7.117188 12.609375 -6.390625 C 12.609375 -5.492188 12.597656 -4.671875 12.578125 -3.921875 C 12.566406 -3.179688 12.53125 -2.382812 12.46875 -1.53125 C 12.4375 -1.15625 12.390625 -0.859375 12.328125 -0.640625 C 12.273438 -0.421875 12.207031 -0.257812 12.125 -0.15625 C 12.039062 -0.0507812 11.941406 0.015625 11.828125 0.046875 C 11.710938 0.078125 11.597656 0.09375 11.484375 0.09375 Z M 10.171875 -6.09375 C 10.171875 -6.9375 10.046875 -7.625 9.796875 -8.15625 C 9.546875 -8.695312 9.226562 -9.117188 8.84375 -9.421875 C 8.457031 -9.722656 8.046875 -9.929688 7.609375 -10.046875 C 7.171875 -10.160156 6.765625 -10.21875 6.390625 -10.21875 C 5.804688 -10.21875 5.304688 -10.109375 4.890625 -9.890625 C 4.472656 -9.679688 4.132812 -9.394531 3.875 -9.03125 C 3.613281 -8.664062 3.421875 -8.234375 3.296875 -7.734375 C 3.179688 -7.242188 3.125 -6.707031 3.125 -6.125 C 3.125 -4.6875 3.4375 -3.625 4.0625 -2.9375 C 4.6875 -2.257812 5.535156 -1.921875 6.609375 -1.921875 C 7.242188 -1.921875 7.785156 -2.03125 8.234375 -2.25 C 8.679688 -2.46875 9.046875 -2.765625 9.328125 -3.140625 C 9.609375 -3.515625 9.816406 -3.957031 9.953125 -4.46875 C 10.097656 -4.988281 10.171875 -5.53125 10.171875 -6.09375 Z M 10.171875 -6.09375 "/></g></g></g><g fill="#ffffff" fill-opacity="1"><g transform="translate(97.732792, 23.840924)"><g><path d="M 5.78125 -12.734375 C 6.125 -12.734375 6.554688 -12.703125 7.078125 -12.640625 C 7.597656 -12.585938 8.09375 -12.484375 8.5625 -12.328125 C 9.03125 -12.171875 9.4375 -11.953125 9.78125 -11.671875 C 10.125 -11.398438 10.296875 -11.054688 10.296875 -10.640625 C 10.296875 -10.390625 10.222656 -10.175781 10.078125 -10 C 9.941406 -9.820312 9.726562 -9.734375 9.4375 -9.734375 C 9.226562 -9.734375 8.988281 -9.765625 8.71875 -9.828125 C 8.445312 -9.890625 8.148438 -9.960938 7.828125 -10.046875 C 7.515625 -10.140625 7.175781 -10.21875 6.8125 -10.28125 C 6.445312 -10.351562 6.0625 -10.390625 5.65625 -10.390625 C 4.976562 -10.390625 4.421875 -10.28125 3.984375 -10.0625 C 3.554688 -9.851562 3.34375 -9.523438 3.34375 -9.078125 C 3.34375 -8.816406 3.421875 -8.59375 3.578125 -8.40625 C 3.734375 -8.226562 3.941406 -8.070312 4.203125 -7.9375 C 4.472656 -7.800781 4.789062 -7.679688 5.15625 -7.578125 C 5.519531 -7.484375 5.90625 -7.390625 6.3125 -7.296875 C 6.820312 -7.160156 7.320312 -7.007812 7.8125 -6.84375 C 8.3125 -6.6875 8.753906 -6.460938 9.140625 -6.171875 C 9.535156 -5.890625 9.851562 -5.535156 10.09375 -5.109375 C 10.34375 -4.679688 10.46875 -4.148438 10.46875 -3.515625 C 10.46875 -2.304688 10.007812 -1.347656 9.09375 -0.640625 C 8.1875 0.0664062 6.847656 0.421875 5.078125 0.421875 C 4.679688 0.421875 4.210938 0.390625 3.671875 0.328125 C 3.140625 0.273438 2.640625 0.171875 2.171875 0.015625 C 1.703125 -0.140625 1.300781 -0.359375 0.96875 -0.640625 C 0.632812 -0.929688 0.46875 -1.3125 0.46875 -1.78125 C 0.46875 -2.101562 0.539062 -2.347656 0.6875 -2.515625 C 0.84375 -2.691406 1.035156 -2.78125 1.265625 -2.78125 C 1.441406 -2.78125 1.628906 -2.722656 1.828125 -2.609375 C 2.023438 -2.492188 2.257812 -2.367188 2.53125 -2.234375 C 2.8125 -2.109375 3.144531 -1.988281 3.53125 -1.875 C 3.925781 -1.757812 4.40625 -1.703125 4.96875 -1.703125 C 5.1875 -1.703125 5.460938 -1.710938 5.796875 -1.734375 C 6.140625 -1.765625 6.476562 -1.835938 6.8125 -1.953125 C 7.144531 -2.066406 7.429688 -2.222656 7.671875 -2.421875 C 7.910156 -2.628906 8.03125 -2.921875 8.03125 -3.296875 C 8.03125 -3.585938 7.945312 -3.832031 7.78125 -4.03125 C 7.613281 -4.238281 7.390625 -4.414062 7.109375 -4.5625 C 6.835938 -4.707031 6.519531 -4.832031 6.15625 -4.9375 C 5.789062 -5.039062 5.40625 -5.148438 5 -5.265625 C 4.53125 -5.398438 4.054688 -5.546875 3.578125 -5.703125 C 3.097656 -5.867188 2.660156 -6.082031 2.265625 -6.34375 C 1.878906 -6.601562 1.5625 -6.929688 1.3125 -7.328125 C 1.070312 -7.722656 0.953125 -8.21875 0.953125 -8.8125 C 0.953125 -9.363281 1.066406 -9.878906 1.296875 -10.359375 C 1.523438 -10.835938 1.847656 -11.253906 2.265625 -11.609375 C 2.691406 -11.960938 3.203125 -12.238281 3.796875 -12.4375 C 4.390625 -12.632812 5.050781 -12.734375 5.78125 -12.734375 Z M 5.78125 -12.734375 "/></g></g></g><g fill="#ffffff" fill-opacity="1"><g transform="translate(108.952475, 23.840924)"><g><path d="M 1.65625 -1.515625 C 1.625 -2.117188 1.59375 -2.804688 1.5625 -3.578125 C 1.539062 -4.347656 1.53125 -5.195312 1.53125 -6.125 C 1.53125 -7.28125 1.535156 -8.265625 1.546875 -9.078125 C 1.566406 -9.898438 1.613281 -10.578125 1.6875 -11.109375 C 1.769531 -11.640625 1.890625 -12.03125 2.046875 -12.28125 C 2.210938 -12.53125 2.441406 -12.65625 2.734375 -12.65625 C 3.003906 -12.65625 3.242188 -12.554688 3.453125 -12.359375 C 3.671875 -12.171875 3.796875 -11.75 3.828125 -11.09375 C 3.921875 -9.382812 3.96875 -7.734375 3.96875 -6.140625 C 3.96875 -5.328125 3.953125 -4.566406 3.921875 -3.859375 C 3.890625 -3.160156 3.859375 -2.382812 3.828125 -1.53125 C 3.816406 -1.144531 3.78125 -0.84375 3.71875 -0.625 C 3.664062 -0.414062 3.585938 -0.253906 3.484375 -0.140625 C 3.390625 -0.0234375 3.28125 0.0390625 3.15625 0.0625 C 3.03125 0.0820312 2.890625 0.09375 2.734375 0.09375 C 2.441406 0.09375 2.195312 -0.00390625 2 -0.203125 C 1.800781 -0.410156 1.6875 -0.847656 1.65625 -1.515625 Z M 2.75 -17.078125 C 3.125 -17.078125 3.46875 -16.929688 3.78125 -16.640625 C 4.101562 -16.347656 4.265625 -15.992188 4.265625 -15.578125 C 4.265625 -15.191406 4.101562 -14.851562 3.78125 -14.5625 C 3.457031 -14.28125 3.09375 -14.140625 2.6875 -14.140625 C 2.34375 -14.140625 2.019531 -14.28125 1.71875 -14.5625 C 1.414062 -14.851562 1.265625 -15.210938 1.265625 -15.640625 C 1.265625 -16.023438 1.414062 -16.359375 1.71875 -16.640625 C 2.019531 -16.929688 2.363281 -17.078125 2.75 -17.078125 Z M 2.75 -17.078125 "/></g></g></g><g clip-path="url(#ec16701ff3)"><g fill="#ffffff" fill-opacity="1"><g transform="translate(114.464765, 23.840924)"><g><path d="M 7.046875 -12.4375 C 7.515625 -12.4375 7.988281 -12.394531 8.46875 -12.3125 C 8.945312 -12.238281 9.378906 -12.125 9.765625 -11.96875 C 10.160156 -11.820312 10.476562 -11.644531 10.71875 -11.4375 C 10.96875 -11.226562 11.09375 -10.984375 11.09375 -10.703125 C 11.09375 -9.992188 10.6875 -9.640625 9.875 -9.640625 C 9.675781 -9.640625 9.492188 -9.664062 9.328125 -9.71875 C 9.160156 -9.78125 8.960938 -9.835938 8.734375 -9.890625 C 8.503906 -9.941406 8.21875 -9.992188 7.875 -10.046875 C 7.53125 -10.109375 7.109375 -10.140625 6.609375 -10.140625 C 5.535156 -10.140625 4.707031 -9.773438 4.125 -9.046875 C 3.539062 -8.316406 3.25 -7.363281 3.25 -6.1875 C 3.25 -4.90625 3.546875 -3.875 4.140625 -3.09375 C 4.734375 -2.3125 5.570312 -1.921875 6.65625 -1.921875 C 7.34375 -1.921875 7.894531 -1.976562 8.3125 -2.09375 C 8.738281 -2.207031 9.082031 -2.335938 9.34375 -2.484375 C 9.613281 -2.628906 9.832031 -2.757812 10 -2.875 C 10.175781 -2.988281 10.367188 -3.046875 10.578125 -3.046875 C 10.878906 -3.046875 11.113281 -2.984375 11.28125 -2.859375 C 11.445312 -2.742188 11.53125 -2.5 11.53125 -2.125 C 11.53125 -1.726562 11.378906 -1.382812 11.078125 -1.09375 C 10.785156 -0.800781 10.410156 -0.554688 9.953125 -0.359375 C 9.492188 -0.171875 9 -0.03125 8.46875 0.0625 C 7.945312 0.164062 7.46875 0.21875 7.03125 0.21875 C 5.0625 0.21875 3.515625 -0.320312 2.390625 -1.40625 C 1.265625 -2.5 0.703125 -4.046875 0.703125 -6.046875 C 0.703125 -6.910156 0.835938 -7.726562 1.109375 -8.5 C 1.378906 -9.269531 1.78125 -9.945312 2.3125 -10.53125 C 2.851562 -11.125 3.515625 -11.585938 4.296875 -11.921875 C 5.085938 -12.265625 6.003906 -12.4375 7.046875 -12.4375 Z M 7.046875 -12.4375 "/></g></g></g></g></g></g></svg>