<svg xmlns="http://www.w3.org/2000/svg" xmlns:xlink="http://www.w3.org/1999/xlink" width="400" zoomAndPan="magnify" viewBox="0 0 300 149.999998" height="200" preserveAspectRatio="xMidYMid meet" version="1.0"><defs><g/><clipPath id="f0493f6087"><path d="M 60 48.09375 L 107 48.09375 L 107 99 L 60 99 Z M 60 48.09375 " clip-rule="nonzero"/></clipPath><clipPath id="1e0574d495"><rect x="0" width="127" y="0" height="31"/></clipPath></defs><g clip-path="url(#f0493f6087)"><path fill="#7ed957" d="M 106.421875 73.660156 C 106.097656 68.984375 104.238281 64.445312 101.3125 60.777344 C 99.375 58.34375 97.175781 56.71875 96.28125 56.070312 C 93.800781 54.226562 90.828125 52.644531 89.34375 52.246094 C 89.203125 52.214844 89 52.214844 88.800781 52.042969 C 86.960938 50.515625 87.199219 48.867188 86.414062 48.761719 C 86.074219 48.714844 85.859375 48.992188 85.671875 49.253906 C 85.488281 49.488281 85.457031 49.75 85.425781 50.015625 C 85.410156 50.167969 85.425781 50.308594 85.253906 50.402344 C 84.679688 50.679688 83.597656 50.230469 83.347656 49.644531 C 83.210938 49.269531 83.007812 48.929688 82.808594 48.589844 C 82.527344 48.125 82.140625 48.1875 81.800781 48.480469 C 80.734375 49.425781 81.703125 50.546875 80.484375 50.386719 C 78.34375 50.09375 77.523438 50.964844 74.722656 49.75 C 74.136719 49.488281 73.207031 49.765625 73.082031 50.324219 C 72.726562 51.925781 73.375 53.402344 75.050781 54.164062 C 74.3125 55.148438 73.953125 56.527344 74.042969 57.554688 C 75.199219 56.402344 76.835938 55.421875 78.457031 55.015625 C 78.578125 55.03125 78.703125 55.078125 78.828125 55.125 C 80.222656 55.511719 81.554688 56.070312 82.898438 56.625 C 83.609375 56.898438 84.078125 57.371094 83.691406 58.019531 C 83.210938 58.824219 82.078125 59.132812 81.320312 59.597656 C 81.046875 59.761719 80.78125 59.921875 80.507812 60.085938 C 79.496094 59.785156 78.453125 59.601562 77.429688 59.867188 C 74.765625 60.558594 73.519531 63.621094 72.597656 65.980469 C 73.113281 65.957031 73.617188 65.644531 73.910156 65.171875 C 74 65.789062 74.09375 66.40625 74.183594 67.023438 C 74.449219 66.042969 74.941406 64.777344 75.882812 63.578125 C 76.449219 62.851562 77.152344 61.960938 78.132812 61.644531 C 77.6875 62.179688 77.925781 62.734375 78.457031 63.054688 C 79.355469 63.523438 82.738281 63.519531 85.578125 61.84375 C 86.648438 61.226562 87.855469 60.171875 89.15625 60.171875 C 90.347656 60.171875 91.867188 61.070312 92.84375 61.722656 C 96.417969 64.058594 98.523438 68.332031 98.664062 72.605469 C 98.851562 77.917969 96.046875 83.246094 91.570312 86.125 C 84.433594 90.71875 76.832031 87.1875 76.335938 86.945312 C 75.601562 86.589844 70.234375 83.878906 68.269531 77.628906 C 66.421875 71.75 68.316406 65.660156 72.8125 61.507812 C 75.101562 59.394531 77.714844 58.242188 77.433594 57.417969 C 77.3125 57.0625 76.71875 56.9375 76.210938 56.890625 C 75.492188 57.378906 75.265625 57.730469 73.394531 59.570312 C 73.261719 56.617188 73.246094 56.542969 73.269531 56.207031 C 73.296875 55.808594 73.367188 55.6875 73.332031 55.652344 C 73.144531 55.449219 70.09375 57.816406 68.492188 59.347656 C 63.359375 64.253906 61.484375 69.78125 60.800781 73.382812 C 61.355469 71.980469 63.113281 71.484375 64.316406 72.421875 C 64.65625 72.683594 64.71875 73.167969 64.453125 73.507812 C 64.191406 73.84375 63.707031 73.90625 63.367188 73.644531 C 62.988281 73.351562 62.417969 73.496094 62.238281 73.953125 C 62.085938 74.339844 61.648438 74.550781 61.234375 74.390625 C 60.859375 74.242188 60.675781 73.839844 60.78125 73.460938 C 60.355469 75.746094 60.402344 77.242188 60.402344 77.242188 C 60.917969 90.03125 72.773438 96.023438 73.285156 96.269531 C 84.996094 101.933594 95.894531 94.777344 96.339844 94.472656 C 103 89.933594 106.996094 81.710938 106.421875 73.660156 Z M 79.679688 53.570312 C 79.152344 53.570312 78.71875 53.140625 78.71875 52.609375 C 78.71875 52.082031 79.152344 51.652344 79.679688 51.652344 C 80.210938 51.652344 80.640625 52.082031 80.640625 52.609375 C 80.640625 53.140625 80.210938 53.570312 79.679688 53.570312 Z M 66.390625 82.992188 C 66.296875 83.40625 65.882812 83.671875 65.460938 83.570312 C 64.984375 83.460938 64.542969 83.847656 64.566406 84.328125 C 64.589844 84.757812 64.265625 85.121094 63.839844 85.144531 C 63.824219 85.148438 63.808594 85.148438 63.792969 85.148438 C 63.386719 85.148438 63.046875 84.828125 63.023438 84.417969 C 62.933594 82.902344 64.328125 81.722656 65.808594 82.0625 C 66.226562 82.160156 66.488281 82.574219 66.390625 82.992188 Z M 67.019531 76.824219 C 66.925781 77.242188 66.507812 77.507812 66.089844 77.40625 C 65.621094 77.300781 65.167969 77.675781 65.195312 78.164062 C 65.21875 78.589844 64.894531 78.957031 64.464844 78.980469 C 64.449219 78.984375 64.4375 78.984375 64.421875 78.984375 C 64.011719 78.984375 63.671875 78.664062 63.648438 78.253906 C 63.5625 76.722656 64.976562 75.558594 66.4375 75.898438 C 66.855469 75.992188 67.113281 76.410156 67.019531 76.824219 Z M 66.546875 68.632812 C 66.191406 68.285156 65.613281 68.390625 65.386719 68.808594 C 65.25 69.070312 64.980469 69.214844 64.703125 69.214844 C 64.121094 69.214844 63.746094 68.59375 64.023438 68.078125 C 64.738281 66.738281 66.546875 66.464844 67.632812 67.527344 C 67.9375 67.828125 67.941406 68.316406 67.640625 68.621094 C 67.339844 68.929688 66.851562 68.929688 66.546875 68.632812 Z M 68.738281 87.128906 C 67.089844 87.640625 67.230469 83.707031 69.914062 83.664062 C 69.917969 83.664062 69.921875 83.664062 69.925781 83.664062 C 70.347656 83.664062 70.695312 84.003906 70.703125 84.425781 C 70.707031 84.851562 70.367188 85.207031 69.941406 85.210938 C 69.453125 85.21875 69.109375 85.699219 69.25 86.164062 C 69.378906 86.570312 69.148438 87.003906 68.738281 87.128906 Z M 71.253906 90.132812 C 70.769531 90.191406 70.472656 90.699219 70.660156 91.144531 C 70.824219 91.539062 70.636719 91.992188 70.242188 92.160156 C 69.851562 92.324219 69.394531 92.140625 69.230469 91.746094 C 68.644531 90.347656 69.566406 88.769531 71.078125 88.59375 C 71.496094 88.535156 71.886719 88.851562 71.933594 89.277344 C 71.984375 89.703125 71.675781 90.085938 71.253906 90.132812 Z M 76.414062 91.058594 C 75.953125 91.195312 75.746094 91.75 76.007812 92.15625 C 76.347656 92.679688 75.964844 93.351562 75.359375 93.351562 C 74.089844 93.351562 73.730469 90.246094 75.96875 89.574219 C 76.378906 89.453125 76.808594 89.683594 76.933594 90.09375 C 77.054688 90.503906 76.824219 90.933594 76.414062 91.058594 Z M 81.199219 96.929688 C 79.691406 96.734375 78.792969 95.144531 79.402344 93.753906 C 79.570312 93.359375 80.027344 93.179688 80.417969 93.355469 C 80.8125 93.523438 80.992188 93.980469 80.820312 94.375 C 80.625 94.820312 80.917969 95.332031 81.398438 95.394531 C 81.820312 95.449219 82.121094 95.835938 82.066406 96.261719 C 82.015625 96.65625 81.664062 96.976562 81.199219 96.929688 Z M 86.390625 93.859375 C 84.886719 93.664062 83.984375 92.078125 84.589844 90.683594 C 84.761719 90.292969 85.21875 90.113281 85.609375 90.285156 C 86.003906 90.453125 86.183594 90.910156 86.011719 91.304688 C 85.816406 91.746094 86.105469 92.261719 86.589844 92.324219 C 87.011719 92.378906 87.3125 92.765625 87.257812 93.191406 C 87.207031 93.597656 86.839844 93.910156 86.390625 93.859375 Z M 92.910156 94.5625 C 90.179688 94.863281 89.640625 90.992188 91.285156 91.28125 C 91.707031 91.351562 91.992188 91.75 91.921875 92.171875 C 91.839844 92.660156 92.257812 93.085938 92.730469 93.023438 C 93.167969 92.96875 93.542969 93.277344 93.589844 93.703125 C 93.640625 94.128906 93.335938 94.511719 92.910156 94.5625 Z M 95.277344 89.765625 C 93.773438 89.941406 92.507812 88.621094 92.761719 87.121094 C 92.832031 86.699219 93.230469 86.40625 93.652344 86.484375 C 94.074219 86.554688 94.359375 86.957031 94.289062 87.375 C 94.207031 87.855469 94.605469 88.28125 95.097656 88.226562 C 95.523438 88.167969 95.90625 88.480469 95.957031 88.90625 C 96.007812 89.328125 95.703125 89.714844 95.277344 89.765625 Z M 101.042969 66.875 C 101.5 67.058594 102 66.75 102.046875 66.269531 C 102.089844 65.84375 102.480469 65.539062 102.894531 65.574219 C 103.320312 65.617188 103.628906 65.996094 103.589844 66.421875 C 103.4375 67.949219 101.859375 68.871094 100.464844 68.3125 C 100.070312 68.152344 99.878906 67.703125 100.035156 67.304688 C 100.199219 66.90625 100.648438 66.71875 101.042969 66.875 Z M 103.382812 72.769531 C 102.589844 74.046875 100.777344 74.238281 99.746094 73.097656 C 99.460938 72.78125 99.484375 72.289062 99.800781 72.003906 C 100.117188 71.71875 100.609375 71.742188 100.894531 72.058594 C 101.238281 72.4375 101.820312 72.351562 102.066406 71.953125 C 102.289062 71.589844 102.769531 71.476562 103.132812 71.703125 C 103.496094 71.925781 103.605469 72.40625 103.382812 72.769531 Z M 94.792969 59.980469 C 94.371094 59.910156 94.085938 59.511719 94.15625 59.089844 C 94.226562 58.667969 94.625 58.378906 95.046875 58.453125 C 95.527344 58.535156 95.953125 58.128906 95.898438 57.648438 C 95.847656 57.222656 96.152344 56.835938 96.578125 56.785156 C 97.007812 56.730469 97.386719 57.039062 97.4375 57.464844 C 97.613281 58.980469 96.285156 60.230469 94.792969 59.980469 Z M 96.734375 65.007812 C 96.351562 64.816406 96.195312 64.351562 96.386719 63.972656 C 96.578125 63.589844 97.042969 63.433594 97.425781 63.625 C 97.867188 63.84375 98.390625 63.570312 98.476562 63.097656 C 98.554688 62.679688 98.960938 62.394531 99.375 62.476562 C 99.796875 62.554688 100.078125 62.957031 100 63.378906 C 99.722656 64.882812 98.082031 65.683594 96.734375 65.007812 Z M 100.804688 87.585938 C 100.425781 87.835938 99.984375 87.964844 99.535156 87.964844 C 97.695312 87.964844 96.640625 85.78125 97.867188 85.398438 C 98.277344 85.269531 98.710938 85.496094 98.839844 85.902344 C 98.984375 86.371094 99.546875 86.5625 99.945312 86.296875 C 100.300781 86.058594 100.78125 86.15625 101.019531 86.511719 C 101.253906 86.867188 101.160156 87.347656 100.804688 87.585938 Z M 101.921875 81.941406 C 100.902344 83.070312 99.082031 82.890625 98.289062 81.597656 C 98.066406 81.234375 98.179688 80.757812 98.546875 80.535156 C 98.90625 80.3125 99.386719 80.425781 99.609375 80.789062 C 99.867188 81.210938 100.457031 81.25 100.777344 80.902344 C 101.066406 80.585938 101.554688 80.5625 101.871094 80.847656 C 102.1875 81.136719 102.210938 81.625 101.921875 81.941406 Z M 105.355469 78.109375 C 104.339844 79.226562 102.519531 79.0625 101.722656 77.765625 C 101.496094 77.398438 101.613281 76.921875 101.976562 76.699219 C 102.34375 76.476562 102.820312 76.59375 103.042969 76.957031 C 103.304688 77.386719 103.898438 77.40625 104.210938 77.066406 C 104.5 76.75 104.988281 76.726562 105.304688 77.015625 C 105.621094 77.304688 105.644531 77.792969 105.355469 78.109375 Z M 105.355469 78.109375 " fill-opacity="1" fill-rule="nonzero"/></g><g transform="matrix(1, 0, 0, 1, 114, 59)"><g clip-path="url(#1e0574d495)"><g fill="#1f2d47" fill-opacity="1"><g transform="translate(0.30546, 23.795436)"><g><path d="M 7.0625 -5.96875 C 6.832031 -5.945312 6.597656 -5.929688 6.359375 -5.921875 C 6.128906 -5.921875 5.894531 -5.921875 5.65625 -5.921875 C 5.375 -5.921875 5.09375 -5.921875 4.8125 -5.921875 C 4.539062 -5.921875 4.238281 -5.9375 3.90625 -5.96875 L 3.90625 -1.046875 C 3.90625 -0.523438 3.78125 -0.203125 3.53125 -0.078125 C 3.28125 0.0351562 2.96875 0.09375 2.59375 0.09375 C 2.394531 0.09375 2.238281 0.0820312 2.125 0.0625 C 2.019531 0.0390625 1.929688 -0.00390625 1.859375 -0.078125 C 1.785156 -0.148438 1.726562 -0.257812 1.6875 -0.40625 C 1.644531 -0.550781 1.613281 -0.753906 1.59375 -1.015625 C 1.5625 -1.304688 1.535156 -1.726562 1.515625 -2.28125 C 1.503906 -2.84375 1.492188 -3.566406 1.484375 -4.453125 C 1.484375 -5.347656 1.476562 -6.429688 1.46875 -7.703125 C 1.457031 -8.972656 1.453125 -10.460938 1.453125 -12.171875 C 1.453125 -12.835938 1.53125 -13.476562 1.6875 -14.09375 C 1.851562 -14.71875 2.144531 -15.269531 2.5625 -15.75 C 2.988281 -16.226562 3.5625 -16.613281 4.28125 -16.90625 C 5 -17.195312 5.914062 -17.34375 7.03125 -17.34375 C 7.820312 -17.34375 8.59375 -17.253906 9.34375 -17.078125 C 10.09375 -16.898438 10.757812 -16.59375 11.34375 -16.15625 C 11.925781 -15.71875 12.394531 -15.125 12.75 -14.375 C 13.101562 -13.632812 13.28125 -12.707031 13.28125 -11.59375 C 13.28125 -10.101562 12.960938 -8.945312 12.328125 -8.125 C 11.691406 -7.3125 10.816406 -6.738281 9.703125 -6.40625 L 12.953125 -1.9375 C 13.242188 -1.550781 13.390625 -1.15625 13.390625 -0.75 C 13.390625 -0.425781 13.28125 -0.171875 13.0625 0.015625 C 12.84375 0.203125 12.570312 0.296875 12.25 0.296875 C 11.894531 0.296875 11.585938 0.195312 11.328125 0 C 11.066406 -0.207031 10.820312 -0.472656 10.59375 -0.796875 Z M 10.859375 -11.609375 C 10.859375 -12.722656 10.519531 -13.550781 9.84375 -14.09375 C 9.175781 -14.632812 8.117188 -14.90625 6.671875 -14.90625 C 6.140625 -14.90625 5.691406 -14.859375 5.328125 -14.765625 C 4.972656 -14.679688 4.691406 -14.519531 4.484375 -14.28125 C 4.273438 -14.039062 4.125 -13.707031 4.03125 -13.28125 C 3.945312 -12.851562 3.90625 -12.304688 3.90625 -11.640625 C 3.90625 -11.171875 3.90625 -10.617188 3.90625 -9.984375 C 3.90625 -9.359375 3.910156 -8.785156 3.921875 -8.265625 C 4.296875 -8.253906 4.710938 -8.25 5.171875 -8.25 C 5.640625 -8.25 6.070312 -8.25 6.46875 -8.25 C 6.925781 -8.25 7.410156 -8.273438 7.921875 -8.328125 C 8.429688 -8.390625 8.898438 -8.535156 9.328125 -8.765625 C 9.765625 -9.003906 10.128906 -9.34375 10.421875 -9.78125 C 10.710938 -10.226562 10.859375 -10.835938 10.859375 -11.609375 Z M 10.859375 -11.609375 "/></g></g></g><g fill="#1f2d47" fill-opacity="1"><g transform="translate(14.297194, 23.795436)"><g><path d="M 7.078125 -4.46875 C 6.515625 -4.46875 5.921875 -4.507812 5.296875 -4.59375 C 4.671875 -4.6875 4 -4.878906 3.28125 -5.171875 C 3.414062 -4.179688 3.816406 -3.4375 4.484375 -2.9375 C 5.160156 -2.4375 6.128906 -2.1875 7.390625 -2.1875 C 7.847656 -2.1875 8.257812 -2.210938 8.625 -2.265625 C 8.988281 -2.328125 9.304688 -2.394531 9.578125 -2.46875 C 9.847656 -2.539062 10.085938 -2.601562 10.296875 -2.65625 C 10.515625 -2.707031 10.710938 -2.734375 10.890625 -2.734375 C 11.117188 -2.734375 11.335938 -2.664062 11.546875 -2.53125 C 11.753906 -2.394531 11.859375 -2.164062 11.859375 -1.84375 C 11.859375 -1.4375 11.691406 -1.101562 11.359375 -0.84375 C 11.023438 -0.582031 10.617188 -0.375 10.140625 -0.21875 C 9.671875 -0.0703125 9.164062 0.0234375 8.625 0.078125 C 8.09375 0.140625 7.625 0.171875 7.21875 0.171875 C 6.269531 0.171875 5.394531 0.0390625 4.59375 -0.21875 C 3.789062 -0.476562 3.097656 -0.867188 2.515625 -1.390625 C 1.941406 -1.921875 1.488281 -2.570312 1.15625 -3.34375 C 0.832031 -4.125 0.671875 -5.03125 0.671875 -6.0625 C 0.671875 -7.0625 0.828125 -7.945312 1.140625 -8.71875 C 1.460938 -9.5 1.898438 -10.15625 2.453125 -10.6875 C 3.003906 -11.226562 3.65625 -11.632812 4.40625 -11.90625 C 5.15625 -12.175781 5.96875 -12.3125 6.84375 -12.3125 C 7.519531 -12.3125 8.175781 -12.222656 8.8125 -12.046875 C 9.445312 -11.867188 10.007812 -11.601562 10.5 -11.25 C 11 -10.894531 11.398438 -10.445312 11.703125 -9.90625 C 12.003906 -9.363281 12.15625 -8.726562 12.15625 -8 C 12.15625 -7.351562 12.03125 -6.800781 11.78125 -6.34375 C 11.539062 -5.894531 11.195312 -5.53125 10.75 -5.25 C 10.3125 -4.976562 9.78125 -4.78125 9.15625 -4.65625 C 8.53125 -4.53125 7.835938 -4.46875 7.078125 -4.46875 Z M 6.90625 -10.09375 C 6.46875 -10.09375 6.046875 -10.035156 5.640625 -9.921875 C 5.242188 -9.816406 4.878906 -9.644531 4.546875 -9.40625 C 4.210938 -9.175781 3.929688 -8.875 3.703125 -8.5 C 3.484375 -8.125 3.332031 -7.648438 3.25 -7.078125 C 3.863281 -6.804688 4.460938 -6.617188 5.046875 -6.515625 C 5.628906 -6.410156 6.242188 -6.359375 6.890625 -6.359375 C 7.835938 -6.359375 8.539062 -6.472656 9 -6.703125 C 9.46875 -6.941406 9.703125 -7.367188 9.703125 -7.984375 C 9.703125 -8.546875 9.488281 -9.035156 9.0625 -9.453125 C 8.632812 -9.878906 7.914062 -10.09375 6.90625 -10.09375 Z M 6.90625 -10.09375 "/></g></g></g><g fill="#1f2d47" fill-opacity="1"><g transform="translate(27.270464, 23.795436)"><g><path d="M 7.171875 -10.328125 C 6.578125 -10.328125 6.039062 -10.226562 5.5625 -10.03125 C 5.082031 -9.84375 4.546875 -9.554688 3.953125 -9.171875 C 3.953125 -8.828125 3.953125 -8.328125 3.953125 -7.671875 C 3.953125 -7.015625 3.941406 -6.300781 3.921875 -5.53125 C 3.910156 -4.769531 3.894531 -4.015625 3.875 -3.265625 C 3.863281 -2.523438 3.832031 -1.90625 3.78125 -1.40625 C 3.75 -1.082031 3.710938 -0.828125 3.671875 -0.640625 C 3.628906 -0.453125 3.570312 -0.3125 3.5 -0.21875 C 3.425781 -0.125 3.328125 -0.0625 3.203125 -0.03125 C 3.085938 -0.0078125 2.929688 0 2.734375 0 C 2.546875 0 2.390625 -0.0078125 2.265625 -0.03125 C 2.140625 -0.0625 2.035156 -0.117188 1.953125 -0.203125 C 1.878906 -0.296875 1.816406 -0.429688 1.765625 -0.609375 C 1.722656 -0.785156 1.6875 -1.023438 1.65625 -1.328125 C 1.613281 -1.617188 1.582031 -2.003906 1.5625 -2.484375 C 1.539062 -2.972656 1.519531 -3.503906 1.5 -4.078125 C 1.488281 -4.660156 1.476562 -5.242188 1.46875 -5.828125 C 1.457031 -6.421875 1.453125 -6.96875 1.453125 -7.46875 C 1.453125 -8.289062 1.460938 -8.957031 1.484375 -9.46875 C 1.515625 -9.988281 1.5625 -10.453125 1.625 -10.859375 C 1.71875 -11.535156 1.84375 -11.960938 2 -12.140625 C 2.164062 -12.328125 2.390625 -12.421875 2.671875 -12.421875 C 3.078125 -12.421875 3.378906 -12.304688 3.578125 -12.078125 C 3.773438 -11.847656 3.898438 -11.476562 3.953125 -10.96875 C 4.546875 -11.476562 5.1875 -11.882812 5.875 -12.1875 C 6.5625 -12.5 7.269531 -12.65625 8 -12.65625 C 8.695312 -12.65625 9.332031 -12.492188 9.90625 -12.171875 C 10.476562 -11.847656 10.953125 -11.320312 11.328125 -10.59375 C 11.554688 -10.15625 11.722656 -9.671875 11.828125 -9.140625 C 11.941406 -8.617188 12.023438 -8.070312 12.078125 -7.5 C 12.085938 -7.238281 12.101562 -6.984375 12.125 -6.734375 C 12.144531 -6.484375 12.15625 -6.210938 12.15625 -5.921875 C 12.164062 -5.640625 12.171875 -5.320312 12.171875 -4.96875 C 12.171875 -4.613281 12.171875 -4.191406 12.171875 -3.703125 C 12.171875 -3.191406 12.160156 -2.707031 12.140625 -2.25 C 12.128906 -1.800781 12.085938 -1.410156 12.015625 -1.078125 C 11.941406 -0.742188 11.816406 -0.484375 11.640625 -0.296875 C 11.460938 -0.117188 11.21875 -0.03125 10.90625 -0.03125 C 10.164062 -0.03125 9.78125 -0.382812 9.75 -1.09375 C 9.75 -1.132812 9.75 -1.335938 9.75 -1.703125 C 9.75 -2.066406 9.742188 -2.488281 9.734375 -2.96875 C 9.722656 -3.457031 9.710938 -3.953125 9.703125 -4.453125 C 9.703125 -4.960938 9.691406 -5.378906 9.671875 -5.703125 C 9.660156 -5.960938 9.640625 -6.238281 9.609375 -6.53125 C 9.585938 -6.832031 9.554688 -7.132812 9.515625 -7.4375 C 9.472656 -7.75 9.421875 -8.046875 9.359375 -8.328125 C 9.296875 -8.609375 9.21875 -8.863281 9.125 -9.09375 C 8.894531 -9.625 8.609375 -9.960938 8.265625 -10.109375 C 7.929688 -10.253906 7.566406 -10.328125 7.171875 -10.328125 Z M 7.171875 -10.328125 "/></g></g></g><g fill="#1f2d47" fill-opacity="1"><g transform="translate(40.413461, 23.795436)"><g><path d="M 3.5625 -1.578125 C 3.507812 -2.597656 3.476562 -3.804688 3.46875 -5.203125 C 3.46875 -6.597656 3.46875 -8.1875 3.46875 -9.96875 C 3.300781 -9.945312 3.109375 -9.9375 2.890625 -9.9375 C 2.679688 -9.9375 2.507812 -9.9375 2.375 -9.9375 C 2.082031 -9.9375 1.816406 -9.941406 1.578125 -9.953125 C 1.347656 -9.972656 1.144531 -10.023438 0.96875 -10.109375 C 0.789062 -10.191406 0.648438 -10.304688 0.546875 -10.453125 C 0.453125 -10.609375 0.40625 -10.828125 0.40625 -11.109375 C 0.40625 -11.878906 0.988281 -12.265625 2.15625 -12.265625 C 2.332031 -12.265625 2.550781 -12.265625 2.8125 -12.265625 C 3.070312 -12.265625 3.289062 -12.25 3.46875 -12.21875 C 3.46875 -13.070312 3.484375 -13.757812 3.515625 -14.28125 C 3.546875 -14.800781 3.601562 -15.203125 3.6875 -15.484375 C 3.78125 -15.765625 3.90625 -15.945312 4.0625 -16.03125 C 4.21875 -16.125 4.414062 -16.171875 4.65625 -16.171875 C 4.914062 -16.171875 5.125 -16.082031 5.28125 -15.90625 C 5.445312 -15.726562 5.570312 -15.5 5.65625 -15.21875 C 5.75 -14.945312 5.804688 -14.640625 5.828125 -14.296875 C 5.859375 -13.960938 5.875 -13.632812 5.875 -13.3125 C 5.875 -13.082031 5.867188 -12.875 5.859375 -12.6875 C 5.847656 -12.507812 5.84375 -12.347656 5.84375 -12.203125 C 6.070312 -12.265625 6.304688 -12.296875 6.546875 -12.296875 C 6.785156 -12.304688 7.019531 -12.3125 7.25 -12.3125 C 7.84375 -12.3125 8.300781 -12.21875 8.625 -12.03125 C 8.957031 -11.851562 9.125 -11.550781 9.125 -11.125 C 9.125 -10.875 9.066406 -10.671875 8.953125 -10.515625 C 8.835938 -10.359375 8.6875 -10.238281 8.5 -10.15625 C 8.3125 -10.082031 8.09375 -10.03125 7.84375 -10 C 7.59375 -9.976562 7.320312 -9.96875 7.03125 -9.96875 C 6.875 -9.96875 6.6875 -9.96875 6.46875 -9.96875 C 6.257812 -9.96875 6.066406 -9.984375 5.890625 -10.015625 C 5.890625 -9.160156 5.890625 -8.375 5.890625 -7.65625 C 5.890625 -6.945312 5.878906 -6.265625 5.859375 -5.609375 C 5.847656 -4.953125 5.832031 -4.300781 5.8125 -3.65625 C 5.800781 -3.007812 5.78125 -2.320312 5.75 -1.59375 C 5.726562 -1.207031 5.6875 -0.910156 5.625 -0.703125 C 5.570312 -0.492188 5.5 -0.332031 5.40625 -0.21875 C 5.3125 -0.101562 5.203125 -0.03125 5.078125 0 C 4.960938 0.0195312 4.820312 0.03125 4.65625 0.03125 C 4.363281 0.03125 4.113281 -0.0664062 3.90625 -0.265625 C 3.707031 -0.472656 3.59375 -0.910156 3.5625 -1.578125 Z M 3.5625 -1.578125 "/></g></g></g><g fill="#1f2d47" fill-opacity="1"><g transform="translate(50.040356, 23.795436)"><g><path d="M 11.421875 0.09375 C 11.160156 0.09375 10.953125 0.0507812 10.796875 -0.03125 C 10.648438 -0.125 10.535156 -0.242188 10.453125 -0.390625 C 10.367188 -0.535156 10.3125 -0.707031 10.28125 -0.90625 C 10.25 -1.113281 10.222656 -1.328125 10.203125 -1.546875 C 9.804688 -1.046875 9.285156 -0.625 8.640625 -0.28125 C 8.003906 0.0507812 7.191406 0.21875 6.203125 0.21875 C 5.578125 0.21875 4.9375 0.125 4.28125 -0.0625 C 3.625 -0.25 3.03125 -0.570312 2.5 -1.03125 C 1.96875 -1.488281 1.53125 -2.101562 1.1875 -2.875 C 0.84375 -3.65625 0.671875 -4.632812 0.671875 -5.8125 C 0.671875 -6.738281 0.785156 -7.601562 1.015625 -8.40625 C 1.242188 -9.21875 1.585938 -9.925781 2.046875 -10.53125 C 2.503906 -11.144531 3.082031 -11.628906 3.78125 -11.984375 C 4.476562 -12.335938 5.296875 -12.515625 6.234375 -12.515625 C 7.054688 -12.515625 7.789062 -12.363281 8.4375 -12.0625 C 9.082031 -11.757812 9.664062 -11.269531 10.1875 -10.59375 C 10.1875 -10.789062 10.191406 -10.988281 10.203125 -11.1875 C 10.222656 -11.394531 10.269531 -11.582031 10.34375 -11.75 C 10.414062 -11.914062 10.53125 -12.050781 10.6875 -12.15625 C 10.851562 -12.257812 11.070312 -12.3125 11.34375 -12.3125 C 11.59375 -12.3125 11.820312 -12.210938 12.03125 -12.015625 C 12.238281 -11.828125 12.359375 -11.410156 12.390625 -10.765625 C 12.441406 -9.910156 12.476562 -9.140625 12.5 -8.453125 C 12.519531 -7.773438 12.53125 -7.078125 12.53125 -6.359375 C 12.53125 -5.460938 12.519531 -4.640625 12.5 -3.890625 C 12.488281 -3.148438 12.453125 -2.363281 12.390625 -1.53125 C 12.359375 -1.15625 12.3125 -0.859375 12.25 -0.640625 C 12.195312 -0.421875 12.128906 -0.257812 12.046875 -0.15625 C 11.972656 -0.0507812 11.878906 0.015625 11.765625 0.046875 C 11.648438 0.078125 11.535156 0.09375 11.421875 0.09375 Z M 10.109375 -6.0625 C 10.109375 -6.90625 9.984375 -7.59375 9.734375 -8.125 C 9.484375 -8.65625 9.164062 -9.070312 8.78125 -9.375 C 8.40625 -9.675781 8 -9.878906 7.5625 -9.984375 C 7.125 -10.097656 6.722656 -10.15625 6.359375 -10.15625 C 5.773438 -10.15625 5.273438 -10.050781 4.859375 -9.84375 C 4.453125 -9.632812 4.117188 -9.347656 3.859375 -8.984375 C 3.597656 -8.617188 3.40625 -8.1875 3.28125 -7.6875 C 3.164062 -7.195312 3.109375 -6.664062 3.109375 -6.09375 C 3.109375 -4.664062 3.414062 -3.613281 4.03125 -2.9375 C 4.65625 -2.257812 5.503906 -1.921875 6.578125 -1.921875 C 7.203125 -1.921875 7.734375 -2.03125 8.171875 -2.25 C 8.617188 -2.46875 8.984375 -2.757812 9.265625 -3.125 C 9.554688 -3.5 9.769531 -3.941406 9.90625 -4.453125 C 10.039062 -4.960938 10.109375 -5.5 10.109375 -6.0625 Z M 10.109375 -6.0625 "/></g></g></g><g fill="#1f2d47" fill-opacity="1"><g transform="translate(63.935097, 23.795436)"><g><path d="M 1.625 -1.40625 C 1.601562 -1.988281 1.582031 -2.664062 1.5625 -3.4375 C 1.550781 -4.21875 1.539062 -5.0625 1.53125 -5.96875 C 1.53125 -6.875 1.523438 -7.828125 1.515625 -8.828125 C 1.503906 -9.828125 1.5 -10.851562 1.5 -11.90625 C 1.5 -13.050781 1.503906 -14.035156 1.515625 -14.859375 C 1.535156 -15.691406 1.582031 -16.375 1.65625 -16.90625 C 1.726562 -17.4375 1.84375 -17.828125 2 -18.078125 C 2.164062 -18.328125 2.394531 -18.453125 2.6875 -18.453125 C 2.96875 -18.453125 3.210938 -18.363281 3.421875 -18.1875 C 3.628906 -18.007812 3.75 -17.597656 3.78125 -16.953125 C 3.84375 -15.785156 3.878906 -14.578125 3.890625 -13.328125 C 3.910156 -12.078125 3.921875 -10.84375 3.921875 -9.625 C 3.921875 -8.894531 3.921875 -8.191406 3.921875 -7.515625 C 3.921875 -6.847656 3.910156 -6.1875 3.890625 -5.53125 C 3.878906 -4.882812 3.863281 -4.21875 3.84375 -3.53125 C 3.832031 -2.851562 3.8125 -2.15625 3.78125 -1.4375 C 3.769531 -1.039062 3.734375 -0.738281 3.671875 -0.53125 C 3.617188 -0.320312 3.539062 -0.160156 3.4375 -0.046875 C 3.34375 0.0664062 3.234375 0.132812 3.109375 0.15625 C 2.992188 0.175781 2.851562 0.1875 2.6875 0.1875 C 2.394531 0.1875 2.148438 0.0859375 1.953125 -0.109375 C 1.765625 -0.304688 1.65625 -0.738281 1.625 -1.40625 Z M 1.625 -1.40625 "/></g></g></g><g fill="#1f2d47" fill-opacity="1"><g transform="translate(69.366898, 23.795436)"><g><path d="M 5.890625 0 C 4.984375 0 4.253906 -0.0703125 3.703125 -0.21875 C 3.160156 -0.363281 2.738281 -0.566406 2.4375 -0.828125 C 2.132812 -1.097656 1.929688 -1.425781 1.828125 -1.8125 C 1.722656 -2.207031 1.644531 -2.644531 1.59375 -3.125 C 1.550781 -3.695312 1.515625 -4.445312 1.484375 -5.375 C 1.460938 -6.300781 1.453125 -7.265625 1.453125 -8.265625 C 1.453125 -8.753906 1.457031 -9.269531 1.46875 -9.8125 C 1.476562 -10.351562 1.484375 -10.882812 1.484375 -11.40625 C 1.492188 -11.9375 1.503906 -12.425781 1.515625 -12.875 C 1.535156 -13.332031 1.5625 -13.722656 1.59375 -14.046875 C 1.644531 -14.546875 1.726562 -14.992188 1.84375 -15.390625 C 1.957031 -15.796875 2.171875 -16.144531 2.484375 -16.4375 C 2.796875 -16.726562 3.238281 -16.953125 3.8125 -17.109375 C 4.394531 -17.265625 5.160156 -17.34375 6.109375 -17.34375 C 8.273438 -17.34375 9.894531 -16.941406 10.96875 -16.140625 C 12.039062 -15.335938 12.578125 -14.203125 12.578125 -12.734375 C 12.578125 -11.972656 12.410156 -11.269531 12.078125 -10.625 C 11.753906 -9.976562 11.1875 -9.492188 10.375 -9.171875 C 10.832031 -9.085938 11.242188 -8.914062 11.609375 -8.65625 C 11.984375 -8.394531 12.300781 -8.082031 12.5625 -7.71875 C 12.832031 -7.351562 13.035156 -6.945312 13.171875 -6.5 C 13.316406 -6.0625 13.390625 -5.617188 13.390625 -5.171875 C 13.390625 -4.585938 13.265625 -3.988281 13.015625 -3.375 C 12.773438 -2.769531 12.363281 -2.21875 11.78125 -1.71875 C 11.195312 -1.21875 10.425781 -0.804688 9.46875 -0.484375 C 8.507812 -0.160156 7.316406 0 5.890625 0 Z M 10.96875 -5.234375 C 10.96875 -5.816406 10.832031 -6.285156 10.5625 -6.640625 C 10.289062 -6.992188 9.945312 -7.265625 9.53125 -7.453125 C 9.113281 -7.640625 8.644531 -7.765625 8.125 -7.828125 C 7.601562 -7.898438 7.085938 -7.9375 6.578125 -7.9375 C 6.171875 -7.9375 5.75 -7.9375 5.3125 -7.9375 C 4.875 -7.9375 4.46875 -7.925781 4.09375 -7.90625 C 4.082031 -7.5625 4.066406 -7.210938 4.046875 -6.859375 C 4.035156 -6.503906 4.023438 -6.171875 4.015625 -5.859375 C 4.003906 -5.546875 4 -5.269531 4 -5.03125 C 4 -4.800781 4 -4.632812 4 -4.53125 C 4 -4.09375 4.03125 -3.726562 4.09375 -3.4375 C 4.15625 -3.144531 4.273438 -2.910156 4.453125 -2.734375 C 4.640625 -2.554688 4.894531 -2.429688 5.21875 -2.359375 C 5.550781 -2.285156 5.976562 -2.25 6.5 -2.25 C 7.925781 -2.25 9.023438 -2.5 9.796875 -3 C 10.578125 -3.507812 10.96875 -4.253906 10.96875 -5.234375 Z M 6.46875 -15.03125 C 5.9375 -15.03125 5.503906 -14.984375 5.171875 -14.890625 C 4.847656 -14.804688 4.597656 -14.691406 4.421875 -14.546875 C 4.253906 -14.398438 4.140625 -14.222656 4.078125 -14.015625 C 4.023438 -13.804688 4 -13.582031 4 -13.34375 L 4 -9.9375 C 4.226562 -9.925781 4.46875 -9.921875 4.71875 -9.921875 C 4.96875 -9.921875 5.207031 -9.921875 5.4375 -9.921875 C 6.019531 -9.921875 6.585938 -9.957031 7.140625 -10.03125 C 7.703125 -10.113281 8.207031 -10.253906 8.65625 -10.453125 C 9.113281 -10.648438 9.476562 -10.914062 9.75 -11.25 C 10.019531 -11.59375 10.15625 -12.03125 10.15625 -12.5625 C 10.15625 -13.289062 9.859375 -13.882812 9.265625 -14.34375 C 8.679688 -14.800781 7.75 -15.03125 6.46875 -15.03125 Z M 6.46875 -15.03125 "/></g></g></g><g fill="#1f2d47" fill-opacity="1"><g transform="translate(83.479874, 23.795436)"><g><path d="M 11.421875 0.09375 C 11.160156 0.09375 10.953125 0.0507812 10.796875 -0.03125 C 10.648438 -0.125 10.535156 -0.242188 10.453125 -0.390625 C 10.367188 -0.535156 10.3125 -0.707031 10.28125 -0.90625 C 10.25 -1.113281 10.222656 -1.328125 10.203125 -1.546875 C 9.804688 -1.046875 9.285156 -0.625 8.640625 -0.28125 C 8.003906 0.0507812 7.191406 0.21875 6.203125 0.21875 C 5.578125 0.21875 4.9375 0.125 4.28125 -0.0625 C 3.625 -0.25 3.03125 -0.570312 2.5 -1.03125 C 1.96875 -1.488281 1.53125 -2.101562 1.1875 -2.875 C 0.84375 -3.65625 0.671875 -4.632812 0.671875 -5.8125 C 0.671875 -6.738281 0.785156 -7.601562 1.015625 -8.40625 C 1.242188 -9.21875 1.585938 -9.925781 2.046875 -10.53125 C 2.503906 -11.144531 3.082031 -11.628906 3.78125 -11.984375 C 4.476562 -12.335938 5.296875 -12.515625 6.234375 -12.515625 C 7.054688 -12.515625 7.789062 -12.363281 8.4375 -12.0625 C 9.082031 -11.757812 9.664062 -11.269531 10.1875 -10.59375 C 10.1875 -10.789062 10.191406 -10.988281 10.203125 -11.1875 C 10.222656 -11.394531 10.269531 -11.582031 10.34375 -11.75 C 10.414062 -11.914062 10.53125 -12.050781 10.6875 -12.15625 C 10.851562 -12.257812 11.070312 -12.3125 11.34375 -12.3125 C 11.59375 -12.3125 11.820312 -12.210938 12.03125 -12.015625 C 12.238281 -11.828125 12.359375 -11.410156 12.390625 -10.765625 C 12.441406 -9.910156 12.476562 -9.140625 12.5 -8.453125 C 12.519531 -7.773438 12.53125 -7.078125 12.53125 -6.359375 C 12.53125 -5.460938 12.519531 -4.640625 12.5 -3.890625 C 12.488281 -3.148438 12.453125 -2.363281 12.390625 -1.53125 C 12.359375 -1.15625 12.3125 -0.859375 12.25 -0.640625 C 12.195312 -0.421875 12.128906 -0.257812 12.046875 -0.15625 C 11.972656 -0.0507812 11.878906 0.015625 11.765625 0.046875 C 11.648438 0.078125 11.535156 0.09375 11.421875 0.09375 Z M 10.109375 -6.0625 C 10.109375 -6.90625 9.984375 -7.59375 9.734375 -8.125 C 9.484375 -8.65625 9.164062 -9.070312 8.78125 -9.375 C 8.40625 -9.675781 8 -9.878906 7.5625 -9.984375 C 7.125 -10.097656 6.722656 -10.15625 6.359375 -10.15625 C 5.773438 -10.15625 5.273438 -10.050781 4.859375 -9.84375 C 4.453125 -9.632812 4.117188 -9.347656 3.859375 -8.984375 C 3.597656 -8.617188 3.40625 -8.1875 3.28125 -7.6875 C 3.164062 -7.195312 3.109375 -6.664062 3.109375 -6.09375 C 3.109375 -4.664062 3.414062 -3.613281 4.03125 -2.9375 C 4.65625 -2.257812 5.503906 -1.921875 6.578125 -1.921875 C 7.203125 -1.921875 7.734375 -2.03125 8.171875 -2.25 C 8.617188 -2.46875 8.984375 -2.757812 9.265625 -3.125 C 9.554688 -3.5 9.769531 -3.941406 9.90625 -4.453125 C 10.039062 -4.960938 10.109375 -5.5 10.109375 -6.0625 Z M 10.109375 -6.0625 "/></g></g></g><g fill="#1f2d47" fill-opacity="1"><g transform="translate(97.374612, 23.795436)"><g><path d="M 5.75 -12.65625 C 6.082031 -12.65625 6.507812 -12.625 7.03125 -12.5625 C 7.550781 -12.507812 8.046875 -12.40625 8.515625 -12.25 C 8.984375 -12.101562 9.382812 -11.890625 9.71875 -11.609375 C 10.0625 -11.335938 10.234375 -10.992188 10.234375 -10.578125 C 10.234375 -10.328125 10.164062 -10.113281 10.03125 -9.9375 C 9.894531 -9.757812 9.679688 -9.671875 9.390625 -9.671875 C 9.171875 -9.671875 8.925781 -9.703125 8.65625 -9.765625 C 8.394531 -9.835938 8.109375 -9.914062 7.796875 -10 C 7.484375 -10.09375 7.144531 -10.171875 6.78125 -10.234375 C 6.414062 -10.296875 6.03125 -10.328125 5.625 -10.328125 C 4.945312 -10.328125 4.394531 -10.222656 3.96875 -10.015625 C 3.539062 -9.804688 3.328125 -9.472656 3.328125 -9.015625 C 3.328125 -8.765625 3.398438 -8.546875 3.546875 -8.359375 C 3.703125 -8.179688 3.910156 -8.023438 4.171875 -7.890625 C 4.441406 -7.753906 4.757812 -7.632812 5.125 -7.53125 C 5.488281 -7.4375 5.875 -7.34375 6.28125 -7.25 C 6.78125 -7.125 7.273438 -6.976562 7.765625 -6.8125 C 8.265625 -6.65625 8.707031 -6.429688 9.09375 -6.140625 C 9.476562 -5.859375 9.789062 -5.503906 10.03125 -5.078125 C 10.28125 -4.648438 10.40625 -4.117188 10.40625 -3.484375 C 10.40625 -2.296875 9.953125 -1.347656 9.046875 -0.640625 C 8.140625 0.0546875 6.804688 0.40625 5.046875 0.40625 C 4.660156 0.40625 4.195312 0.378906 3.65625 0.328125 C 3.125 0.273438 2.625 0.171875 2.15625 0.015625 C 1.6875 -0.140625 1.285156 -0.359375 0.953125 -0.640625 C 0.617188 -0.921875 0.453125 -1.296875 0.453125 -1.765625 C 0.453125 -2.085938 0.53125 -2.332031 0.6875 -2.5 C 0.84375 -2.675781 1.035156 -2.765625 1.265625 -2.765625 C 1.441406 -2.765625 1.625 -2.707031 1.8125 -2.59375 C 2.007812 -2.476562 2.242188 -2.351562 2.515625 -2.21875 C 2.796875 -2.09375 3.128906 -1.972656 3.515625 -1.859375 C 3.898438 -1.753906 4.378906 -1.703125 4.953125 -1.703125 C 5.160156 -1.703125 5.429688 -1.710938 5.765625 -1.734375 C 6.109375 -1.753906 6.445312 -1.820312 6.78125 -1.9375 C 7.113281 -2.050781 7.394531 -2.207031 7.625 -2.40625 C 7.863281 -2.613281 7.984375 -2.90625 7.984375 -3.28125 C 7.984375 -3.5625 7.898438 -3.800781 7.734375 -4 C 7.578125 -4.207031 7.359375 -4.382812 7.078125 -4.53125 C 6.804688 -4.675781 6.488281 -4.800781 6.125 -4.90625 C 5.757812 -5.007812 5.375 -5.117188 4.96875 -5.234375 C 4.5 -5.367188 4.023438 -5.515625 3.546875 -5.671875 C 3.078125 -5.835938 2.644531 -6.046875 2.25 -6.296875 C 1.863281 -6.554688 1.550781 -6.882812 1.3125 -7.28125 C 1.070312 -7.675781 0.953125 -8.164062 0.953125 -8.75 C 0.953125 -9.300781 1.0625 -9.816406 1.28125 -10.296875 C 1.507812 -10.773438 1.832031 -11.191406 2.25 -11.546875 C 2.675781 -11.898438 3.179688 -12.171875 3.765625 -12.359375 C 4.359375 -12.554688 5.019531 -12.65625 5.75 -12.65625 Z M 5.75 -12.65625 "/></g></g></g><g fill="#1f2d47" fill-opacity="1"><g transform="translate(108.529197, 23.795436)"><g><path d="M 1.65625 -1.5 C 1.613281 -2.101562 1.582031 -2.785156 1.5625 -3.546875 C 1.539062 -4.316406 1.53125 -5.164062 1.53125 -6.09375 C 1.53125 -7.238281 1.535156 -8.21875 1.546875 -9.03125 C 1.566406 -9.84375 1.613281 -10.507812 1.6875 -11.03125 C 1.757812 -11.5625 1.875 -11.953125 2.03125 -12.203125 C 2.195312 -12.453125 2.425781 -12.578125 2.71875 -12.578125 C 2.988281 -12.578125 3.226562 -12.476562 3.4375 -12.28125 C 3.65625 -12.09375 3.78125 -11.675781 3.8125 -11.03125 C 3.90625 -9.332031 3.953125 -7.691406 3.953125 -6.109375 C 3.953125 -5.304688 3.9375 -4.550781 3.90625 -3.84375 C 3.875 -3.132812 3.84375 -2.363281 3.8125 -1.53125 C 3.789062 -1.144531 3.75 -0.84375 3.6875 -0.625 C 3.632812 -0.414062 3.5625 -0.253906 3.46875 -0.140625 C 3.375 -0.0234375 3.265625 0.0390625 3.140625 0.0625 C 3.015625 0.0820312 2.875 0.09375 2.71875 0.09375 C 2.425781 0.09375 2.179688 -0.00390625 1.984375 -0.203125 C 1.796875 -0.410156 1.6875 -0.84375 1.65625 -1.5 Z M 2.734375 -16.96875 C 3.109375 -16.96875 3.453125 -16.820312 3.765625 -16.53125 C 4.085938 -16.25 4.25 -15.90625 4.25 -15.5 C 4.25 -15.101562 4.085938 -14.765625 3.765625 -14.484375 C 3.441406 -14.203125 3.078125 -14.0625 2.671875 -14.0625 C 2.328125 -14.0625 2.003906 -14.203125 1.703125 -14.484375 C 1.410156 -14.765625 1.265625 -15.117188 1.265625 -15.546875 C 1.265625 -15.929688 1.410156 -16.265625 1.703125 -16.546875 C 2.003906 -16.828125 2.347656 -16.96875 2.734375 -16.96875 Z M 2.734375 -16.96875 "/></g></g></g><g fill="#1f2d47" fill-opacity="1"><g transform="translate(114.009503, 23.795436)"><g><path d="M 7.015625 -12.375 C 7.484375 -12.375 7.953125 -12.332031 8.421875 -12.25 C 8.898438 -12.164062 9.332031 -12.050781 9.71875 -11.90625 C 10.113281 -11.757812 10.429688 -11.582031 10.671875 -11.375 C 10.910156 -11.164062 11.03125 -10.921875 11.03125 -10.640625 C 11.03125 -9.929688 10.628906 -9.578125 9.828125 -9.578125 C 9.628906 -9.578125 9.441406 -9.601562 9.265625 -9.65625 C 9.097656 -9.71875 8.898438 -9.773438 8.671875 -9.828125 C 8.453125 -9.890625 8.171875 -9.945312 7.828125 -10 C 7.492188 -10.0625 7.078125 -10.09375 6.578125 -10.09375 C 5.503906 -10.09375 4.675781 -9.726562 4.09375 -9 C 3.507812 -8.269531 3.21875 -7.320312 3.21875 -6.15625 C 3.21875 -4.882812 3.515625 -3.859375 4.109375 -3.078125 C 4.703125 -2.304688 5.539062 -1.921875 6.625 -1.921875 C 7.300781 -1.921875 7.847656 -1.972656 8.265625 -2.078125 C 8.691406 -2.191406 9.035156 -2.320312 9.296875 -2.46875 C 9.566406 -2.613281 9.785156 -2.742188 9.953125 -2.859375 C 10.117188 -2.972656 10.3125 -3.03125 10.53125 -3.03125 C 10.820312 -3.03125 11.050781 -2.96875 11.21875 -2.84375 C 11.382812 -2.726562 11.46875 -2.484375 11.46875 -2.109375 C 11.46875 -1.722656 11.316406 -1.382812 11.015625 -1.09375 C 10.722656 -0.800781 10.347656 -0.554688 9.890625 -0.359375 C 9.441406 -0.171875 8.953125 -0.03125 8.421875 0.0625 C 7.898438 0.164062 7.421875 0.21875 6.984375 0.21875 C 5.023438 0.21875 3.488281 -0.320312 2.375 -1.40625 C 1.257812 -2.488281 0.703125 -4.023438 0.703125 -6.015625 C 0.703125 -6.867188 0.832031 -7.679688 1.09375 -8.453125 C 1.363281 -9.222656 1.765625 -9.894531 2.296875 -10.46875 C 2.835938 -11.050781 3.5 -11.515625 4.28125 -11.859375 C 5.0625 -12.203125 5.972656 -12.375 7.015625 -12.375 Z M 7.015625 -12.375 "/></g></g></g></g></g></svg>