<svg xmlns="http://www.w3.org/2000/svg" xmlns:xlink="http://www.w3.org/1999/xlink" width="1764" zoomAndPan="magnify" viewBox="0 0 1323 384.749986" height="513" preserveAspectRatio="xMidYMid meet" version="1.0"><defs><g/><clipPath id="66119dd9a1"><rect x="0" width="899" y="0" height="216"/></clipPath></defs><path fill="#ffffff" d="M 332.328125 182.53125 C 330.007812 149.144531 316.738281 116.75 295.84375 90.546875 C 282.023438 73.191406 266.328125 61.582031 259.914062 56.9375 C 242.226562 43.78125 220.996094 32.503906 210.382812 29.632812 C 209.390625 29.414062 207.953125 29.414062 206.515625 28.195312 C 193.394531 17.300781 195.097656 5.519531 189.488281 4.757812 C 187.058594 4.421875 185.507812 6.417969 184.183594 8.292969 C 182.855469 9.953125 182.632812 11.832031 182.414062 13.710938 C 182.304688 14.816406 182.414062 15.8125 181.199219 16.476562 C 177.105469 18.460938 169.367188 15.257812 167.597656 11.058594 C 166.605469 8.402344 165.167969 5.972656 163.730469 3.539062 C 161.738281 0.222656 158.976562 0.667969 156.542969 2.765625 C 148.933594 9.496094 155.839844 17.523438 147.144531 16.363281 C 131.847656 14.28125 126.003906 20.5 106.019531 11.832031 C 101.816406 9.953125 95.183594 11.941406 94.300781 15.917969 C 91.753906 27.371094 96.386719 37.910156 108.339844 43.339844 C 103.078125 50.355469 100.515625 60.199219 101.15625 67.550781 C 109.40625 59.308594 121.101562 52.316406 132.664062 49.417969 C 133.546875 49.53125 134.433594 49.863281 135.316406 50.195312 C 145.265625 52.957031 154.773438 56.9375 164.390625 60.917969 C 169.460938 62.871094 172.8125 66.238281 170.03125 70.867188 C 166.605469 76.621094 158.535156 78.828125 153.117188 82.144531 C 151.171875 83.296875 149.257812 84.453125 147.316406 85.605469 C 140.078125 83.484375 132.636719 82.164062 125.328125 84.0625 C 106.300781 88.988281 97.40625 110.871094 90.839844 127.699219 C 94.511719 127.53125 98.117188 125.3125 100.199219 121.941406 C 100.851562 126.34375 101.503906 130.742188 102.15625 135.140625 C 104.0625 128.148438 107.582031 119.121094 114.28125 110.550781 C 118.324219 105.378906 123.34375 99.011719 130.339844 96.75 C 127.1875 100.570312 128.878906 104.527344 132.664062 106.800781 C 139.089844 110.160156 163.222656 110.144531 183.519531 98.175781 C 191.148438 93.753906 199.769531 86.238281 209.058594 86.238281 C 217.570312 86.238281 228.40625 92.648438 235.371094 97.292969 C 260.910156 113.988281 275.945312 144.5 276.941406 175.015625 C 278.265625 212.933594 258.257812 250.964844 226.304688 271.53125 C 175.339844 304.332031 121.082031 279.121094 117.515625 277.390625 C 112.296875 274.855469 73.96875 255.480469 59.9375 210.867188 C 46.742188 168.902344 60.269531 125.414062 92.371094 95.773438 C 108.726562 80.671875 127.363281 72.460938 125.367188 66.558594 C 124.511719 64.03125 120.261719 63.144531 116.632812 62.800781 C 111.507812 66.304688 109.878906 68.804688 96.511719 81.925781 C 95.585938 60.855469 95.472656 60.324219 95.640625 57.9375 C 95.839844 55.078125 96.316406 54.21875 96.070312 53.953125 C 94.726562 52.515625 72.949219 69.414062 61.519531 80.347656 C 24.878906 115.386719 11.5 154.851562 6.601562 180.542969 C 10.578125 170.539062 23.113281 167.003906 31.71875 173.683594 C 34.132812 175.558594 34.570312 179.03125 32.695312 181.445312 C 30.824219 183.855469 27.359375 184.296875 24.941406 182.421875 C 22.242188 180.316406 18.15625 181.375 16.871094 184.636719 C 15.78125 187.390625 12.652344 188.890625 9.695312 187.753906 C 7.03125 186.699219 5.722656 183.804688 6.484375 181.109375 C 3.421875 197.4375 3.773438 208.09375 3.773438 208.09375 C 7.457031 299.414062 92.097656 342.183594 95.738281 343.945312 C 179.355469 384.398438 257.15625 333.296875 260.355469 331.121094 C 307.894531 298.726562 336.417969 240.019531 332.328125 182.53125 Z M 141.410156 39.113281 C 137.621094 39.113281 134.550781 36.039062 134.550781 32.25 C 134.550781 28.464844 137.621094 25.394531 141.410156 25.394531 C 145.199219 25.394531 148.269531 28.464844 148.269531 32.25 C 148.269531 36.039062 145.199219 39.113281 141.410156 39.113281 Z M 46.523438 249.148438 C 45.839844 252.117188 42.90625 254 39.894531 253.292969 C 36.472656 252.519531 33.316406 255.277344 33.5 258.707031 C 33.675781 261.753906 31.347656 264.367188 28.296875 264.539062 C 28.1875 264.542969 28.085938 264.546875 27.976562 264.546875 C 25.070312 264.546875 22.632812 262.277344 22.46875 259.335938 C 21.847656 248.53125 31.792969 240.082031 42.375 242.519531 C 45.351562 243.207031 47.207031 246.171875 46.523438 249.148438 Z M 51.007812 205.132812 C 50.328125 208.113281 47.371094 210 44.382812 209.28125 C 41.027344 208.519531 37.792969 211.195312 37.980469 214.695312 C 38.15625 217.742188 35.828125 220.355469 32.777344 220.527344 C 32.671875 220.53125 32.566406 220.539062 32.460938 220.539062 C 29.550781 220.539062 27.113281 218.265625 26.949219 215.320312 C 26.320312 204.390625 36.417969 196.085938 46.855469 198.507812 C 49.832031 199.195312 51.695312 202.15625 51.007812 205.132812 Z M 47.640625 146.640625 C 45.097656 144.152344 40.957031 144.90625 39.363281 147.890625 C 38.363281 149.75 36.453125 150.804688 34.484375 150.804688 C 30.324219 150.804688 27.644531 146.351562 29.613281 142.667969 C 34.734375 133.117188 47.648438 131.148438 55.378906 138.75 C 57.5625 140.894531 57.59375 144.390625 55.457031 146.5625 C 53.308594 148.75 49.808594 148.761719 47.640625 146.640625 Z M 63.292969 278.707031 C 51.5 282.347656 52.515625 254.25 71.679688 253.953125 C 71.710938 253.953125 71.742188 253.953125 71.769531 253.953125 C 74.78125 253.953125 77.25 256.371094 77.296875 259.390625 C 77.347656 262.441406 74.910156 264.957031 71.859375 265.007812 C 68.394531 265.066406 65.921875 268.488281 66.945312 271.792969 C 67.84375 274.707031 66.214844 277.804688 63.292969 278.707031 Z M 81.234375 300.144531 C 77.773438 300.546875 75.660156 304.179688 76.988281 307.367188 C 78.171875 310.1875 76.84375 313.425781 74.03125 314.601562 C 71.230469 315.78125 67.980469 314.46875 66.796875 311.644531 C 62.613281 301.667969 69.1875 290.394531 79.980469 289.164062 C 82.964844 288.738281 85.75 290.992188 86.097656 294.03125 C 86.449219 297.0625 84.265625 299.800781 81.234375 300.144531 Z M 118.082031 306.738281 C 114.785156 307.71875 113.300781 311.671875 115.191406 314.597656 C 117.601562 318.308594 114.875 323.132812 110.5625 323.132812 C 101.492188 323.132812 98.929688 300.945312 114.90625 296.144531 C 117.824219 295.28125 120.910156 296.929688 121.789062 299.855469 C 122.664062 302.777344 121.007812 305.855469 118.082031 306.738281 Z M 152.246094 348.671875 C 141.472656 347.269531 135.070312 335.910156 139.40625 325.988281 C 140.617188 323.183594 143.875 321.894531 146.683594 323.140625 C 149.476562 324.359375 150.757812 327.617188 149.53125 330.414062 C 148.140625 333.59375 150.230469 337.273438 153.660156 337.699219 C 156.691406 338.097656 158.828125 340.867188 158.4375 343.894531 C 158.070312 346.726562 155.554688 349.015625 152.246094 348.671875 Z M 189.3125 326.753906 C 178.566406 325.359375 172.132812 314.019531 176.464844 304.082031 C 177.6875 301.292969 180.949219 300.007812 183.742188 301.21875 C 186.542969 302.4375 187.820312 305.699219 186.601562 308.496094 C 185.21875 311.664062 187.289062 315.347656 190.726562 315.785156 C 193.753906 316.179688 195.890625 318.949219 195.503906 321.976562 C 195.128906 324.878906 192.515625 327.121094 189.3125 326.753906 Z M 235.859375 331.757812 C 216.359375 333.90625 212.519531 306.285156 224.265625 308.34375 C 227.277344 308.847656 229.308594 311.699219 228.804688 314.703125 C 228.222656 318.175781 231.207031 321.214844 234.585938 320.777344 C 237.6875 320.382812 240.363281 322.597656 240.714844 325.632812 C 241.066406 328.664062 238.894531 331.40625 235.859375 331.757812 Z M 252.761719 297.507812 C 242.011719 298.773438 233 289.339844 234.792969 278.632812 C 235.300781 275.617188 238.144531 273.542969 241.15625 274.09375 C 244.167969 274.601562 246.199219 277.453125 245.695312 280.457031 C 245.121094 283.867188 247.972656 286.917969 251.46875 286.523438 C 254.527344 286.101562 257.25 288.335938 257.605469 291.371094 C 257.960938 294.402344 255.792969 297.148438 252.761719 297.507812 Z M 293.929688 134.097656 C 297.179688 135.394531 300.753906 133.183594 301.09375 129.753906 C 301.402344 126.714844 304.1875 124.558594 307.140625 124.800781 C 310.179688 125.101562 312.398438 127.808594 312.09375 130.84375 C 311.007812 141.757812 299.738281 148.347656 289.804688 144.351562 C 286.972656 143.210938 285.601562 139.996094 286.738281 137.160156 C 287.890625 134.320312 291.117188 132.972656 293.929688 134.097656 Z M 310.621094 176.167969 C 304.980469 185.289062 292.035156 186.652344 284.667969 178.519531 C 282.621094 176.25 282.800781 172.753906 285.0625 170.703125 C 287.324219 168.664062 290.820312 168.835938 292.871094 171.097656 C 295.320312 173.8125 299.472656 173.175781 301.21875 170.347656 C 302.820312 167.753906 306.238281 166.949219 308.828125 168.554688 C 311.425781 170.160156 312.226562 173.574219 310.621094 176.167969 Z M 249.296875 84.878906 C 246.285156 84.371094 244.253906 81.519531 244.757812 78.511719 C 245.265625 75.503906 248.109375 73.425781 251.121094 73.972656 C 254.546875 74.546875 257.589844 71.652344 257.191406 68.203125 C 256.832031 65.171875 259.003906 62.421875 262.03125 62.066406 C 265.105469 61.648438 267.8125 63.875 268.167969 66.90625 C 269.4375 77.71875 259.957031 86.65625 249.296875 84.878906 Z M 263.160156 120.765625 C 260.429688 119.40625 259.316406 116.085938 260.683594 113.355469 C 262.042969 110.625 265.355469 109.507812 268.09375 110.878906 C 271.242188 112.445312 274.980469 110.507812 275.597656 107.128906 C 276.148438 104.128906 279.0625 102.109375 282.027344 102.6875 C 285.035156 103.238281 287.019531 106.117188 286.46875 109.117188 C 284.5 119.871094 272.769531 125.574219 263.160156 120.765625 Z M 292.207031 281.953125 C 289.515625 283.746094 286.351562 284.667969 283.167969 284.667969 C 270.03125 284.667969 262.496094 269.074219 271.261719 266.324219 C 274.1875 265.417969 277.277344 267.035156 278.1875 269.949219 C 279.230469 273.273438 283.242188 274.660156 286.085938 272.746094 C 288.617188 271.050781 292.0625 271.738281 293.753906 274.285156 C 295.441406 276.828125 294.75 280.261719 292.207031 281.953125 Z M 300.207031 241.660156 C 292.910156 249.714844 279.921875 248.4375 274.265625 239.210938 C 272.667969 236.609375 273.488281 233.207031 276.089844 231.609375 C 278.675781 230.015625 282.097656 230.828125 283.691406 233.433594 C 285.539062 236.441406 289.753906 236.734375 292.023438 234.234375 C 294.09375 231.964844 297.585938 231.8125 299.832031 233.855469 C 302.09375 235.90625 302.261719 239.40625 300.207031 241.660156 Z M 324.707031 214.296875 C 317.445312 222.28125 304.453125 221.113281 298.765625 211.835938 C 297.167969 209.226562 297.988281 205.828125 300.59375 204.234375 C 303.199219 202.640625 306.605469 203.464844 308.191406 206.058594 C 310.082031 209.152344 314.320312 209.277344 316.53125 206.859375 C 318.59375 204.601562 322.089844 204.433594 324.339844 206.492188 C 326.59375 208.542969 326.761719 212.039062 324.707031 214.296875 Z M 324.707031 214.296875 " fill-opacity="1" fill-rule="nonzero"/><g transform="matrix(1, 0, 0, 1, 388, 83)"><g clip-path="url(#66119dd9a1)"><g fill="#b7e92f" fill-opacity="1"><g transform="translate(0.557228, 164.707894)"><g><path d="M 50.375 -42.578125 C 48.757812 -42.460938 47.113281 -42.375 45.4375 -42.3125 C 43.769531 -42.257812 42.066406 -42.234375 40.328125 -42.234375 C 38.367188 -42.234375 36.40625 -42.234375 34.4375 -42.234375 C 32.476562 -42.234375 30.289062 -42.347656 27.875 -42.578125 L 27.875 -7.4375 C 27.875 -3.75 26.976562 -1.472656 25.1875 -0.609375 C 23.394531 0.253906 21.171875 0.6875 18.515625 0.6875 C 17.140625 0.6875 16.046875 0.597656 15.234375 0.421875 C 14.421875 0.253906 13.753906 -0.0859375 13.234375 -0.609375 C 12.722656 -1.128906 12.320312 -1.90625 12.03125 -2.9375 C 11.738281 -3.976562 11.535156 -5.421875 11.421875 -7.265625 C 11.191406 -9.347656 11.019531 -12.378906 10.90625 -16.359375 C 10.789062 -20.335938 10.703125 -25.5 10.640625 -31.84375 C 10.585938 -38.195312 10.53125 -45.898438 10.46875 -54.953125 C 10.414062 -64.015625 10.390625 -74.664062 10.390625 -86.90625 C 10.390625 -91.632812 10.960938 -96.21875 12.109375 -100.65625 C 13.265625 -105.101562 15.34375 -109.03125 18.34375 -112.4375 C 21.34375 -115.84375 25.410156 -118.582031 30.546875 -120.65625 C 35.679688 -122.726562 42.234375 -123.765625 50.203125 -123.765625 C 55.859375 -123.765625 61.367188 -123.128906 66.734375 -121.859375 C 72.097656 -120.597656 76.859375 -118.40625 81.015625 -115.28125 C 85.171875 -112.164062 88.515625 -107.953125 91.046875 -102.640625 C 93.585938 -97.335938 94.859375 -90.707031 94.859375 -82.75 C 94.859375 -72.125 92.578125 -63.898438 88.015625 -58.078125 C 83.460938 -52.253906 77.207031 -48.128906 69.25 -45.703125 L 92.4375 -13.84375 C 94.519531 -11.070312 95.5625 -8.242188 95.5625 -5.359375 C 95.5625 -3.054688 94.78125 -1.242188 93.21875 0.078125 C 91.65625 1.410156 89.722656 2.078125 87.421875 2.078125 C 84.878906 2.078125 82.6875 1.359375 80.84375 -0.078125 C 79 -1.523438 77.269531 -3.40625 75.65625 -5.71875 Z M 77.546875 -82.921875 C 77.546875 -90.878906 75.148438 -96.789062 70.359375 -100.65625 C 65.578125 -104.53125 57.992188 -106.46875 47.609375 -106.46875 C 43.796875 -106.46875 40.617188 -106.148438 38.078125 -105.515625 C 35.546875 -104.878906 33.53125 -103.691406 32.03125 -101.953125 C 30.53125 -100.222656 29.460938 -97.828125 28.828125 -94.765625 C 28.191406 -91.710938 27.875 -87.820312 27.875 -83.09375 C 27.875 -79.75 27.875 -75.820312 27.875 -71.3125 C 27.875 -66.8125 27.929688 -62.71875 28.046875 -59.03125 C 30.703125 -58.914062 33.671875 -58.859375 36.953125 -58.859375 C 40.242188 -58.859375 43.332031 -58.859375 46.21875 -58.859375 C 49.445312 -58.859375 52.878906 -59.054688 56.515625 -59.453125 C 60.148438 -59.859375 63.523438 -60.898438 66.640625 -62.578125 C 69.765625 -64.253906 72.363281 -66.675781 74.4375 -69.84375 C 76.507812 -73.019531 77.546875 -77.378906 77.546875 -82.921875 Z M 77.546875 -82.921875 "/></g></g></g><g fill="#b7e92f" fill-opacity="1"><g transform="translate(100.43323, 164.707894)"><g><path d="M 50.546875 -31.859375 C 46.503906 -31.859375 42.257812 -32.171875 37.8125 -32.796875 C 33.375 -33.429688 28.5625 -34.789062 23.375 -36.875 C 24.40625 -29.832031 27.316406 -24.519531 32.109375 -20.9375 C 36.898438 -17.363281 43.796875 -15.578125 52.796875 -15.578125 C 56.023438 -15.578125 58.9375 -15.78125 61.53125 -16.1875 C 64.132812 -16.59375 66.414062 -17.050781 68.375 -17.5625 C 70.34375 -18.082031 72.078125 -18.546875 73.578125 -18.953125 C 75.078125 -19.359375 76.457031 -19.5625 77.71875 -19.5625 C 79.34375 -19.5625 80.90625 -19.070312 82.40625 -18.09375 C 83.90625 -17.113281 84.65625 -15.46875 84.65625 -13.15625 C 84.65625 -10.269531 83.46875 -7.90625 81.09375 -6.0625 C 78.726562 -4.21875 75.84375 -2.742188 72.4375 -1.640625 C 69.039062 -0.546875 65.4375 0.203125 61.625 0.609375 C 57.820312 1.015625 54.476562 1.21875 51.59375 1.21875 C 44.78125 1.21875 38.515625 0.296875 32.796875 -1.546875 C 27.085938 -3.398438 22.15625 -6.203125 18 -9.953125 C 13.84375 -13.703125 10.609375 -18.347656 8.296875 -23.890625 C 5.992188 -29.429688 4.84375 -35.894531 4.84375 -43.28125 C 4.84375 -50.4375 5.96875 -56.78125 8.21875 -62.3125 C 10.46875 -67.851562 13.554688 -72.523438 17.484375 -76.328125 C 21.410156 -80.140625 26.054688 -83.023438 31.421875 -84.984375 C 36.785156 -86.953125 42.582031 -87.9375 48.8125 -87.9375 C 53.664062 -87.9375 58.367188 -87.300781 62.921875 -86.03125 C 67.484375 -84.757812 71.523438 -82.851562 75.046875 -80.3125 C 78.566406 -77.78125 81.394531 -74.582031 83.53125 -70.71875 C 85.664062 -66.851562 86.734375 -62.320312 86.734375 -57.125 C 86.734375 -52.507812 85.863281 -48.582031 84.125 -45.34375 C 82.394531 -42.113281 79.941406 -39.519531 76.765625 -37.5625 C 73.597656 -35.601562 69.789062 -34.160156 65.34375 -33.234375 C 60.90625 -32.316406 55.972656 -31.859375 50.546875 -31.859375 Z M 49.34375 -72.015625 C 46.21875 -72.015625 43.210938 -71.640625 40.328125 -70.890625 C 37.441406 -70.140625 34.816406 -68.925781 32.453125 -67.25 C 30.085938 -65.582031 28.097656 -63.390625 26.484375 -60.671875 C 24.867188 -57.960938 23.773438 -54.585938 23.203125 -50.546875 C 27.585938 -48.585938 31.851562 -47.234375 36 -46.484375 C 40.15625 -45.734375 44.539062 -45.359375 49.15625 -45.359375 C 55.96875 -45.359375 61.019531 -46.191406 64.3125 -47.859375 C 67.601562 -49.535156 69.25 -52.566406 69.25 -56.953125 C 69.25 -60.992188 67.71875 -64.515625 64.65625 -67.515625 C 61.59375 -70.515625 56.488281 -72.015625 49.34375 -72.015625 Z M 49.34375 -72.015625 "/></g></g></g><g fill="#b7e92f" fill-opacity="1"><g transform="translate(193.03922, 164.707894)"><g><path d="M 51.234375 -73.75 C 46.960938 -73.75 43.125 -73.054688 39.71875 -71.671875 C 36.320312 -70.285156 32.488281 -68.207031 28.21875 -65.4375 C 28.21875 -63.007812 28.21875 -59.457031 28.21875 -54.78125 C 28.21875 -50.113281 28.160156 -45.035156 28.046875 -39.546875 C 27.929688 -34.066406 27.816406 -28.671875 27.703125 -23.359375 C 27.585938 -18.054688 27.351562 -13.617188 27 -10.046875 C 26.769531 -7.734375 26.507812 -5.910156 26.21875 -4.578125 C 25.9375 -3.253906 25.535156 -2.242188 25.015625 -1.546875 C 24.492188 -0.859375 23.800781 -0.425781 22.9375 -0.25 C 22.070312 -0.0820312 20.945312 0 19.5625 0 C 18.175781 0 17.050781 -0.0820312 16.1875 -0.25 C 15.320312 -0.425781 14.597656 -0.832031 14.015625 -1.46875 C 13.441406 -2.101562 12.984375 -3.054688 12.640625 -4.328125 C 12.296875 -5.597656 12.003906 -7.328125 11.765625 -9.515625 C 11.535156 -11.597656 11.332031 -14.367188 11.15625 -17.828125 C 10.988281 -21.296875 10.847656 -25.078125 10.734375 -29.171875 C 10.617188 -33.265625 10.53125 -37.414062 10.46875 -41.625 C 10.414062 -45.84375 10.390625 -49.738281 10.390625 -53.3125 C 10.390625 -59.195312 10.472656 -63.984375 10.640625 -67.671875 C 10.816406 -71.367188 11.132812 -74.660156 11.59375 -77.546875 C 12.289062 -82.398438 13.210938 -85.457031 14.359375 -86.71875 C 15.515625 -87.988281 17.078125 -88.625 19.046875 -88.625 C 21.929688 -88.625 24.09375 -87.816406 25.53125 -86.203125 C 26.976562 -84.585938 27.875 -81.9375 28.21875 -78.25 C 32.488281 -81.9375 37.078125 -84.875 41.984375 -87.0625 C 46.890625 -89.257812 51.9375 -90.359375 57.125 -90.359375 C 62.082031 -90.359375 66.609375 -89.203125 70.703125 -86.890625 C 74.804688 -84.585938 78.1875 -80.84375 80.84375 -75.65625 C 82.457031 -72.53125 83.664062 -69.09375 84.46875 -65.34375 C 85.28125 -61.59375 85.859375 -57.640625 86.203125 -53.484375 C 86.316406 -51.640625 86.429688 -49.820312 86.546875 -48.03125 C 86.671875 -46.25 86.757812 -44.347656 86.8125 -42.328125 C 86.875 -40.304688 86.90625 -38.023438 86.90625 -35.484375 C 86.90625 -32.941406 86.90625 -29.941406 86.90625 -26.484375 C 86.90625 -22.796875 86.84375 -19.332031 86.71875 -16.09375 C 86.601562 -12.863281 86.285156 -10.066406 85.765625 -7.703125 C 85.253906 -5.335938 84.363281 -3.488281 83.09375 -2.15625 C 81.820312 -0.832031 80.09375 -0.171875 77.90625 -0.171875 C 72.59375 -0.171875 69.820312 -2.710938 69.59375 -7.796875 C 69.59375 -8.140625 69.59375 -9.609375 69.59375 -12.203125 C 69.59375 -14.796875 69.5625 -17.820312 69.5 -21.28125 C 69.445312 -24.75 69.390625 -28.269531 69.328125 -31.84375 C 69.273438 -35.425781 69.191406 -38.375 69.078125 -40.6875 C 68.953125 -42.53125 68.800781 -44.519531 68.625 -46.65625 C 68.457031 -48.789062 68.226562 -50.953125 67.9375 -53.140625 C 67.65625 -55.335938 67.28125 -57.445312 66.8125 -59.46875 C 66.351562 -61.488281 65.78125 -63.304688 65.09375 -64.921875 C 63.476562 -68.722656 61.457031 -71.144531 59.03125 -72.1875 C 56.601562 -73.226562 54.003906 -73.75 51.234375 -73.75 Z M 51.234375 -73.75 "/></g></g></g><g fill="#b7e92f" fill-opacity="1"><g transform="translate(286.856758, 164.707894)"><g><path d="M 25.453125 -11.25 C 25.097656 -18.519531 24.890625 -27.144531 24.828125 -37.125 C 24.773438 -47.113281 24.75 -58.453125 24.75 -71.140625 C 23.601562 -71.023438 22.25 -70.96875 20.6875 -70.96875 C 19.125 -70.96875 17.882812 -70.96875 16.96875 -70.96875 C 14.882812 -70.96875 13.003906 -71.023438 11.328125 -71.140625 C 9.660156 -71.265625 8.191406 -71.613281 6.921875 -72.1875 C 5.648438 -72.757812 4.664062 -73.59375 3.96875 -74.6875 C 3.28125 -75.789062 2.9375 -77.320312 2.9375 -79.28125 C 2.9375 -84.820312 7.09375 -87.59375 15.40625 -87.59375 C 16.675781 -87.59375 18.234375 -87.59375 20.078125 -87.59375 C 21.921875 -87.59375 23.476562 -87.476562 24.75 -87.25 C 24.75 -93.363281 24.863281 -98.265625 25.09375 -101.953125 C 25.332031 -105.648438 25.765625 -108.507812 26.390625 -110.53125 C 27.023438 -112.550781 27.890625 -113.878906 28.984375 -114.515625 C 30.085938 -115.148438 31.503906 -115.46875 33.234375 -115.46875 C 35.078125 -115.46875 36.578125 -114.832031 37.734375 -113.5625 C 38.890625 -112.289062 39.785156 -110.671875 40.421875 -108.703125 C 41.054688 -106.742188 41.457031 -104.550781 41.625 -102.125 C 41.800781 -99.707031 41.890625 -97.34375 41.890625 -95.03125 C 41.890625 -93.414062 41.859375 -91.941406 41.796875 -90.609375 C 41.742188 -89.285156 41.71875 -88.109375 41.71875 -87.078125 C 43.332031 -87.535156 45.003906 -87.789062 46.734375 -87.84375 C 48.472656 -87.90625 50.148438 -87.9375 51.765625 -87.9375 C 56.035156 -87.9375 59.320312 -87.269531 61.625 -85.9375 C 63.9375 -84.613281 65.09375 -82.453125 65.09375 -79.453125 C 65.09375 -77.609375 64.6875 -76.132812 63.875 -75.03125 C 63.070312 -73.9375 62.003906 -73.101562 60.671875 -72.53125 C 59.347656 -71.957031 57.789062 -71.582031 56 -71.40625 C 54.207031 -71.226562 52.273438 -71.140625 50.203125 -71.140625 C 49.046875 -71.140625 47.71875 -71.140625 46.21875 -71.140625 C 44.71875 -71.140625 43.332031 -71.257812 42.0625 -71.5 C 42.0625 -65.375 42.0625 -59.769531 42.0625 -54.6875 C 42.0625 -49.613281 42.003906 -44.738281 41.890625 -40.0625 C 41.773438 -35.394531 41.660156 -30.753906 41.546875 -26.140625 C 41.429688 -21.523438 41.257812 -16.617188 41.03125 -11.421875 C 40.914062 -8.648438 40.65625 -6.515625 40.25 -5.015625 C 39.84375 -3.515625 39.289062 -2.359375 38.59375 -1.546875 C 37.90625 -0.742188 37.128906 -0.253906 36.265625 -0.078125 C 35.398438 0.0859375 34.390625 0.171875 33.234375 0.171875 C 31.160156 0.171875 29.398438 -0.546875 27.953125 -1.984375 C 26.515625 -3.429688 25.679688 -6.519531 25.453125 -11.25 Z M 25.453125 -11.25 "/></g></g></g><g fill="#b7e92f" fill-opacity="1"><g transform="translate(355.575597, 164.707894)"><g><path d="M 81.53125 0.6875 C 79.6875 0.6875 78.210938 0.367188 77.109375 -0.265625 C 76.015625 -0.898438 75.179688 -1.734375 74.609375 -2.765625 C 74.035156 -3.804688 73.628906 -5.046875 73.390625 -6.484375 C 73.160156 -7.929688 72.988281 -9.460938 72.875 -11.078125 C 69.988281 -7.503906 66.265625 -4.503906 61.703125 -2.078125 C 57.148438 0.347656 51.351562 1.5625 44.3125 1.5625 C 39.8125 1.5625 35.222656 0.898438 30.546875 -0.421875 C 25.878906 -1.753906 21.640625 -4.066406 17.828125 -7.359375 C 14.023438 -10.648438 10.910156 -15.0625 8.484375 -20.59375 C 6.054688 -26.132812 4.84375 -33.117188 4.84375 -41.546875 C 4.84375 -48.117188 5.648438 -54.289062 7.265625 -60.0625 C 8.878906 -65.832031 11.332031 -70.878906 14.625 -75.203125 C 17.914062 -79.535156 22.039062 -82.972656 27 -85.515625 C 31.96875 -88.054688 37.796875 -89.328125 44.484375 -89.328125 C 50.367188 -89.328125 55.617188 -88.257812 60.234375 -86.125 C 64.859375 -83.988281 69.015625 -80.5 72.703125 -75.65625 C 72.703125 -77.03125 72.757812 -78.4375 72.875 -79.875 C 72.988281 -81.320312 73.304688 -82.648438 73.828125 -83.859375 C 74.347656 -85.078125 75.1875 -86.0625 76.34375 -86.8125 C 77.5 -87.5625 79.054688 -87.9375 81.015625 -87.9375 C 82.742188 -87.9375 84.359375 -87.242188 85.859375 -85.859375 C 87.359375 -84.472656 88.222656 -81.472656 88.453125 -76.859375 C 88.804688 -70.742188 89.066406 -65.257812 89.234375 -60.40625 C 89.410156 -55.5625 89.5 -50.546875 89.5 -45.359375 C 89.5 -39.003906 89.441406 -33.171875 89.328125 -27.859375 C 89.210938 -22.554688 88.921875 -16.90625 88.453125 -10.90625 C 88.222656 -8.25 87.90625 -6.140625 87.5 -4.578125 C 87.101562 -3.023438 86.613281 -1.875 86.03125 -1.125 C 85.457031 -0.375 84.765625 0.113281 83.953125 0.34375 C 83.148438 0.570312 82.34375 0.6875 81.53125 0.6875 Z M 72.1875 -43.28125 C 72.1875 -49.28125 71.289062 -54.179688 69.5 -57.984375 C 67.707031 -61.796875 65.457031 -64.769531 62.75 -66.90625 C 60.039062 -69.039062 57.128906 -70.507812 54.015625 -71.3125 C 50.898438 -72.125 48.015625 -72.53125 45.359375 -72.53125 C 41.203125 -72.53125 37.648438 -71.78125 34.703125 -70.28125 C 31.765625 -68.78125 29.367188 -66.726562 27.515625 -64.125 C 25.671875 -61.53125 24.316406 -58.472656 23.453125 -54.953125 C 22.585938 -51.441406 22.15625 -47.609375 22.15625 -43.453125 C 22.15625 -33.296875 24.375 -25.789062 28.8125 -20.9375 C 33.257812 -16.09375 39.289062 -13.671875 46.90625 -13.671875 C 51.40625 -13.671875 55.242188 -14.445312 58.421875 -16 C 61.597656 -17.5625 64.195312 -19.671875 66.21875 -22.328125 C 68.238281 -24.984375 69.738281 -28.128906 70.71875 -31.765625 C 71.695312 -35.398438 72.1875 -39.238281 72.1875 -43.28125 Z M 72.1875 -43.28125 "/></g></g></g><g fill="#b7e92f" fill-opacity="1"><g transform="translate(454.759245, 164.707894)"><g><path d="M 11.59375 -10.046875 C 11.476562 -14.191406 11.363281 -19.035156 11.25 -24.578125 C 11.132812 -30.117188 11.046875 -36.117188 10.984375 -42.578125 C 10.929688 -49.046875 10.875 -55.859375 10.8125 -63.015625 C 10.757812 -70.171875 10.734375 -77.5 10.734375 -85 C 10.734375 -93.1875 10.789062 -100.222656 10.90625 -106.109375 C 11.019531 -111.992188 11.335938 -116.84375 11.859375 -120.65625 C 12.378906 -124.46875 13.210938 -127.265625 14.359375 -129.046875 C 15.515625 -130.835938 17.132812 -131.734375 19.21875 -131.734375 C 21.175781 -131.734375 22.90625 -131.097656 24.40625 -129.828125 C 25.90625 -128.554688 26.769531 -125.613281 27 -121 C 27.46875 -112.695312 27.757812 -104.070312 27.875 -95.125 C 27.988281 -86.175781 28.046875 -77.375 28.046875 -68.71875 C 28.046875 -63.53125 28.046875 -58.539062 28.046875 -53.75 C 28.046875 -48.957031 27.988281 -44.222656 27.875 -39.546875 C 27.757812 -34.878906 27.640625 -30.117188 27.515625 -25.265625 C 27.398438 -20.421875 27.226562 -15.40625 27 -10.21875 C 26.882812 -7.445312 26.625 -5.3125 26.21875 -3.8125 C 25.820312 -2.3125 25.273438 -1.15625 24.578125 -0.34375 C 23.890625 0.457031 23.113281 0.945312 22.25 1.125 C 21.382812 1.300781 20.375 1.390625 19.21875 1.390625 C 17.132812 1.390625 15.398438 0.671875 14.015625 -0.765625 C 12.628906 -2.210938 11.820312 -5.304688 11.59375 -10.046875 Z M 11.59375 -10.046875 "/></g></g></g><g fill="#b7e92f" fill-opacity="1"><g transform="translate(493.53261, 164.707894)"><g><path d="M 42.0625 0 C 35.601562 0 30.410156 -0.515625 26.484375 -1.546875 C 22.554688 -2.585938 19.523438 -4.0625 17.390625 -5.96875 C 15.253906 -7.875 13.8125 -10.210938 13.0625 -12.984375 C 12.3125 -15.753906 11.765625 -18.867188 11.421875 -22.328125 C 11.078125 -26.367188 10.816406 -31.707031 10.640625 -38.34375 C 10.472656 -44.976562 10.390625 -51.875 10.390625 -59.03125 C 10.390625 -62.488281 10.414062 -66.148438 10.46875 -70.015625 C 10.53125 -73.890625 10.585938 -77.703125 10.640625 -81.453125 C 10.703125 -85.203125 10.789062 -88.691406 10.90625 -91.921875 C 11.019531 -95.148438 11.191406 -97.921875 11.421875 -100.234375 C 11.765625 -103.804688 12.34375 -107.035156 13.15625 -109.921875 C 13.96875 -112.804688 15.5 -115.285156 17.75 -117.359375 C 20 -119.441406 23.171875 -121.03125 27.265625 -122.125 C 31.359375 -123.21875 36.8125 -123.765625 43.625 -123.765625 C 59.082031 -123.765625 70.648438 -120.910156 78.328125 -115.203125 C 86.003906 -109.492188 89.84375 -101.382812 89.84375 -90.875 C 89.84375 -85.457031 88.660156 -80.4375 86.296875 -75.8125 C 83.929688 -71.195312 79.863281 -67.738281 74.09375 -65.4375 C 77.320312 -64.851562 80.265625 -63.640625 82.921875 -61.796875 C 85.578125 -59.953125 87.851562 -57.726562 89.75 -55.125 C 91.65625 -52.53125 93.097656 -49.644531 94.078125 -46.46875 C 95.066406 -43.300781 95.5625 -40.101562 95.5625 -36.875 C 95.5625 -32.71875 94.691406 -28.472656 92.953125 -24.140625 C 91.222656 -19.816406 88.28125 -15.863281 84.125 -12.28125 C 79.976562 -8.707031 74.46875 -5.765625 67.59375 -3.453125 C 60.726562 -1.148438 52.21875 0 42.0625 0 Z M 78.25 -37.390625 C 78.25 -41.546875 77.296875 -44.890625 75.390625 -47.421875 C 73.484375 -49.960938 71.03125 -51.894531 68.03125 -53.21875 C 65.03125 -54.550781 61.679688 -55.445312 57.984375 -55.90625 C 54.296875 -56.375 50.601562 -56.609375 46.90625 -56.609375 C 44.019531 -56.609375 41.019531 -56.609375 37.90625 -56.609375 C 34.789062 -56.609375 31.90625 -56.550781 29.25 -56.4375 C 29.132812 -54.007812 29.019531 -51.523438 28.90625 -48.984375 C 28.789062 -46.453125 28.703125 -44.0625 28.640625 -41.8125 C 28.585938 -39.5625 28.5625 -37.597656 28.5625 -35.921875 C 28.5625 -34.242188 28.5625 -33.0625 28.5625 -32.375 C 28.5625 -29.257812 28.789062 -26.660156 29.25 -24.578125 C 29.71875 -22.503906 30.582031 -20.832031 31.84375 -19.5625 C 33.113281 -18.289062 34.929688 -17.394531 37.296875 -16.875 C 39.671875 -16.351562 42.703125 -16.09375 46.390625 -16.09375 C 56.546875 -16.09375 64.394531 -17.878906 69.9375 -21.453125 C 75.476562 -25.035156 78.25 -30.347656 78.25 -37.390625 Z M 46.21875 -107.328125 C 42.40625 -107.328125 39.316406 -107.007812 36.953125 -106.375 C 34.585938 -105.738281 32.800781 -104.898438 31.59375 -103.859375 C 30.382812 -102.828125 29.578125 -101.5625 29.171875 -100.0625 C 28.765625 -98.5625 28.5625 -96.941406 28.5625 -95.203125 L 28.5625 -70.96875 C 30.175781 -70.851562 31.878906 -70.796875 33.671875 -70.796875 C 35.460938 -70.796875 37.164062 -70.796875 38.78125 -70.796875 C 42.9375 -70.796875 47.003906 -71.082031 50.984375 -71.65625 C 54.960938 -72.238281 58.566406 -73.222656 61.796875 -74.609375 C 65.023438 -75.992188 67.617188 -77.894531 69.578125 -80.3125 C 71.546875 -82.738281 72.53125 -85.859375 72.53125 -89.671875 C 72.53125 -94.859375 70.421875 -99.097656 66.203125 -102.390625 C 61.992188 -105.679688 55.332031 -107.328125 46.21875 -107.328125 Z M 46.21875 -107.328125 "/></g></g></g><g fill="#b7e92f" fill-opacity="1"><g transform="translate(594.274063, 164.707894)"><g><path d="M 81.53125 0.6875 C 79.6875 0.6875 78.210938 0.367188 77.109375 -0.265625 C 76.015625 -0.898438 75.179688 -1.734375 74.609375 -2.765625 C 74.035156 -3.804688 73.628906 -5.046875 73.390625 -6.484375 C 73.160156 -7.929688 72.988281 -9.460938 72.875 -11.078125 C 69.988281 -7.503906 66.265625 -4.503906 61.703125 -2.078125 C 57.148438 0.347656 51.351562 1.5625 44.3125 1.5625 C 39.8125 1.5625 35.222656 0.898438 30.546875 -0.421875 C 25.878906 -1.753906 21.640625 -4.066406 17.828125 -7.359375 C 14.023438 -10.648438 10.910156 -15.0625 8.484375 -20.59375 C 6.054688 -26.132812 4.84375 -33.117188 4.84375 -41.546875 C 4.84375 -48.117188 5.648438 -54.289062 7.265625 -60.0625 C 8.878906 -65.832031 11.332031 -70.878906 14.625 -75.203125 C 17.914062 -79.535156 22.039062 -82.972656 27 -85.515625 C 31.96875 -88.054688 37.796875 -89.328125 44.484375 -89.328125 C 50.367188 -89.328125 55.617188 -88.257812 60.234375 -86.125 C 64.859375 -83.988281 69.015625 -80.5 72.703125 -75.65625 C 72.703125 -77.03125 72.757812 -78.4375 72.875 -79.875 C 72.988281 -81.320312 73.304688 -82.648438 73.828125 -83.859375 C 74.347656 -85.078125 75.1875 -86.0625 76.34375 -86.8125 C 77.5 -87.5625 79.054688 -87.9375 81.015625 -87.9375 C 82.742188 -87.9375 84.359375 -87.242188 85.859375 -85.859375 C 87.359375 -84.472656 88.222656 -81.472656 88.453125 -76.859375 C 88.804688 -70.742188 89.066406 -65.257812 89.234375 -60.40625 C 89.410156 -55.5625 89.5 -50.546875 89.5 -45.359375 C 89.5 -39.003906 89.441406 -33.171875 89.328125 -27.859375 C 89.210938 -22.554688 88.921875 -16.90625 88.453125 -10.90625 C 88.222656 -8.25 87.90625 -6.140625 87.5 -4.578125 C 87.101562 -3.023438 86.613281 -1.875 86.03125 -1.125 C 85.457031 -0.375 84.765625 0.113281 83.953125 0.34375 C 83.148438 0.570312 82.34375 0.6875 81.53125 0.6875 Z M 72.1875 -43.28125 C 72.1875 -49.28125 71.289062 -54.179688 69.5 -57.984375 C 67.707031 -61.796875 65.457031 -64.769531 62.75 -66.90625 C 60.039062 -69.039062 57.128906 -70.507812 54.015625 -71.3125 C 50.898438 -72.125 48.015625 -72.53125 45.359375 -72.53125 C 41.203125 -72.53125 37.648438 -71.78125 34.703125 -70.28125 C 31.765625 -68.78125 29.367188 -66.726562 27.515625 -64.125 C 25.671875 -61.53125 24.316406 -58.472656 23.453125 -54.953125 C 22.585938 -51.441406 22.15625 -47.609375 22.15625 -43.453125 C 22.15625 -33.296875 24.375 -25.789062 28.8125 -20.9375 C 33.257812 -16.09375 39.289062 -13.671875 46.90625 -13.671875 C 51.40625 -13.671875 55.242188 -14.445312 58.421875 -16 C 61.597656 -17.5625 64.195312 -19.671875 66.21875 -22.328125 C 68.238281 -24.984375 69.738281 -28.128906 70.71875 -31.765625 C 71.695312 -35.398438 72.1875 -39.238281 72.1875 -43.28125 Z M 72.1875 -43.28125 "/></g></g></g><g fill="#b7e92f" fill-opacity="1"><g transform="translate(693.457686, 164.707894)"><g><path d="M 41.03125 -90.359375 C 43.445312 -90.359375 46.5 -90.15625 50.1875 -89.75 C 53.882812 -89.351562 57.40625 -88.601562 60.75 -87.5 C 64.101562 -86.40625 66.988281 -84.875 69.40625 -82.90625 C 71.832031 -80.945312 73.046875 -78.46875 73.046875 -75.46875 C 73.046875 -73.738281 72.554688 -72.238281 71.578125 -70.96875 C 70.597656 -69.707031 69.070312 -69.078125 67 -69.078125 C 65.5 -69.078125 63.796875 -69.304688 61.890625 -69.765625 C 59.984375 -70.222656 57.90625 -70.769531 55.65625 -71.40625 C 53.40625 -72.039062 50.976562 -72.585938 48.375 -73.046875 C 45.78125 -73.515625 43.039062 -73.75 40.15625 -73.75 C 35.3125 -73.75 31.359375 -73 28.296875 -71.5 C 25.242188 -70 23.71875 -67.628906 23.71875 -64.390625 C 23.71875 -62.546875 24.265625 -60.988281 25.359375 -59.71875 C 26.453125 -58.445312 27.953125 -57.320312 29.859375 -56.34375 C 31.765625 -55.363281 34.015625 -54.523438 36.609375 -53.828125 C 39.203125 -53.140625 41.941406 -52.453125 44.828125 -51.765625 C 48.410156 -50.835938 51.960938 -49.796875 55.484375 -48.640625 C 59.003906 -47.484375 62.148438 -45.894531 64.921875 -43.875 C 67.691406 -41.863281 69.941406 -39.328125 71.671875 -36.265625 C 73.398438 -33.203125 74.265625 -29.421875 74.265625 -24.921875 C 74.265625 -16.390625 71.03125 -9.613281 64.5625 -4.59375 C 58.101562 0.425781 48.582031 2.9375 36 2.9375 C 33.238281 2.9375 29.953125 2.734375 26.140625 2.328125 C 22.328125 1.929688 18.75 1.179688 15.40625 0.078125 C 12.0625 -1.015625 9.207031 -2.566406 6.84375 -4.578125 C 4.476562 -6.597656 3.296875 -9.285156 3.296875 -12.640625 C 3.296875 -14.941406 3.84375 -16.695312 4.9375 -17.90625 C 6.03125 -19.125 7.382812 -19.734375 9 -19.734375 C 10.269531 -19.734375 11.597656 -19.328125 12.984375 -18.515625 C 14.367188 -17.710938 16.039062 -16.847656 18 -15.921875 C 19.96875 -15.003906 22.332031 -14.140625 25.09375 -13.328125 C 27.863281 -12.523438 31.269531 -12.125 35.3125 -12.125 C 36.8125 -12.125 38.769531 -12.207031 41.1875 -12.375 C 43.613281 -12.550781 46.007812 -13.039062 48.375 -13.84375 C 50.75 -14.65625 52.769531 -15.78125 54.4375 -17.21875 C 56.113281 -18.664062 56.953125 -20.71875 56.953125 -23.375 C 56.953125 -25.445312 56.375 -27.203125 55.21875 -28.640625 C 54.0625 -30.085938 52.503906 -31.328125 50.546875 -32.359375 C 48.585938 -33.398438 46.304688 -34.296875 43.703125 -35.046875 C 41.109375 -35.804688 38.367188 -36.585938 35.484375 -37.390625 C 32.140625 -38.316406 28.765625 -39.351562 25.359375 -40.5 C 21.953125 -41.65625 18.863281 -43.15625 16.09375 -45 C 13.320312 -46.851562 11.070312 -49.191406 9.34375 -52.015625 C 7.613281 -54.847656 6.75 -58.34375 6.75 -62.5 C 6.75 -66.414062 7.554688 -70.078125 9.171875 -73.484375 C 10.785156 -76.890625 13.09375 -79.859375 16.09375 -82.390625 C 19.09375 -84.929688 22.695312 -86.894531 26.90625 -88.28125 C 31.125 -89.664062 35.832031 -90.359375 41.03125 -90.359375 Z M 41.03125 -90.359375 "/></g></g></g><g fill="#b7e92f" fill-opacity="1"><g transform="translate(773.081508, 164.707894)"><g><path d="M 11.765625 -10.734375 C 11.535156 -15.003906 11.332031 -19.878906 11.15625 -25.359375 C 10.988281 -30.835938 10.90625 -36.867188 10.90625 -43.453125 C 10.90625 -51.640625 10.960938 -58.644531 11.078125 -64.46875 C 11.191406 -70.300781 11.507812 -75.09375 12.03125 -78.84375 C 12.550781 -82.601562 13.382812 -85.375 14.53125 -87.15625 C 15.6875 -88.945312 17.304688 -89.84375 19.390625 -89.84375 C 21.347656 -89.84375 23.078125 -89.148438 24.578125 -87.765625 C 26.078125 -86.378906 26.941406 -83.378906 27.171875 -78.765625 C 27.867188 -66.648438 28.21875 -54.9375 28.21875 -43.625 C 28.21875 -37.851562 28.101562 -32.457031 27.875 -27.4375 C 27.644531 -22.414062 27.410156 -16.90625 27.171875 -10.90625 C 27.054688 -8.132812 26.796875 -6 26.390625 -4.5 C 25.992188 -3 25.445312 -1.84375 24.75 -1.03125 C 24.0625 -0.226562 23.285156 0.253906 22.421875 0.421875 C 21.554688 0.597656 20.546875 0.6875 19.390625 0.6875 C 17.304688 0.6875 15.570312 -0.03125 14.1875 -1.46875 C 12.8125 -2.914062 12.003906 -6.003906 11.765625 -10.734375 Z M 19.5625 -121.171875 C 22.21875 -121.171875 24.671875 -120.128906 26.921875 -118.046875 C 29.171875 -115.972656 30.296875 -113.492188 30.296875 -110.609375 C 30.296875 -107.847656 29.140625 -105.457031 26.828125 -103.4375 C 24.523438 -101.414062 21.929688 -100.40625 19.046875 -100.40625 C 16.617188 -100.40625 14.335938 -101.414062 12.203125 -103.4375 C 10.066406 -105.457031 9 -107.96875 9 -110.96875 C 9 -113.738281 10.066406 -116.128906 12.203125 -118.140625 C 14.335938 -120.160156 16.789062 -121.171875 19.5625 -121.171875 Z M 19.5625 -121.171875 "/></g></g></g><g fill="#b7e92f" fill-opacity="1"><g transform="translate(812.20111, 164.707894)"><g><path d="M 50.03125 -88.28125 C 53.375 -88.28125 56.75 -87.988281 60.15625 -87.40625 C 63.5625 -86.832031 66.648438 -86.023438 69.421875 -84.984375 C 72.191406 -83.953125 74.441406 -82.6875 76.171875 -81.1875 C 77.898438 -79.6875 78.765625 -77.957031 78.765625 -76 C 78.765625 -70.914062 75.878906 -68.375 70.109375 -68.375 C 68.722656 -68.375 67.421875 -68.578125 66.203125 -68.984375 C 64.992188 -69.390625 63.582031 -69.789062 61.96875 -70.1875 C 60.351562 -70.59375 58.332031 -71 55.90625 -71.40625 C 53.488281 -71.8125 50.488281 -72.015625 46.90625 -72.015625 C 39.289062 -72.015625 33.40625 -69.414062 29.25 -64.21875 C 25.101562 -59.03125 23.03125 -52.28125 23.03125 -43.96875 C 23.03125 -34.851562 25.132812 -27.523438 29.34375 -21.984375 C 33.550781 -16.441406 39.523438 -13.671875 47.265625 -13.671875 C 52.109375 -13.671875 56.03125 -14.070312 59.03125 -14.875 C 62.03125 -15.6875 64.484375 -16.613281 66.390625 -17.65625 C 68.296875 -18.695312 69.851562 -19.617188 71.0625 -20.421875 C 72.269531 -21.234375 73.625 -21.640625 75.125 -21.640625 C 77.207031 -21.640625 78.851562 -21.207031 80.0625 -20.34375 C 81.269531 -19.476562 81.875 -17.71875 81.875 -15.0625 C 81.875 -12.289062 80.804688 -9.863281 78.671875 -7.78125 C 76.535156 -5.707031 73.851562 -3.976562 70.625 -2.59375 C 67.394531 -1.207031 63.90625 -0.171875 60.15625 0.515625 C 56.40625 1.210938 52.972656 1.5625 49.859375 1.5625 C 35.890625 1.5625 24.921875 -2.300781 16.953125 -10.03125 C 8.992188 -17.769531 5.015625 -28.738281 5.015625 -42.9375 C 5.015625 -49.050781 5.96875 -54.847656 7.875 -60.328125 C 9.78125 -65.804688 12.632812 -70.625 16.4375 -74.78125 C 20.25 -78.9375 24.953125 -82.222656 30.546875 -84.640625 C 36.148438 -87.066406 42.644531 -88.28125 50.03125 -88.28125 Z M 50.03125 -88.28125 "/></g></g></g></g></g></svg>