<svg xmlns="http://www.w3.org/2000/svg" xmlns:xlink="http://www.w3.org/1999/xlink" width="412" zoomAndPan="magnify" viewBox="0 0 309 89.999999" height="120" preserveAspectRatio="xMidYMid meet" version="1.0"><defs><g/><clipPath id="0b0e91c0c6"><rect x="0" width="211" y="0" height="51"/></clipPath></defs><path fill="#7ed957" d="M 77.429688 42.585938 C 76.886719 34.796875 73.792969 27.238281 68.917969 21.125 C 65.691406 17.074219 62.03125 14.367188 60.535156 13.28125 C 56.40625 10.214844 51.457031 7.582031 48.980469 6.914062 C 48.746094 6.863281 48.410156 6.863281 48.078125 6.578125 C 45.015625 4.035156 45.414062 1.289062 44.105469 1.109375 C 43.539062 1.03125 43.175781 1.496094 42.867188 1.933594 C 42.558594 2.320312 42.503906 2.761719 42.453125 3.199219 C 42.429688 3.457031 42.453125 3.6875 42.171875 3.84375 C 41.214844 4.308594 39.410156 3.558594 38.996094 2.578125 C 38.765625 1.960938 38.429688 1.394531 38.09375 0.824219 C 37.628906 0.0507812 36.984375 0.15625 36.417969 0.644531 C 34.644531 2.214844 36.253906 4.089844 34.226562 3.816406 C 30.65625 3.332031 29.292969 4.78125 24.632812 2.761719 C 23.652344 2.320312 22.105469 2.785156 21.898438 3.714844 C 21.304688 6.386719 22.382812 8.84375 25.171875 10.109375 C 23.945312 11.746094 23.347656 14.042969 23.496094 15.761719 C 25.421875 13.835938 28.148438 12.203125 30.847656 11.53125 C 31.054688 11.554688 31.261719 11.632812 31.464844 11.710938 C 33.789062 12.355469 36.003906 13.28125 38.25 14.210938 C 39.433594 14.667969 40.214844 15.453125 39.566406 16.535156 C 38.765625 17.875 36.882812 18.390625 35.617188 19.164062 C 35.164062 19.433594 34.71875 19.703125 34.265625 19.972656 C 32.578125 19.476562 30.839844 19.167969 29.136719 19.613281 C 24.699219 20.761719 22.621094 25.867188 21.089844 29.792969 C 21.945312 29.753906 22.789062 29.234375 23.273438 28.449219 C 23.425781 29.476562 23.578125 30.5 23.730469 31.527344 C 24.175781 29.898438 24.996094 27.789062 26.558594 25.792969 C 27.5 24.585938 28.671875 23.097656 30.304688 22.570312 C 29.570312 23.464844 29.964844 24.386719 30.847656 24.917969 C 32.347656 25.699219 37.976562 25.695312 42.710938 22.90625 C 44.492188 21.871094 46.503906 20.117188 48.671875 20.117188 C 50.65625 20.117188 53.183594 21.613281 54.808594 22.699219 C 60.765625 26.59375 64.273438 33.710938 64.507812 40.832031 C 64.816406 49.675781 60.148438 58.550781 52.695312 63.347656 C 40.804688 71 28.144531 65.117188 27.3125 64.714844 C 26.09375 64.125 17.152344 59.605469 13.878906 49.195312 C 10.800781 39.40625 13.957031 29.257812 21.445312 22.34375 C 25.261719 18.820312 29.609375 16.90625 29.144531 15.527344 C 28.945312 14.9375 27.953125 14.730469 27.105469 14.652344 C 25.910156 15.46875 25.53125 16.050781 22.414062 19.113281 C 22.195312 14.199219 22.171875 14.074219 22.210938 13.515625 C 22.257812 12.851562 22.367188 12.648438 22.308594 12.585938 C 21.996094 12.253906 16.914062 16.195312 14.25 18.746094 C 5.703125 26.917969 2.582031 36.128906 1.4375 42.121094 C 2.363281 39.785156 5.289062 38.960938 7.296875 40.519531 C 7.859375 40.957031 7.960938 41.765625 7.523438 42.332031 C 7.089844 42.894531 6.28125 42.996094 5.714844 42.558594 C 5.085938 42.066406 4.132812 42.316406 3.832031 43.074219 C 3.578125 43.71875 2.847656 44.066406 2.160156 43.804688 C 1.539062 43.558594 1.230469 42.882812 1.410156 42.253906 C 0.695312 46.0625 0.777344 48.546875 0.777344 48.546875 C 1.636719 69.851562 21.382812 79.832031 22.234375 80.242188 C 41.742188 89.679688 59.890625 77.757812 60.636719 77.25 C 71.730469 69.691406 78.382812 55.996094 77.429688 42.585938 Z M 32.886719 9.125 C 32.003906 9.125 31.289062 8.40625 31.289062 7.523438 C 31.289062 6.640625 32.003906 5.925781 32.886719 5.925781 C 33.773438 5.925781 34.488281 6.640625 34.488281 7.523438 C 34.488281 8.40625 33.773438 9.125 32.886719 9.125 Z M 10.75 58.125 C 10.59375 58.820312 9.90625 59.257812 9.203125 59.09375 C 8.40625 58.914062 7.667969 59.554688 7.714844 60.355469 C 7.753906 61.066406 7.210938 61.675781 6.5 61.714844 C 6.472656 61.71875 6.449219 61.71875 6.425781 61.71875 C 5.746094 61.71875 5.175781 61.1875 5.140625 60.503906 C 4.996094 57.980469 7.3125 56.011719 9.785156 56.578125 C 10.476562 56.738281 10.910156 57.429688 10.75 58.125 Z M 11.796875 47.855469 C 11.636719 48.550781 10.949219 48.992188 10.25 48.824219 C 9.46875 48.648438 8.714844 49.269531 8.757812 50.089844 C 8.796875 50.796875 8.253906 51.410156 7.542969 51.449219 C 7.519531 51.449219 7.496094 51.453125 7.46875 51.453125 C 6.792969 51.453125 6.222656 50.921875 6.183594 50.234375 C 6.039062 47.683594 8.394531 45.746094 10.828125 46.3125 C 11.523438 46.472656 11.957031 47.164062 11.796875 47.855469 Z M 11.011719 34.210938 C 10.417969 33.628906 9.453125 33.804688 9.082031 34.503906 C 8.847656 34.9375 8.402344 35.183594 7.941406 35.183594 C 6.972656 35.183594 6.347656 34.144531 6.804688 33.285156 C 8 31.054688 11.011719 30.597656 12.816406 32.371094 C 13.328125 32.871094 13.332031 33.6875 12.835938 34.191406 C 12.332031 34.703125 11.515625 34.707031 11.011719 34.210938 Z M 14.664062 65.023438 C 11.910156 65.871094 12.148438 59.316406 16.621094 59.246094 C 16.628906 59.246094 16.632812 59.246094 16.640625 59.246094 C 17.34375 59.246094 17.917969 59.8125 17.929688 60.515625 C 17.941406 61.226562 17.375 61.816406 16.664062 61.824219 C 15.851562 61.839844 15.277344 62.636719 15.515625 63.410156 C 15.726562 64.089844 15.34375 64.8125 14.664062 65.023438 Z M 18.847656 70.023438 C 18.042969 70.117188 17.546875 70.964844 17.859375 71.707031 C 18.132812 72.367188 17.824219 73.121094 17.167969 73.398438 C 16.515625 73.671875 15.757812 73.367188 15.480469 72.707031 C 14.503906 70.378906 16.039062 67.75 18.554688 67.460938 C 19.253906 67.363281 19.902344 67.886719 19.984375 68.597656 C 20.066406 69.304688 19.554688 69.941406 18.847656 70.023438 Z M 27.445312 71.5625 C 26.675781 71.789062 26.332031 72.714844 26.773438 73.394531 C 27.332031 74.261719 26.695312 75.386719 25.691406 75.386719 C 23.574219 75.386719 22.976562 70.210938 26.703125 69.089844 C 27.386719 68.890625 28.105469 69.273438 28.3125 69.957031 C 28.515625 70.636719 28.128906 71.355469 27.445312 71.5625 Z M 35.417969 81.34375 C 32.902344 81.015625 31.410156 78.367188 32.421875 76.050781 C 32.703125 75.398438 33.464844 75.097656 34.117188 75.386719 C 34.769531 75.671875 35.070312 76.433594 34.78125 77.085938 C 34.457031 77.828125 34.945312 78.683594 35.746094 78.785156 C 36.453125 78.878906 36.953125 79.523438 36.859375 80.230469 C 36.773438 80.890625 36.1875 81.425781 35.417969 81.34375 Z M 44.0625 76.230469 C 41.554688 75.90625 40.054688 73.261719 41.066406 70.941406 C 41.351562 70.289062 42.113281 69.992188 42.761719 70.273438 C 43.417969 70.558594 43.714844 71.320312 43.429688 71.972656 C 43.109375 72.710938 43.589844 73.570312 44.394531 73.671875 C 45.101562 73.765625 45.597656 74.410156 45.507812 75.117188 C 45.421875 75.792969 44.808594 76.316406 44.0625 76.230469 Z M 54.921875 77.398438 C 50.375 77.898438 49.476562 71.457031 52.21875 71.9375 C 52.921875 72.054688 53.394531 72.71875 53.277344 73.421875 C 53.140625 74.230469 53.835938 74.9375 54.625 74.835938 C 55.347656 74.746094 55.972656 75.261719 56.054688 75.96875 C 56.136719 76.675781 55.632812 77.316406 54.921875 77.398438 Z M 58.867188 69.40625 C 56.359375 69.703125 54.253906 67.503906 54.675781 65.003906 C 54.792969 64.300781 55.457031 63.816406 56.160156 63.945312 C 56.863281 64.0625 57.335938 64.730469 57.21875 65.429688 C 57.085938 66.226562 57.75 66.9375 58.5625 66.847656 C 59.277344 66.746094 59.914062 67.269531 59.996094 67.976562 C 60.078125 68.683594 59.574219 69.324219 58.867188 69.40625 Z M 68.472656 31.285156 C 69.230469 31.585938 70.0625 31.070312 70.140625 30.273438 C 70.214844 29.5625 70.863281 29.058594 71.550781 29.117188 C 72.261719 29.1875 72.777344 29.816406 72.707031 30.527344 C 72.453125 33.070312 69.824219 34.609375 67.507812 33.675781 C 66.847656 33.410156 66.527344 32.660156 66.792969 32 C 67.0625 31.335938 67.816406 31.023438 68.472656 31.285156 Z M 72.363281 41.101562 C 71.046875 43.226562 68.027344 43.546875 66.308594 41.648438 C 65.832031 41.117188 65.875 40.304688 66.402344 39.824219 C 66.929688 39.347656 67.746094 39.390625 68.222656 39.917969 C 68.796875 40.550781 69.765625 40.402344 70.171875 39.742188 C 70.546875 39.136719 71.34375 38.949219 71.945312 39.324219 C 72.550781 39.699219 72.738281 40.496094 72.363281 41.101562 Z M 58.058594 19.800781 C 57.355469 19.683594 56.882812 19.019531 57 18.316406 C 57.117188 17.613281 57.78125 17.128906 58.484375 17.257812 C 59.28125 17.390625 59.992188 16.714844 59.898438 15.910156 C 59.816406 15.203125 60.324219 14.5625 61.027344 14.480469 C 61.746094 14.382812 62.378906 14.902344 62.460938 15.609375 C 62.757812 18.132812 60.542969 20.214844 58.058594 19.800781 Z M 61.292969 28.175781 C 60.65625 27.855469 60.394531 27.082031 60.714844 26.445312 C 61.03125 25.808594 61.804688 25.546875 62.441406 25.867188 C 63.179688 26.234375 64.050781 25.78125 64.195312 24.992188 C 64.320312 24.292969 65.003906 23.820312 65.695312 23.957031 C 66.394531 24.085938 66.859375 24.757812 66.730469 25.457031 C 66.269531 27.964844 63.535156 29.296875 61.292969 28.175781 Z M 68.070312 65.78125 C 67.441406 66.199219 66.703125 66.414062 65.960938 66.414062 C 62.894531 66.414062 61.136719 62.773438 63.183594 62.132812 C 63.863281 61.921875 64.585938 62.296875 64.796875 62.980469 C 65.042969 63.753906 65.976562 64.078125 66.640625 63.632812 C 67.230469 63.234375 68.035156 63.394531 68.429688 63.992188 C 68.824219 64.585938 68.664062 65.386719 68.070312 65.78125 Z M 69.933594 56.378906 C 68.234375 58.257812 65.203125 57.960938 63.882812 55.808594 C 63.511719 55.199219 63.703125 54.40625 64.308594 54.035156 C 64.910156 53.664062 65.710938 53.851562 66.082031 54.460938 C 66.511719 55.160156 67.496094 55.230469 68.027344 54.644531 C 68.507812 54.117188 69.324219 54.082031 69.847656 54.558594 C 70.375 55.035156 70.414062 55.851562 69.933594 56.378906 Z M 75.652344 49.996094 C 73.957031 51.859375 70.925781 51.585938 69.597656 49.421875 C 69.226562 48.8125 69.417969 48.019531 70.023438 47.648438 C 70.632812 47.277344 71.429688 47.46875 71.796875 48.074219 C 72.238281 48.796875 73.226562 48.824219 73.742188 48.261719 C 74.226562 47.734375 75.039062 47.695312 75.566406 48.175781 C 76.089844 48.652344 76.128906 49.46875 75.652344 49.996094 Z M 75.652344 49.996094 " fill-opacity="1" fill-rule="nonzero"/><g transform="matrix(1, 0, 0, 1, 90, 19)"><g clip-path="url(#0b0e91c0c6)"><g fill="#1f2d47" fill-opacity="1"><g transform="translate(0.553854, 38.792594)"><g><path d="M 11.75 -9.9375 C 11.375 -9.90625 10.988281 -9.882812 10.59375 -9.875 C 10.207031 -9.863281 9.8125 -9.859375 9.40625 -9.859375 C 8.945312 -9.859375 8.488281 -9.859375 8.03125 -9.859375 C 7.570312 -9.859375 7.0625 -9.882812 6.5 -9.9375 L 6.5 -1.734375 C 6.5 -0.867188 6.289062 -0.335938 5.875 -0.140625 C 5.457031 0.0546875 4.941406 0.15625 4.328125 0.15625 C 4.003906 0.15625 3.742188 0.132812 3.546875 0.09375 C 3.359375 0.0625 3.203125 -0.015625 3.078125 -0.140625 C 2.960938 -0.265625 2.867188 -0.445312 2.796875 -0.6875 C 2.734375 -0.925781 2.691406 -1.265625 2.671875 -1.703125 C 2.609375 -2.179688 2.5625 -2.882812 2.53125 -3.8125 C 2.507812 -4.738281 2.492188 -5.941406 2.484375 -7.421875 C 2.472656 -8.910156 2.457031 -10.710938 2.4375 -12.828125 C 2.425781 -14.941406 2.421875 -17.425781 2.421875 -20.28125 C 2.421875 -21.382812 2.554688 -22.453125 2.828125 -23.484375 C 3.097656 -24.523438 3.582031 -25.441406 4.28125 -26.234375 C 4.976562 -27.023438 5.925781 -27.660156 7.125 -28.140625 C 8.320312 -28.628906 9.851562 -28.875 11.71875 -28.875 C 13.03125 -28.875 14.3125 -28.722656 15.5625 -28.421875 C 16.820312 -28.128906 17.9375 -27.617188 18.90625 -26.890625 C 19.875 -26.171875 20.65625 -25.191406 21.25 -23.953125 C 21.84375 -22.710938 22.140625 -21.164062 22.140625 -19.3125 C 22.140625 -16.832031 21.601562 -14.910156 20.53125 -13.546875 C 19.46875 -12.191406 18.007812 -11.226562 16.15625 -10.65625 L 21.5625 -3.234375 C 22.050781 -2.585938 22.296875 -1.925781 22.296875 -1.25 C 22.296875 -0.707031 22.113281 -0.285156 21.75 0.015625 C 21.382812 0.328125 20.929688 0.484375 20.390625 0.484375 C 19.804688 0.484375 19.296875 0.316406 18.859375 -0.015625 C 18.429688 -0.359375 18.03125 -0.796875 17.65625 -1.328125 Z M 18.09375 -19.34375 C 18.09375 -21.207031 17.535156 -22.585938 16.421875 -23.484375 C 15.304688 -24.390625 13.535156 -24.84375 11.109375 -24.84375 C 10.222656 -24.84375 9.484375 -24.765625 8.890625 -24.609375 C 8.296875 -24.460938 7.820312 -24.1875 7.46875 -23.78125 C 7.125 -23.382812 6.875 -22.828125 6.71875 -22.109375 C 6.570312 -21.398438 6.5 -20.492188 6.5 -19.390625 C 6.5 -18.609375 6.5 -17.691406 6.5 -16.640625 C 6.5 -15.585938 6.515625 -14.628906 6.546875 -13.765625 C 7.160156 -13.742188 7.851562 -13.734375 8.625 -13.734375 C 9.394531 -13.734375 10.113281 -13.734375 10.78125 -13.734375 C 11.539062 -13.734375 12.34375 -13.78125 13.1875 -13.875 C 14.03125 -13.96875 14.816406 -14.207031 15.546875 -14.59375 C 16.273438 -14.988281 16.878906 -15.554688 17.359375 -16.296875 C 17.847656 -17.035156 18.09375 -18.050781 18.09375 -19.34375 Z M 18.09375 -19.34375 "/></g></g></g><g fill="#1f2d47" fill-opacity="1"><g transform="translate(23.855868, 38.792594)"><g><path d="M 11.796875 -7.4375 C 10.847656 -7.4375 9.851562 -7.507812 8.8125 -7.65625 C 7.78125 -7.800781 6.660156 -8.117188 5.453125 -8.609375 C 5.691406 -6.960938 6.367188 -5.722656 7.484375 -4.890625 C 8.609375 -4.054688 10.21875 -3.640625 12.3125 -3.640625 C 13.070312 -3.640625 13.753906 -3.6875 14.359375 -3.78125 C 14.960938 -3.875 15.492188 -3.976562 15.953125 -4.09375 C 16.410156 -4.21875 16.8125 -4.328125 17.15625 -4.421875 C 17.507812 -4.515625 17.835938 -4.5625 18.140625 -4.5625 C 18.515625 -4.5625 18.875 -4.445312 19.21875 -4.21875 C 19.570312 -3.988281 19.75 -3.601562 19.75 -3.0625 C 19.75 -2.394531 19.472656 -1.84375 18.921875 -1.40625 C 18.367188 -0.976562 17.695312 -0.632812 16.90625 -0.375 C 16.113281 -0.125 15.269531 0.046875 14.375 0.140625 C 13.488281 0.234375 12.707031 0.28125 12.03125 0.28125 C 10.445312 0.28125 8.988281 0.0664062 7.65625 -0.359375 C 6.320312 -0.796875 5.171875 -1.453125 4.203125 -2.328125 C 3.234375 -3.203125 2.476562 -4.285156 1.9375 -5.578125 C 1.394531 -6.867188 1.125 -8.375 1.125 -10.09375 C 1.125 -11.769531 1.382812 -13.253906 1.90625 -14.546875 C 2.4375 -15.835938 3.160156 -16.925781 4.078125 -17.8125 C 4.992188 -18.695312 6.078125 -19.367188 7.328125 -19.828125 C 8.578125 -20.285156 9.929688 -20.515625 11.390625 -20.515625 C 12.523438 -20.515625 13.625 -20.363281 14.6875 -20.0625 C 15.75 -19.769531 16.6875 -19.328125 17.5 -18.734375 C 18.320312 -18.148438 18.984375 -17.40625 19.484375 -16.5 C 19.984375 -15.59375 20.234375 -14.535156 20.234375 -13.328125 C 20.234375 -12.253906 20.03125 -11.335938 19.625 -10.578125 C 19.226562 -9.828125 18.65625 -9.222656 17.90625 -8.765625 C 17.164062 -8.304688 16.273438 -7.96875 15.234375 -7.75 C 14.203125 -7.539062 13.054688 -7.4375 11.796875 -7.4375 Z M 11.515625 -16.796875 C 10.785156 -16.796875 10.082031 -16.707031 9.40625 -16.53125 C 8.738281 -16.363281 8.128906 -16.082031 7.578125 -15.6875 C 7.023438 -15.300781 6.554688 -14.789062 6.171875 -14.15625 C 5.796875 -13.519531 5.539062 -12.734375 5.40625 -11.796875 C 6.4375 -11.335938 7.4375 -11.019531 8.40625 -10.84375 C 9.375 -10.664062 10.394531 -10.578125 11.46875 -10.578125 C 13.0625 -10.578125 14.238281 -10.769531 15 -11.15625 C 15.769531 -11.550781 16.15625 -12.257812 16.15625 -13.28125 C 16.15625 -14.226562 15.796875 -15.050781 15.078125 -15.75 C 14.367188 -16.445312 13.179688 -16.796875 11.515625 -16.796875 Z M 11.515625 -16.796875 "/></g></g></g><g fill="#1f2d47" fill-opacity="1"><g transform="translate(45.461719, 38.792594)"><g><path d="M 11.953125 -17.203125 C 10.960938 -17.203125 10.066406 -17.039062 9.265625 -16.71875 C 8.472656 -16.394531 7.578125 -15.910156 6.578125 -15.265625 C 6.578125 -14.703125 6.578125 -13.875 6.578125 -12.78125 C 6.578125 -11.6875 6.5625 -10.5 6.53125 -9.21875 C 6.507812 -7.945312 6.484375 -6.691406 6.453125 -5.453125 C 6.429688 -4.210938 6.378906 -3.175781 6.296875 -2.34375 C 6.242188 -1.800781 6.179688 -1.375 6.109375 -1.0625 C 6.046875 -0.757812 5.953125 -0.523438 5.828125 -0.359375 C 5.710938 -0.203125 5.550781 -0.101562 5.34375 -0.0625 C 5.144531 -0.0195312 4.882812 0 4.5625 0 C 4.238281 0 3.972656 -0.0195312 3.765625 -0.0625 C 3.566406 -0.101562 3.398438 -0.195312 3.265625 -0.34375 C 3.128906 -0.488281 3.019531 -0.707031 2.9375 -1 C 2.863281 -1.300781 2.800781 -1.707031 2.75 -2.21875 C 2.695312 -2.707031 2.648438 -3.351562 2.609375 -4.15625 C 2.566406 -4.96875 2.53125 -5.847656 2.5 -6.796875 C 2.476562 -7.753906 2.457031 -8.722656 2.4375 -9.703125 C 2.425781 -10.691406 2.421875 -11.601562 2.421875 -12.4375 C 2.421875 -13.8125 2.441406 -14.925781 2.484375 -15.78125 C 2.523438 -16.644531 2.597656 -17.414062 2.703125 -18.09375 C 2.867188 -19.226562 3.082031 -19.941406 3.34375 -20.234375 C 3.613281 -20.535156 3.976562 -20.6875 4.4375 -20.6875 C 5.113281 -20.6875 5.617188 -20.492188 5.953125 -20.109375 C 6.296875 -19.734375 6.503906 -19.113281 6.578125 -18.25 C 7.578125 -19.113281 8.648438 -19.800781 9.796875 -20.3125 C 10.941406 -20.820312 12.117188 -21.078125 13.328125 -21.078125 C 14.484375 -21.078125 15.539062 -20.804688 16.5 -20.265625 C 17.457031 -19.734375 18.242188 -18.863281 18.859375 -17.65625 C 19.234375 -16.925781 19.515625 -16.125 19.703125 -15.25 C 19.898438 -14.375 20.035156 -13.453125 20.109375 -12.484375 C 20.140625 -12.046875 20.164062 -11.617188 20.1875 -11.203125 C 20.21875 -10.785156 20.238281 -10.34375 20.25 -9.875 C 20.269531 -9.40625 20.28125 -8.875 20.28125 -8.28125 C 20.28125 -7.6875 20.28125 -6.988281 20.28125 -6.1875 C 20.28125 -5.320312 20.265625 -4.507812 20.234375 -3.75 C 20.210938 -3 20.140625 -2.347656 20.015625 -1.796875 C 19.890625 -1.242188 19.675781 -0.8125 19.375 -0.5 C 19.082031 -0.195312 18.679688 -0.046875 18.171875 -0.046875 C 16.929688 -0.046875 16.285156 -0.632812 16.234375 -1.8125 C 16.234375 -1.894531 16.234375 -2.238281 16.234375 -2.84375 C 16.234375 -3.445312 16.226562 -4.15625 16.21875 -4.96875 C 16.207031 -5.78125 16.191406 -6.601562 16.171875 -7.4375 C 16.160156 -8.269531 16.140625 -8.953125 16.109375 -9.484375 C 16.085938 -9.921875 16.054688 -10.382812 16.015625 -10.875 C 15.972656 -11.375 15.914062 -11.878906 15.84375 -12.390625 C 15.78125 -12.910156 15.691406 -13.40625 15.578125 -13.875 C 15.472656 -14.34375 15.34375 -14.765625 15.1875 -15.140625 C 14.8125 -16.035156 14.335938 -16.601562 13.765625 -16.84375 C 13.203125 -17.082031 12.597656 -17.203125 11.953125 -17.203125 Z M 11.953125 -17.203125 "/></g></g></g><g fill="#1f2d47" fill-opacity="1"><g transform="translate(67.350236, 38.792594)"><g><path d="M 5.9375 -2.625 C 5.851562 -4.320312 5.804688 -6.332031 5.796875 -8.65625 C 5.785156 -10.988281 5.78125 -13.632812 5.78125 -16.59375 C 5.507812 -16.570312 5.191406 -16.5625 4.828125 -16.5625 C 4.460938 -16.5625 4.171875 -16.5625 3.953125 -16.5625 C 3.472656 -16.5625 3.035156 -16.570312 2.640625 -16.59375 C 2.253906 -16.625 1.910156 -16.707031 1.609375 -16.84375 C 1.316406 -16.976562 1.085938 -17.171875 0.921875 -17.421875 C 0.765625 -17.679688 0.6875 -18.039062 0.6875 -18.5 C 0.6875 -19.789062 1.65625 -20.4375 3.59375 -20.4375 C 3.894531 -20.4375 4.257812 -20.4375 4.6875 -20.4375 C 5.113281 -20.4375 5.476562 -20.410156 5.78125 -20.359375 C 5.78125 -21.785156 5.804688 -22.925781 5.859375 -23.78125 C 5.910156 -24.644531 6.007812 -25.3125 6.15625 -25.78125 C 6.300781 -26.257812 6.503906 -26.570312 6.765625 -26.71875 C 7.023438 -26.863281 7.351562 -26.9375 7.75 -26.9375 C 8.1875 -26.9375 8.535156 -26.785156 8.796875 -26.484375 C 9.066406 -26.191406 9.273438 -25.816406 9.421875 -25.359375 C 9.578125 -24.898438 9.675781 -24.390625 9.71875 -23.828125 C 9.757812 -23.265625 9.78125 -22.710938 9.78125 -22.171875 C 9.78125 -21.796875 9.769531 -21.453125 9.75 -21.140625 C 9.738281 -20.835938 9.734375 -20.5625 9.734375 -20.3125 C 10.109375 -20.425781 10.5 -20.488281 10.90625 -20.5 C 11.3125 -20.507812 11.703125 -20.515625 12.078125 -20.515625 C 13.078125 -20.515625 13.84375 -20.359375 14.375 -20.046875 C 14.914062 -19.742188 15.1875 -19.242188 15.1875 -18.546875 C 15.1875 -18.109375 15.09375 -17.757812 14.90625 -17.5 C 14.71875 -17.25 14.46875 -17.054688 14.15625 -16.921875 C 13.84375 -16.785156 13.476562 -16.695312 13.0625 -16.65625 C 12.644531 -16.613281 12.195312 -16.59375 11.71875 -16.59375 C 11.445312 -16.59375 11.132812 -16.59375 10.78125 -16.59375 C 10.4375 -16.59375 10.113281 -16.625 9.8125 -16.6875 C 9.8125 -15.257812 9.8125 -13.953125 9.8125 -12.765625 C 9.8125 -11.578125 9.796875 -10.4375 9.765625 -9.34375 C 9.742188 -8.257812 9.71875 -7.175781 9.6875 -6.09375 C 9.664062 -5.019531 9.628906 -3.878906 9.578125 -2.671875 C 9.546875 -2.023438 9.484375 -1.523438 9.390625 -1.171875 C 9.296875 -0.816406 9.164062 -0.546875 9 -0.359375 C 8.84375 -0.171875 8.660156 -0.0546875 8.453125 -0.015625 C 8.253906 0.0234375 8.019531 0.046875 7.75 0.046875 C 7.269531 0.046875 6.859375 -0.117188 6.515625 -0.453125 C 6.179688 -0.796875 5.988281 -1.519531 5.9375 -2.625 Z M 5.9375 -2.625 "/></g></g></g><g fill="#1f2d47" fill-opacity="1"><g transform="translate(83.382989, 38.792594)"><g><path d="M 19.03125 0.15625 C 18.59375 0.15625 18.242188 0.0820312 17.984375 -0.0625 C 17.734375 -0.207031 17.539062 -0.398438 17.40625 -0.640625 C 17.269531 -0.890625 17.175781 -1.179688 17.125 -1.515625 C 17.070312 -1.847656 17.03125 -2.203125 17 -2.578125 C 16.332031 -1.742188 15.460938 -1.046875 14.390625 -0.484375 C 13.328125 0.078125 11.976562 0.359375 10.34375 0.359375 C 9.289062 0.359375 8.21875 0.207031 7.125 -0.09375 C 6.039062 -0.40625 5.050781 -0.945312 4.15625 -1.71875 C 3.269531 -2.488281 2.539062 -3.519531 1.96875 -4.8125 C 1.40625 -6.101562 1.125 -7.726562 1.125 -9.6875 C 1.125 -11.226562 1.3125 -12.671875 1.6875 -14.015625 C 2.070312 -15.359375 2.644531 -16.535156 3.40625 -17.546875 C 4.175781 -18.554688 5.140625 -19.359375 6.296875 -19.953125 C 7.453125 -20.546875 8.8125 -20.84375 10.375 -20.84375 C 11.75 -20.84375 12.972656 -20.59375 14.046875 -20.09375 C 15.128906 -19.59375 16.101562 -18.78125 16.96875 -17.65625 C 16.96875 -17.976562 16.976562 -18.304688 17 -18.640625 C 17.03125 -18.972656 17.101562 -19.28125 17.21875 -19.5625 C 17.34375 -19.851562 17.539062 -20.082031 17.8125 -20.25 C 18.082031 -20.425781 18.445312 -20.515625 18.90625 -20.515625 C 19.3125 -20.515625 19.6875 -20.351562 20.03125 -20.03125 C 20.382812 -19.707031 20.585938 -19.007812 20.640625 -17.9375 C 20.722656 -16.507812 20.78125 -15.226562 20.8125 -14.09375 C 20.851562 -12.96875 20.875 -11.796875 20.875 -10.578125 C 20.875 -9.097656 20.859375 -7.738281 20.828125 -6.5 C 20.804688 -5.257812 20.742188 -3.941406 20.640625 -2.546875 C 20.585938 -1.921875 20.515625 -1.425781 20.421875 -1.0625 C 20.328125 -0.707031 20.210938 -0.441406 20.078125 -0.265625 C 19.941406 -0.0859375 19.78125 0.0234375 19.59375 0.078125 C 19.40625 0.128906 19.21875 0.15625 19.03125 0.15625 Z M 16.84375 -10.09375 C 16.84375 -11.5 16.632812 -12.644531 16.21875 -13.53125 C 15.800781 -14.414062 15.273438 -15.109375 14.640625 -15.609375 C 14.003906 -16.109375 13.320312 -16.453125 12.59375 -16.640625 C 11.875 -16.828125 11.203125 -16.921875 10.578125 -16.921875 C 9.609375 -16.921875 8.78125 -16.742188 8.09375 -16.390625 C 7.40625 -16.046875 6.847656 -15.570312 6.421875 -14.96875 C 5.992188 -14.363281 5.675781 -13.648438 5.46875 -12.828125 C 5.269531 -12.003906 5.171875 -11.109375 5.171875 -10.140625 C 5.171875 -7.765625 5.6875 -6.007812 6.71875 -4.875 C 7.757812 -3.75 9.171875 -3.1875 10.953125 -3.1875 C 11.992188 -3.1875 12.882812 -3.367188 13.625 -3.734375 C 14.375 -4.097656 14.984375 -4.585938 15.453125 -5.203125 C 15.921875 -5.828125 16.269531 -6.5625 16.5 -7.40625 C 16.726562 -8.257812 16.84375 -9.15625 16.84375 -10.09375 Z M 16.84375 -10.09375 "/></g></g></g><g fill="#1f2d47" fill-opacity="1"><g transform="translate(106.52347, 38.792594)"><g><path d="M 2.703125 -2.34375 C 2.679688 -3.3125 2.65625 -4.441406 2.625 -5.734375 C 2.59375 -7.023438 2.570312 -8.425781 2.5625 -9.9375 C 2.550781 -11.445312 2.535156 -13.035156 2.515625 -14.703125 C 2.503906 -16.367188 2.5 -18.078125 2.5 -19.828125 C 2.5 -21.742188 2.507812 -23.382812 2.53125 -24.75 C 2.5625 -26.125 2.640625 -27.253906 2.765625 -28.140625 C 2.890625 -29.035156 3.082031 -29.691406 3.34375 -30.109375 C 3.613281 -30.523438 3.992188 -30.734375 4.484375 -30.734375 C 4.941406 -30.734375 5.34375 -30.582031 5.6875 -30.28125 C 6.039062 -29.988281 6.242188 -29.304688 6.296875 -28.234375 C 6.410156 -26.296875 6.476562 -24.28125 6.5 -22.1875 C 6.53125 -20.101562 6.546875 -18.050781 6.546875 -16.03125 C 6.546875 -14.820312 6.546875 -13.65625 6.546875 -12.53125 C 6.546875 -11.414062 6.53125 -10.3125 6.5 -9.21875 C 6.476562 -8.132812 6.453125 -7.023438 6.421875 -5.890625 C 6.390625 -4.765625 6.347656 -3.597656 6.296875 -2.390625 C 6.273438 -1.734375 6.21875 -1.226562 6.125 -0.875 C 6.03125 -0.53125 5.898438 -0.265625 5.734375 -0.078125 C 5.578125 0.109375 5.394531 0.222656 5.1875 0.265625 C 4.988281 0.304688 4.753906 0.328125 4.484375 0.328125 C 3.992188 0.328125 3.585938 0.160156 3.265625 -0.171875 C 2.941406 -0.515625 2.753906 -1.238281 2.703125 -2.34375 Z M 2.703125 -2.34375 "/></g></g></g><g fill="#1f2d47" fill-opacity="1"><g transform="translate(115.569662, 38.792594)"><g><path d="M 9.8125 0 C 8.300781 0 7.085938 -0.117188 6.171875 -0.359375 C 5.265625 -0.609375 4.5625 -0.953125 4.0625 -1.390625 C 3.5625 -1.835938 3.222656 -2.382812 3.046875 -3.03125 C 2.867188 -3.675781 2.742188 -4.398438 2.671875 -5.203125 C 2.585938 -6.148438 2.523438 -7.394531 2.484375 -8.9375 C 2.441406 -10.488281 2.421875 -12.097656 2.421875 -13.765625 C 2.421875 -14.578125 2.425781 -15.429688 2.4375 -16.328125 C 2.457031 -17.234375 2.472656 -18.125 2.484375 -19 C 2.492188 -19.875 2.507812 -20.6875 2.53125 -21.4375 C 2.5625 -22.195312 2.609375 -22.847656 2.671875 -23.390625 C 2.742188 -24.222656 2.875 -24.972656 3.0625 -25.640625 C 3.257812 -26.316406 3.617188 -26.894531 4.140625 -27.375 C 4.660156 -27.863281 5.398438 -28.234375 6.359375 -28.484375 C 7.316406 -28.742188 8.585938 -28.875 10.171875 -28.875 C 13.785156 -28.875 16.488281 -28.207031 18.28125 -26.875 C 20.070312 -25.539062 20.96875 -23.648438 20.96875 -21.203125 C 20.96875 -19.941406 20.691406 -18.769531 20.140625 -17.6875 C 19.585938 -16.613281 18.632812 -15.804688 17.28125 -15.265625 C 18.039062 -15.128906 18.726562 -14.84375 19.34375 -14.40625 C 19.96875 -13.976562 20.5 -13.460938 20.9375 -12.859375 C 21.382812 -12.253906 21.722656 -11.582031 21.953125 -10.84375 C 22.179688 -10.101562 22.296875 -9.359375 22.296875 -8.609375 C 22.296875 -7.640625 22.09375 -6.648438 21.6875 -5.640625 C 21.28125 -4.628906 20.59375 -3.703125 19.625 -2.859375 C 18.65625 -2.023438 17.367188 -1.335938 15.765625 -0.796875 C 14.171875 -0.265625 12.1875 0 9.8125 0 Z M 18.25 -8.71875 C 18.25 -9.6875 18.023438 -10.46875 17.578125 -11.0625 C 17.140625 -11.65625 16.570312 -12.109375 15.875 -12.421875 C 15.175781 -12.734375 14.394531 -12.941406 13.53125 -13.046875 C 12.664062 -13.148438 11.804688 -13.203125 10.953125 -13.203125 C 10.273438 -13.203125 9.570312 -13.203125 8.84375 -13.203125 C 8.113281 -13.203125 7.441406 -13.191406 6.828125 -13.171875 C 6.796875 -12.597656 6.765625 -12.015625 6.734375 -11.421875 C 6.710938 -10.835938 6.695312 -10.28125 6.6875 -9.75 C 6.675781 -9.226562 6.671875 -8.769531 6.671875 -8.375 C 6.671875 -7.988281 6.671875 -7.710938 6.671875 -7.546875 C 6.671875 -6.828125 6.722656 -6.222656 6.828125 -5.734375 C 6.929688 -5.253906 7.128906 -4.863281 7.421875 -4.5625 C 7.722656 -4.269531 8.148438 -4.0625 8.703125 -3.9375 C 9.253906 -3.8125 9.960938 -3.75 10.828125 -3.75 C 13.191406 -3.75 15.019531 -4.164062 16.3125 -5 C 17.601562 -5.84375 18.25 -7.082031 18.25 -8.71875 Z M 10.78125 -25.046875 C 9.894531 -25.046875 9.175781 -24.96875 8.625 -24.8125 C 8.070312 -24.664062 7.65625 -24.472656 7.375 -24.234375 C 7.09375 -23.992188 6.90625 -23.695312 6.8125 -23.34375 C 6.71875 -23 6.671875 -22.625 6.671875 -22.21875 L 6.671875 -16.5625 C 7.046875 -16.53125 7.441406 -16.515625 7.859375 -16.515625 C 8.273438 -16.515625 8.671875 -16.515625 9.046875 -16.515625 C 10.015625 -16.515625 10.960938 -16.582031 11.890625 -16.71875 C 12.816406 -16.851562 13.65625 -17.082031 14.40625 -17.40625 C 15.164062 -17.726562 15.773438 -18.171875 16.234375 -18.734375 C 16.691406 -19.304688 16.921875 -20.035156 16.921875 -20.921875 C 16.921875 -22.128906 16.425781 -23.117188 15.4375 -23.890625 C 14.457031 -24.660156 12.90625 -25.046875 10.78125 -25.046875 Z M 10.78125 -25.046875 "/></g></g></g><g fill="#1f2d47" fill-opacity="1"><g transform="translate(139.073593, 38.792594)"><g><path d="M 19.03125 0.15625 C 18.59375 0.15625 18.242188 0.0820312 17.984375 -0.0625 C 17.734375 -0.207031 17.539062 -0.398438 17.40625 -0.640625 C 17.269531 -0.890625 17.175781 -1.179688 17.125 -1.515625 C 17.070312 -1.847656 17.03125 -2.203125 17 -2.578125 C 16.332031 -1.742188 15.460938 -1.046875 14.390625 -0.484375 C 13.328125 0.078125 11.976562 0.359375 10.34375 0.359375 C 9.289062 0.359375 8.21875 0.207031 7.125 -0.09375 C 6.039062 -0.40625 5.050781 -0.945312 4.15625 -1.71875 C 3.269531 -2.488281 2.539062 -3.519531 1.96875 -4.8125 C 1.40625 -6.101562 1.125 -7.726562 1.125 -9.6875 C 1.125 -11.226562 1.3125 -12.671875 1.6875 -14.015625 C 2.070312 -15.359375 2.644531 -16.535156 3.40625 -17.546875 C 4.175781 -18.554688 5.140625 -19.359375 6.296875 -19.953125 C 7.453125 -20.546875 8.8125 -20.84375 10.375 -20.84375 C 11.75 -20.84375 12.972656 -20.59375 14.046875 -20.09375 C 15.128906 -19.59375 16.101562 -18.78125 16.96875 -17.65625 C 16.96875 -17.976562 16.976562 -18.304688 17 -18.640625 C 17.03125 -18.972656 17.101562 -19.28125 17.21875 -19.5625 C 17.34375 -19.851562 17.539062 -20.082031 17.8125 -20.25 C 18.082031 -20.425781 18.445312 -20.515625 18.90625 -20.515625 C 19.3125 -20.515625 19.6875 -20.351562 20.03125 -20.03125 C 20.382812 -19.707031 20.585938 -19.007812 20.640625 -17.9375 C 20.722656 -16.507812 20.78125 -15.226562 20.8125 -14.09375 C 20.851562 -12.96875 20.875 -11.796875 20.875 -10.578125 C 20.875 -9.097656 20.859375 -7.738281 20.828125 -6.5 C 20.804688 -5.257812 20.742188 -3.941406 20.640625 -2.546875 C 20.585938 -1.921875 20.515625 -1.425781 20.421875 -1.0625 C 20.328125 -0.707031 20.210938 -0.441406 20.078125 -0.265625 C 19.941406 -0.0859375 19.78125 0.0234375 19.59375 0.078125 C 19.40625 0.128906 19.21875 0.15625 19.03125 0.15625 Z M 16.84375 -10.09375 C 16.84375 -11.5 16.632812 -12.644531 16.21875 -13.53125 C 15.800781 -14.414062 15.273438 -15.109375 14.640625 -15.609375 C 14.003906 -16.109375 13.320312 -16.453125 12.59375 -16.640625 C 11.875 -16.828125 11.203125 -16.921875 10.578125 -16.921875 C 9.609375 -16.921875 8.78125 -16.742188 8.09375 -16.390625 C 7.40625 -16.046875 6.847656 -15.570312 6.421875 -14.96875 C 5.992188 -14.363281 5.675781 -13.648438 5.46875 -12.828125 C 5.269531 -12.003906 5.171875 -11.109375 5.171875 -10.140625 C 5.171875 -7.765625 5.6875 -6.007812 6.71875 -4.875 C 7.757812 -3.75 9.171875 -3.1875 10.953125 -3.1875 C 11.992188 -3.1875 12.882812 -3.367188 13.625 -3.734375 C 14.375 -4.097656 14.984375 -4.585938 15.453125 -5.203125 C 15.921875 -5.828125 16.269531 -6.5625 16.5 -7.40625 C 16.726562 -8.257812 16.84375 -9.15625 16.84375 -10.09375 Z M 16.84375 -10.09375 "/></g></g></g><g fill="#1f2d47" fill-opacity="1"><g transform="translate(162.214068, 38.792594)"><g><path d="M 9.578125 -21.078125 C 10.140625 -21.078125 10.847656 -21.03125 11.703125 -20.9375 C 12.566406 -20.84375 13.390625 -20.664062 14.171875 -20.40625 C 14.953125 -20.15625 15.625 -19.800781 16.1875 -19.34375 C 16.757812 -18.882812 17.046875 -18.304688 17.046875 -17.609375 C 17.046875 -17.203125 16.929688 -16.847656 16.703125 -16.546875 C 16.472656 -16.253906 16.113281 -16.109375 15.625 -16.109375 C 15.28125 -16.109375 14.882812 -16.160156 14.4375 -16.265625 C 13.988281 -16.378906 13.503906 -16.507812 12.984375 -16.65625 C 12.460938 -16.8125 11.894531 -16.941406 11.28125 -17.046875 C 10.675781 -17.148438 10.039062 -17.203125 9.375 -17.203125 C 8.238281 -17.203125 7.3125 -17.023438 6.59375 -16.671875 C 5.882812 -16.328125 5.53125 -15.78125 5.53125 -15.03125 C 5.53125 -14.59375 5.65625 -14.222656 5.90625 -13.921875 C 6.164062 -13.628906 6.519531 -13.367188 6.96875 -13.140625 C 7.414062 -12.910156 7.941406 -12.710938 8.546875 -12.546875 C 9.148438 -12.390625 9.789062 -12.234375 10.46875 -12.078125 C 11.300781 -11.859375 12.125 -11.613281 12.9375 -11.34375 C 13.757812 -11.082031 14.492188 -10.710938 15.140625 -10.234375 C 15.785156 -9.765625 16.3125 -9.171875 16.71875 -8.453125 C 17.125 -7.742188 17.328125 -6.863281 17.328125 -5.8125 C 17.328125 -3.820312 16.570312 -2.238281 15.0625 -1.0625 C 13.550781 0.101562 11.332031 0.6875 8.40625 0.6875 C 7.757812 0.6875 6.988281 0.640625 6.09375 0.546875 C 5.207031 0.453125 4.375 0.273438 3.59375 0.015625 C 2.8125 -0.234375 2.144531 -0.59375 1.59375 -1.0625 C 1.039062 -1.539062 0.765625 -2.171875 0.765625 -2.953125 C 0.765625 -3.484375 0.890625 -3.890625 1.140625 -4.171875 C 1.398438 -4.460938 1.71875 -4.609375 2.09375 -4.609375 C 2.394531 -4.609375 2.707031 -4.515625 3.03125 -4.328125 C 3.351562 -4.140625 3.742188 -3.9375 4.203125 -3.71875 C 4.660156 -3.5 5.210938 -3.296875 5.859375 -3.109375 C 6.503906 -2.921875 7.296875 -2.828125 8.234375 -2.828125 C 8.585938 -2.828125 9.046875 -2.847656 9.609375 -2.890625 C 10.179688 -2.929688 10.742188 -3.046875 11.296875 -3.234375 C 11.847656 -3.421875 12.316406 -3.679688 12.703125 -4.015625 C 13.085938 -4.359375 13.28125 -4.835938 13.28125 -5.453125 C 13.28125 -5.941406 13.144531 -6.351562 12.875 -6.6875 C 12.613281 -7.019531 12.253906 -7.304688 11.796875 -7.546875 C 11.335938 -7.796875 10.804688 -8.003906 10.203125 -8.171875 C 9.597656 -8.347656 8.957031 -8.53125 8.28125 -8.71875 C 7.5 -8.9375 6.707031 -9.179688 5.90625 -9.453125 C 5.113281 -9.722656 4.394531 -10.070312 3.75 -10.5 C 3.101562 -10.925781 2.578125 -11.46875 2.171875 -12.125 C 1.773438 -12.789062 1.578125 -13.609375 1.578125 -14.578125 C 1.578125 -15.492188 1.765625 -16.347656 2.140625 -17.140625 C 2.515625 -17.941406 3.050781 -18.632812 3.75 -19.21875 C 4.457031 -19.8125 5.300781 -20.269531 6.28125 -20.59375 C 7.257812 -20.914062 8.359375 -21.078125 9.578125 -21.078125 Z M 9.578125 -21.078125 "/></g></g></g><g fill="#1f2d47" fill-opacity="1"><g transform="translate(180.791057, 38.792594)"><g><path d="M 2.75 -2.5 C 2.695312 -3.5 2.648438 -4.632812 2.609375 -5.90625 C 2.566406 -7.1875 2.546875 -8.597656 2.546875 -10.140625 C 2.546875 -12.046875 2.554688 -13.675781 2.578125 -15.03125 C 2.609375 -16.394531 2.679688 -17.515625 2.796875 -18.390625 C 2.921875 -19.265625 3.117188 -19.910156 3.390625 -20.328125 C 3.660156 -20.753906 4.039062 -20.96875 4.53125 -20.96875 C 4.976562 -20.96875 5.378906 -20.804688 5.734375 -20.484375 C 6.085938 -20.160156 6.289062 -19.457031 6.34375 -18.375 C 6.5 -15.550781 6.578125 -12.816406 6.578125 -10.171875 C 6.578125 -8.828125 6.550781 -7.566406 6.5 -6.390625 C 6.445312 -5.222656 6.394531 -3.941406 6.34375 -2.546875 C 6.3125 -1.898438 6.25 -1.398438 6.15625 -1.046875 C 6.0625 -0.703125 5.929688 -0.429688 5.765625 -0.234375 C 5.609375 -0.046875 5.425781 0.0625 5.21875 0.09375 C 5.019531 0.132812 4.789062 0.15625 4.53125 0.15625 C 4.039062 0.15625 3.632812 -0.0078125 3.3125 -0.34375 C 2.988281 -0.675781 2.800781 -1.394531 2.75 -2.5 Z M 4.5625 -28.28125 C 5.1875 -28.28125 5.757812 -28.035156 6.28125 -27.546875 C 6.800781 -27.054688 7.0625 -26.476562 7.0625 -25.8125 C 7.0625 -25.164062 6.789062 -24.601562 6.25 -24.125 C 5.71875 -23.65625 5.113281 -23.421875 4.4375 -23.421875 C 3.875 -23.421875 3.34375 -23.65625 2.84375 -24.125 C 2.34375 -24.601562 2.09375 -25.191406 2.09375 -25.890625 C 2.09375 -26.535156 2.34375 -27.09375 2.84375 -27.5625 C 3.34375 -28.039062 3.914062 -28.28125 4.5625 -28.28125 Z M 4.5625 -28.28125 "/></g></g></g><g fill="#1f2d47" fill-opacity="1"><g transform="translate(189.918029, 38.792594)"><g><path d="M 11.671875 -20.59375 C 12.453125 -20.59375 13.238281 -20.523438 14.03125 -20.390625 C 14.832031 -20.265625 15.554688 -20.078125 16.203125 -19.828125 C 16.847656 -19.585938 17.367188 -19.289062 17.765625 -18.9375 C 18.171875 -18.59375 18.375 -18.191406 18.375 -17.734375 C 18.375 -16.546875 17.703125 -15.953125 16.359375 -15.953125 C 16.035156 -15.953125 15.734375 -16 15.453125 -16.09375 C 15.171875 -16.1875 14.835938 -16.28125 14.453125 -16.375 C 14.078125 -16.46875 13.609375 -16.5625 13.046875 -16.65625 C 12.484375 -16.75 11.785156 -16.796875 10.953125 -16.796875 C 9.171875 -16.796875 7.796875 -16.191406 6.828125 -14.984375 C 5.859375 -13.773438 5.375 -12.203125 5.375 -10.265625 C 5.375 -8.128906 5.863281 -6.414062 6.84375 -5.125 C 7.832031 -3.832031 9.226562 -3.1875 11.03125 -3.1875 C 12.15625 -3.1875 13.066406 -3.28125 13.765625 -3.46875 C 14.472656 -3.65625 15.046875 -3.867188 15.484375 -4.109375 C 15.929688 -4.359375 16.296875 -4.578125 16.578125 -4.765625 C 16.859375 -4.953125 17.175781 -5.046875 17.53125 -5.046875 C 18.007812 -5.046875 18.390625 -4.941406 18.671875 -4.734375 C 18.960938 -4.535156 19.109375 -4.128906 19.109375 -3.515625 C 19.109375 -2.867188 18.859375 -2.300781 18.359375 -1.8125 C 17.859375 -1.332031 17.226562 -0.929688 16.46875 -0.609375 C 15.71875 -0.285156 14.90625 -0.046875 14.03125 0.109375 C 13.15625 0.273438 12.351562 0.359375 11.625 0.359375 C 8.375 0.359375 5.816406 -0.539062 3.953125 -2.34375 C 2.097656 -4.144531 1.171875 -6.703125 1.171875 -10.015625 C 1.171875 -11.441406 1.390625 -12.796875 1.828125 -14.078125 C 2.273438 -15.359375 2.941406 -16.484375 3.828125 -17.453125 C 4.722656 -18.421875 5.820312 -19.1875 7.125 -19.75 C 8.4375 -20.3125 9.953125 -20.59375 11.671875 -20.59375 Z M 11.671875 -20.59375 "/></g></g></g></g></g></svg>