<svg xmlns="http://www.w3.org/2000/svg" xmlns:xlink="http://www.w3.org/1999/xlink" width="400" zoomAndPan="magnify" viewBox="0 0 300 149.999998" height="200" preserveAspectRatio="xMidYMid meet" version="1.0"><defs><g/><clipPath id="10af83f62d"><path d="M 59.125 48 L 107 48 L 107 99 L 59.125 99 Z M 59.125 48 " clip-rule="nonzero"/></clipPath><clipPath id="c1b5faf569"><path d="M 116 11 L 127.960938 11 L 127.960938 25 L 116 25 Z M 116 11 " clip-rule="nonzero"/></clipPath><clipPath id="d853ac0338"><rect x="0" width="128" y="0" height="32"/></clipPath></defs><g clip-path="url(#10af83f62d)"><path fill="#ffffff" d="M 106.03125 73.652344 C 105.703125 68.933594 103.828125 64.355469 100.875 60.652344 C 98.921875 58.199219 96.703125 56.558594 95.796875 55.898438 C 93.296875 54.039062 90.296875 52.445312 88.796875 52.039062 C 88.65625 52.007812 88.453125 52.007812 88.25 51.835938 C 86.394531 50.296875 86.636719 48.632812 85.84375 48.523438 C 85.5 48.476562 85.28125 48.757812 85.09375 49.023438 C 84.90625 49.257812 84.875 49.523438 84.84375 49.789062 C 84.828125 49.945312 84.84375 50.085938 84.671875 50.179688 C 84.09375 50.460938 83 50.007812 82.75 49.414062 C 82.609375 49.039062 82.40625 48.695312 82.203125 48.351562 C 81.921875 47.882812 81.53125 47.945312 81.1875 48.242188 C 80.109375 49.195312 81.085938 50.328125 79.859375 50.164062 C 77.695312 49.871094 76.871094 50.75 74.046875 49.523438 C 73.453125 49.257812 72.515625 49.539062 72.390625 50.101562 C 72.027344 51.722656 72.683594 53.210938 74.375 53.976562 C 73.628906 54.96875 73.265625 56.363281 73.359375 57.402344 C 74.523438 56.234375 76.175781 55.246094 77.8125 54.835938 C 77.9375 54.851562 78.0625 54.898438 78.1875 54.945312 C 79.59375 55.335938 80.9375 55.898438 82.296875 56.464844 C 83.011719 56.738281 83.484375 57.214844 83.09375 57.871094 C 82.609375 58.683594 81.46875 58.996094 80.703125 59.464844 C 80.425781 59.625 80.15625 59.789062 79.882812 59.953125 C 78.859375 59.652344 77.808594 59.464844 76.773438 59.734375 C 74.085938 60.429688 72.828125 63.523438 71.898438 65.902344 C 72.417969 65.878906 72.929688 65.566406 73.222656 65.089844 C 73.316406 65.710938 73.40625 66.332031 73.5 66.953125 C 73.769531 65.964844 74.265625 64.691406 75.210938 63.476562 C 75.785156 62.746094 76.492188 61.847656 77.484375 61.527344 C 77.039062 62.066406 77.277344 62.625 77.8125 62.949219 C 78.71875 63.421875 82.128906 63.421875 85 61.730469 C 86.078125 61.105469 87.296875 60.042969 88.609375 60.042969 C 89.8125 60.042969 91.34375 60.949219 92.328125 61.605469 C 95.9375 63.964844 98.0625 68.277344 98.203125 72.589844 C 98.390625 77.949219 95.5625 83.324219 91.046875 86.230469 C 83.84375 90.867188 76.175781 87.304688 75.671875 87.058594 C 74.933594 86.703125 69.515625 83.964844 67.53125 77.65625 C 65.667969 71.726562 67.578125 65.578125 72.117188 61.390625 C 74.425781 59.253906 77.0625 58.09375 76.78125 57.261719 C 76.660156 56.902344 76.058594 56.777344 75.546875 56.730469 C 74.820312 57.222656 74.589844 57.578125 72.703125 59.433594 C 72.570312 56.453125 72.554688 56.378906 72.578125 56.042969 C 72.605469 55.636719 72.671875 55.515625 72.640625 55.476562 C 72.449219 55.277344 69.371094 57.664062 67.753906 59.210938 C 62.578125 64.160156 60.683594 69.738281 59.992188 73.371094 C 60.554688 71.957031 62.328125 71.457031 63.542969 72.402344 C 63.882812 72.667969 63.945312 73.15625 63.679688 73.5 C 63.417969 73.839844 62.925781 73.902344 62.585938 73.636719 C 62.203125 73.339844 61.625 73.488281 61.445312 73.949219 C 61.289062 74.339844 60.847656 74.550781 60.429688 74.390625 C 60.054688 74.242188 59.867188 73.832031 59.976562 73.453125 C 59.542969 75.757812 59.59375 77.265625 59.59375 77.265625 C 60.113281 90.171875 72.078125 96.21875 72.59375 96.46875 C 84.410156 102.183594 95.40625 94.960938 95.859375 94.65625 C 102.578125 90.078125 106.613281 81.777344 106.03125 73.652344 Z M 79.046875 53.378906 C 78.511719 53.378906 78.078125 52.945312 78.078125 52.410156 C 78.078125 51.875 78.511719 51.441406 79.046875 51.441406 C 79.582031 51.441406 80.015625 51.875 80.015625 52.410156 C 80.015625 52.945312 79.582031 53.378906 79.046875 53.378906 Z M 65.636719 83.066406 C 65.539062 83.488281 65.125 83.753906 64.699219 83.65625 C 64.214844 83.546875 63.769531 83.933594 63.796875 84.417969 C 63.820312 84.851562 63.492188 85.21875 63.058594 85.242188 C 63.042969 85.246094 63.03125 85.246094 63.015625 85.246094 C 62.601562 85.246094 62.257812 84.925781 62.234375 84.507812 C 62.148438 82.980469 63.554688 81.789062 65.050781 82.132812 C 65.46875 82.230469 65.734375 82.648438 65.636719 83.066406 Z M 66.269531 76.847656 C 66.171875 77.269531 65.753906 77.535156 65.332031 77.433594 C 64.859375 77.324219 64.402344 77.703125 64.429688 78.199219 C 64.453125 78.628906 64.125 79 63.691406 79.023438 C 63.675781 79.023438 63.664062 79.023438 63.648438 79.023438 C 63.238281 79.023438 62.890625 78.703125 62.867188 78.289062 C 62.78125 76.742188 64.207031 75.570312 65.683594 75.910156 C 66.101562 76.007812 66.367188 76.425781 66.269531 76.847656 Z M 65.792969 68.578125 C 65.433594 68.226562 64.847656 68.335938 64.625 68.757812 C 64.484375 69.019531 64.210938 69.167969 63.933594 69.167969 C 63.347656 69.167969 62.96875 68.539062 63.246094 68.019531 C 63.96875 66.667969 65.792969 66.390625 66.886719 67.464844 C 67.195312 67.765625 67.199219 68.261719 66.898438 68.570312 C 66.59375 68.878906 66.101562 68.878906 65.792969 68.578125 Z M 68.007812 87.246094 C 66.339844 87.761719 66.484375 83.789062 69.191406 83.746094 C 69.195312 83.746094 69.199219 83.746094 69.203125 83.746094 C 69.628906 83.746094 69.980469 84.089844 69.984375 84.515625 C 69.992188 84.949219 69.648438 85.304688 69.21875 85.308594 C 68.726562 85.320312 68.378906 85.800781 68.523438 86.269531 C 68.648438 86.679688 68.417969 87.117188 68.007812 87.246094 Z M 70.542969 90.277344 C 70.054688 90.332031 69.753906 90.847656 69.941406 91.296875 C 70.109375 91.695312 69.921875 92.152344 69.523438 92.320312 C 69.128906 92.488281 68.667969 92.300781 68.5 91.902344 C 67.910156 90.492188 68.839844 88.898438 70.363281 88.726562 C 70.785156 88.664062 71.179688 88.984375 71.230469 89.414062 C 71.277344 89.839844 70.96875 90.226562 70.542969 90.277344 Z M 75.75 91.207031 C 75.285156 91.347656 75.074219 91.90625 75.34375 92.320312 C 75.683594 92.84375 75.296875 93.527344 74.6875 93.527344 C 73.40625 93.527344 73.042969 90.390625 75.300781 89.710938 C 75.714844 89.589844 76.148438 89.824219 76.273438 90.234375 C 76.398438 90.648438 76.164062 91.085938 75.75 91.207031 Z M 80.578125 97.136719 C 79.054688 96.9375 78.152344 95.332031 78.765625 93.929688 C 78.9375 93.535156 79.394531 93.351562 79.792969 93.527344 C 80.1875 93.699219 80.367188 94.160156 80.195312 94.554688 C 80 95.003906 80.292969 95.523438 80.777344 95.585938 C 81.207031 95.640625 81.507812 96.03125 81.453125 96.460938 C 81.402344 96.859375 81.046875 97.183594 80.578125 97.136719 Z M 85.816406 94.039062 C 84.300781 93.839844 83.390625 92.238281 84.003906 90.832031 C 84.175781 90.4375 84.636719 90.257812 85.03125 90.429688 C 85.425781 90.601562 85.609375 91.0625 85.433594 91.457031 C 85.238281 91.90625 85.53125 92.425781 86.019531 92.488281 C 86.445312 92.542969 86.75 92.933594 86.695312 93.363281 C 86.640625 93.773438 86.269531 94.089844 85.816406 94.039062 Z M 92.398438 94.746094 C 89.640625 95.046875 89.097656 91.144531 90.757812 91.433594 C 91.183594 91.507812 91.472656 91.910156 91.402344 92.335938 C 91.316406 92.824219 91.738281 93.253906 92.21875 93.191406 C 92.65625 93.136719 93.035156 93.449219 93.082031 93.878906 C 93.132812 94.308594 92.828125 94.695312 92.398438 94.746094 Z M 94.785156 89.902344 C 93.265625 90.082031 91.992188 88.75 92.246094 87.234375 C 92.320312 86.808594 92.71875 86.515625 93.144531 86.59375 C 93.570312 86.667969 93.859375 87.070312 93.789062 87.492188 C 93.707031 87.976562 94.109375 88.40625 94.605469 88.351562 C 95.035156 88.292969 95.421875 88.605469 95.472656 89.035156 C 95.523438 89.464844 95.214844 89.851562 94.785156 89.902344 Z M 100.605469 66.804688 C 101.066406 66.988281 101.570312 66.675781 101.617188 66.191406 C 101.660156 65.761719 102.054688 65.457031 102.472656 65.492188 C 102.902344 65.535156 103.214844 65.917969 103.171875 66.347656 C 103.019531 67.890625 101.425781 68.820312 100.023438 68.253906 C 99.621094 68.09375 99.429688 67.640625 99.589844 67.238281 C 99.75 66.839844 100.207031 66.648438 100.605469 66.804688 Z M 102.964844 72.753906 C 102.167969 74.042969 100.339844 74.234375 99.296875 73.085938 C 99.007812 72.765625 99.03125 72.269531 99.351562 71.980469 C 99.671875 71.691406 100.167969 71.71875 100.457031 72.035156 C 100.800781 72.421875 101.390625 72.332031 101.636719 71.929688 C 101.863281 71.5625 102.34375 71.449219 102.710938 71.675781 C 103.078125 71.902344 103.191406 72.386719 102.964844 72.753906 Z M 94.296875 59.847656 C 93.871094 59.777344 93.585938 59.375 93.65625 58.949219 C 93.726562 58.523438 94.128906 58.230469 94.554688 58.308594 C 95.039062 58.390625 95.46875 57.980469 95.414062 57.492188 C 95.363281 57.0625 95.667969 56.675781 96.097656 56.625 C 96.53125 56.566406 96.914062 56.878906 96.964844 57.308594 C 97.144531 58.835938 95.804688 60.101562 94.296875 59.847656 Z M 96.257812 64.921875 C 95.871094 64.730469 95.714844 64.261719 95.90625 63.875 C 96.097656 63.488281 96.566406 63.332031 96.953125 63.523438 C 97.398438 63.746094 97.925781 63.472656 98.015625 62.996094 C 98.09375 62.570312 98.503906 62.285156 98.921875 62.367188 C 99.347656 62.445312 99.628906 62.851562 99.550781 63.277344 C 99.273438 64.796875 97.613281 65.601562 96.257812 64.921875 Z M 100.363281 87.707031 C 99.980469 87.957031 99.535156 88.089844 99.085938 88.089844 C 97.226562 88.089844 96.164062 85.882812 97.402344 85.496094 C 97.816406 85.367188 98.25 85.597656 98.378906 86.007812 C 98.527344 86.480469 99.09375 86.675781 99.496094 86.402344 C 99.855469 86.164062 100.339844 86.261719 100.582031 86.621094 C 100.820312 86.980469 100.722656 87.464844 100.363281 87.707031 Z M 101.492188 82.011719 C 100.460938 83.148438 98.625 82.96875 97.824219 81.664062 C 97.601562 81.296875 97.714844 80.816406 98.082031 80.589844 C 98.449219 80.363281 98.933594 80.480469 99.160156 80.847656 C 99.417969 81.273438 100.015625 81.3125 100.335938 80.960938 C 100.628906 80.640625 101.121094 80.617188 101.441406 80.90625 C 101.757812 81.195312 101.78125 81.691406 101.492188 82.011719 Z M 104.957031 78.140625 C 103.929688 79.269531 102.09375 79.105469 101.289062 77.792969 C 101.0625 77.425781 101.179688 76.945312 101.546875 76.71875 C 101.914062 76.496094 102.398438 76.609375 102.621094 76.976562 C 102.886719 77.414062 103.488281 77.433594 103.800781 77.089844 C 104.09375 76.773438 104.585938 76.75 104.902344 77.039062 C 105.222656 77.328125 105.246094 77.824219 104.957031 78.140625 Z M 104.957031 78.140625 " fill-opacity="1" fill-rule="nonzero"/></g><g transform="matrix(1, 0, 0, 1, 113, 59)"><g clip-path="url(#d853ac0338)"><g fill="#b7e92f" fill-opacity="1"><g transform="translate(0.985179, 23.865385)"><g><path d="M 7.125 -6.015625 C 6.894531 -6.003906 6.660156 -5.992188 6.421875 -5.984375 C 6.179688 -5.972656 5.941406 -5.96875 5.703125 -5.96875 C 5.421875 -5.96875 5.140625 -5.96875 4.859375 -5.96875 C 4.585938 -5.96875 4.28125 -5.984375 3.9375 -6.015625 L 3.9375 -1.046875 C 3.9375 -0.523438 3.8125 -0.203125 3.5625 -0.078125 C 3.3125 0.0351562 3 0.09375 2.625 0.09375 C 2.425781 0.09375 2.269531 0.0820312 2.15625 0.0625 C 2.039062 0.0390625 1.945312 -0.00390625 1.875 -0.078125 C 1.800781 -0.160156 1.742188 -0.273438 1.703125 -0.421875 C 1.660156 -0.566406 1.628906 -0.769531 1.609375 -1.03125 C 1.578125 -1.320312 1.550781 -1.75 1.53125 -2.3125 C 1.519531 -2.875 1.507812 -3.601562 1.5 -4.5 C 1.5 -5.394531 1.492188 -6.484375 1.484375 -7.765625 C 1.472656 -9.046875 1.46875 -10.550781 1.46875 -12.28125 C 1.46875 -12.945312 1.546875 -13.59375 1.703125 -14.21875 C 1.867188 -14.851562 2.164062 -15.410156 2.59375 -15.890625 C 3.019531 -16.367188 3.59375 -16.753906 4.3125 -17.046875 C 5.039062 -17.347656 5.96875 -17.5 7.09375 -17.5 C 7.894531 -17.5 8.675781 -17.40625 9.4375 -17.21875 C 10.195312 -17.039062 10.867188 -16.734375 11.453125 -16.296875 C 12.035156 -15.859375 12.503906 -15.265625 12.859375 -14.515625 C 13.222656 -13.765625 13.40625 -12.828125 13.40625 -11.703125 C 13.40625 -10.191406 13.082031 -9.023438 12.4375 -8.203125 C 11.789062 -7.378906 10.90625 -6.796875 9.78125 -6.453125 L 13.0625 -1.953125 C 13.351562 -1.566406 13.5 -1.171875 13.5 -0.765625 C 13.5 -0.429688 13.390625 -0.171875 13.171875 0.015625 C 12.953125 0.203125 12.679688 0.296875 12.359375 0.296875 C 11.992188 0.296875 11.679688 0.195312 11.421875 0 C 11.160156 -0.207031 10.914062 -0.476562 10.6875 -0.8125 Z M 10.96875 -11.71875 C 10.96875 -12.84375 10.628906 -13.675781 9.953125 -14.21875 C 9.273438 -14.769531 8.203125 -15.046875 6.734375 -15.046875 C 6.191406 -15.046875 5.738281 -15 5.375 -14.90625 C 5.019531 -14.820312 4.734375 -14.65625 4.515625 -14.40625 C 4.304688 -14.164062 4.15625 -13.828125 4.0625 -13.390625 C 3.976562 -12.960938 3.9375 -12.414062 3.9375 -11.75 C 3.9375 -11.269531 3.9375 -10.710938 3.9375 -10.078125 C 3.9375 -9.441406 3.945312 -8.863281 3.96875 -8.34375 C 4.34375 -8.320312 4.757812 -8.3125 5.21875 -8.3125 C 5.6875 -8.3125 6.125 -8.3125 6.53125 -8.3125 C 6.988281 -8.3125 7.472656 -8.335938 7.984375 -8.390625 C 8.503906 -8.453125 8.984375 -8.601562 9.421875 -8.84375 C 9.859375 -9.082031 10.222656 -9.425781 10.515625 -9.875 C 10.816406 -10.320312 10.96875 -10.9375 10.96875 -11.71875 Z M 10.96875 -11.71875 "/></g></g></g><g fill="#b7e92f" fill-opacity="1"><g transform="translate(15.102459, 23.865385)"><g><path d="M 7.140625 -4.5 C 6.566406 -4.5 5.96875 -4.539062 5.34375 -4.625 C 4.71875 -4.71875 4.035156 -4.914062 3.296875 -5.21875 C 3.453125 -4.21875 3.863281 -3.460938 4.53125 -2.953125 C 5.207031 -2.453125 6.1875 -2.203125 7.46875 -2.203125 C 7.914062 -2.203125 8.320312 -2.226562 8.6875 -2.28125 C 9.0625 -2.34375 9.382812 -2.410156 9.65625 -2.484375 C 9.9375 -2.554688 10.179688 -2.617188 10.390625 -2.671875 C 10.609375 -2.734375 10.804688 -2.765625 10.984375 -2.765625 C 11.210938 -2.765625 11.429688 -2.691406 11.640625 -2.546875 C 11.859375 -2.410156 11.96875 -2.179688 11.96875 -1.859375 C 11.96875 -1.453125 11.800781 -1.117188 11.46875 -0.859375 C 11.132812 -0.597656 10.722656 -0.390625 10.234375 -0.234375 C 9.753906 -0.078125 9.242188 0.0234375 8.703125 0.078125 C 8.171875 0.140625 7.703125 0.171875 7.296875 0.171875 C 6.328125 0.171875 5.4375 0.0390625 4.625 -0.21875 C 3.820312 -0.476562 3.125 -0.875 2.53125 -1.40625 C 1.945312 -1.9375 1.492188 -2.59375 1.171875 -3.375 C 0.847656 -4.15625 0.6875 -5.066406 0.6875 -6.109375 C 0.6875 -7.128906 0.84375 -8.03125 1.15625 -8.8125 C 1.476562 -9.59375 1.914062 -10.25 2.46875 -10.78125 C 3.019531 -11.320312 3.675781 -11.734375 4.4375 -12.015625 C 5.195312 -12.296875 6.019531 -12.4375 6.90625 -12.4375 C 7.582031 -12.4375 8.242188 -12.34375 8.890625 -12.15625 C 9.535156 -11.976562 10.109375 -11.707031 10.609375 -11.34375 C 11.109375 -10.988281 11.507812 -10.535156 11.8125 -9.984375 C 12.113281 -9.441406 12.265625 -8.804688 12.265625 -8.078125 C 12.265625 -7.421875 12.140625 -6.863281 11.890625 -6.40625 C 11.648438 -5.945312 11.300781 -5.578125 10.84375 -5.296875 C 10.394531 -5.023438 9.859375 -4.820312 9.234375 -4.6875 C 8.609375 -4.5625 7.910156 -4.5 7.140625 -4.5 Z M 6.96875 -10.171875 C 6.53125 -10.171875 6.109375 -10.117188 5.703125 -10.015625 C 5.296875 -9.910156 4.925781 -9.738281 4.59375 -9.5 C 4.257812 -9.269531 3.976562 -8.960938 3.75 -8.578125 C 3.519531 -8.191406 3.363281 -7.710938 3.28125 -7.140625 C 3.894531 -6.867188 4.492188 -6.675781 5.078125 -6.5625 C 5.671875 -6.457031 6.296875 -6.40625 6.953125 -6.40625 C 7.910156 -6.40625 8.617188 -6.523438 9.078125 -6.765625 C 9.546875 -7.003906 9.78125 -7.429688 9.78125 -8.046875 C 9.78125 -8.617188 9.5625 -9.113281 9.125 -9.53125 C 8.695312 -9.957031 7.976562 -10.171875 6.96875 -10.171875 Z M 6.96875 -10.171875 "/></g></g></g><g fill="#b7e92f" fill-opacity="1"><g transform="translate(28.192138, 23.865385)"><g><path d="M 7.25 -10.421875 C 6.644531 -10.421875 6.097656 -10.320312 5.609375 -10.125 C 5.128906 -9.9375 4.585938 -9.644531 3.984375 -9.25 C 3.984375 -8.90625 3.984375 -8.398438 3.984375 -7.734375 C 3.984375 -7.078125 3.972656 -6.359375 3.953125 -5.578125 C 3.941406 -4.804688 3.925781 -4.046875 3.90625 -3.296875 C 3.894531 -2.546875 3.863281 -1.921875 3.8125 -1.421875 C 3.78125 -1.097656 3.742188 -0.835938 3.703125 -0.640625 C 3.660156 -0.453125 3.601562 -0.3125 3.53125 -0.21875 C 3.457031 -0.125 3.359375 -0.0625 3.234375 -0.03125 C 3.117188 -0.0078125 2.960938 0 2.765625 0 C 2.566406 0 2.40625 -0.0078125 2.28125 -0.03125 C 2.164062 -0.0625 2.066406 -0.117188 1.984375 -0.203125 C 1.898438 -0.296875 1.832031 -0.429688 1.78125 -0.609375 C 1.738281 -0.785156 1.695312 -1.03125 1.65625 -1.34375 C 1.625 -1.632812 1.597656 -2.023438 1.578125 -2.515625 C 1.554688 -3.003906 1.535156 -3.535156 1.515625 -4.109375 C 1.503906 -4.691406 1.492188 -5.28125 1.484375 -5.875 C 1.472656 -6.476562 1.46875 -7.03125 1.46875 -7.53125 C 1.46875 -8.363281 1.476562 -9.039062 1.5 -9.5625 C 1.53125 -10.082031 1.578125 -10.550781 1.640625 -10.96875 C 1.734375 -11.644531 1.863281 -12.070312 2.03125 -12.25 C 2.195312 -12.4375 2.414062 -12.53125 2.6875 -12.53125 C 3.09375 -12.53125 3.398438 -12.414062 3.609375 -12.1875 C 3.816406 -11.957031 3.941406 -11.582031 3.984375 -11.0625 C 4.585938 -11.582031 5.234375 -11.992188 5.921875 -12.296875 C 6.617188 -12.609375 7.335938 -12.765625 8.078125 -12.765625 C 8.773438 -12.765625 9.410156 -12.601562 9.984375 -12.28125 C 10.566406 -11.957031 11.046875 -11.425781 11.421875 -10.6875 C 11.648438 -10.25 11.820312 -9.765625 11.9375 -9.234375 C 12.050781 -8.703125 12.132812 -8.144531 12.1875 -7.5625 C 12.195312 -7.300781 12.210938 -7.039062 12.234375 -6.78125 C 12.253906 -6.53125 12.265625 -6.257812 12.265625 -5.96875 C 12.273438 -5.6875 12.28125 -5.367188 12.28125 -5.015625 C 12.28125 -4.660156 12.28125 -4.238281 12.28125 -3.75 C 12.28125 -3.21875 12.269531 -2.722656 12.25 -2.265625 C 12.238281 -1.816406 12.195312 -1.425781 12.125 -1.09375 C 12.050781 -0.757812 11.921875 -0.5 11.734375 -0.3125 C 11.554688 -0.125 11.316406 -0.03125 11.015625 -0.03125 C 10.265625 -0.03125 9.875 -0.382812 9.84375 -1.09375 C 9.84375 -1.144531 9.84375 -1.351562 9.84375 -1.71875 C 9.84375 -2.09375 9.835938 -2.523438 9.828125 -3.015625 C 9.816406 -3.503906 9.804688 -4 9.796875 -4.5 C 9.785156 -5.007812 9.773438 -5.425781 9.765625 -5.75 C 9.742188 -6.007812 9.722656 -6.289062 9.703125 -6.59375 C 9.679688 -6.894531 9.648438 -7.203125 9.609375 -7.515625 C 9.566406 -7.828125 9.507812 -8.125 9.4375 -8.40625 C 9.375 -8.6875 9.296875 -8.941406 9.203125 -9.171875 C 8.972656 -9.710938 8.6875 -10.054688 8.34375 -10.203125 C 8 -10.347656 7.632812 -10.421875 7.25 -10.421875 Z M 7.25 -10.421875 "/></g></g></g><g fill="#b7e92f" fill-opacity="1"><g transform="translate(41.453066, 23.865385)"><g><path d="M 3.59375 -1.59375 C 3.550781 -2.613281 3.523438 -3.828125 3.515625 -5.234375 C 3.503906 -6.648438 3.5 -8.257812 3.5 -10.0625 C 3.332031 -10.039062 3.140625 -10.03125 2.921875 -10.03125 C 2.703125 -10.03125 2.523438 -10.03125 2.390625 -10.03125 C 2.097656 -10.03125 1.832031 -10.035156 1.59375 -10.046875 C 1.363281 -10.066406 1.15625 -10.117188 0.96875 -10.203125 C 0.789062 -10.285156 0.65625 -10.40625 0.5625 -10.5625 C 0.46875 -10.71875 0.421875 -10.929688 0.421875 -11.203125 C 0.421875 -11.984375 1.003906 -12.375 2.171875 -12.375 C 2.359375 -12.375 2.582031 -12.375 2.84375 -12.375 C 3.101562 -12.375 3.320312 -12.359375 3.5 -12.328125 C 3.5 -13.191406 3.515625 -13.882812 3.546875 -14.40625 C 3.578125 -14.925781 3.632812 -15.328125 3.71875 -15.609375 C 3.8125 -15.898438 3.9375 -16.09375 4.09375 -16.1875 C 4.25 -16.28125 4.453125 -16.328125 4.703125 -16.328125 C 4.960938 -16.328125 5.171875 -16.234375 5.328125 -16.046875 C 5.492188 -15.867188 5.617188 -15.640625 5.703125 -15.359375 C 5.796875 -15.085938 5.851562 -14.78125 5.875 -14.4375 C 5.90625 -14.09375 5.921875 -13.757812 5.921875 -13.4375 C 5.921875 -13.207031 5.914062 -13 5.90625 -12.8125 C 5.894531 -12.625 5.890625 -12.457031 5.890625 -12.3125 C 6.117188 -12.375 6.351562 -12.410156 6.59375 -12.421875 C 6.84375 -12.429688 7.082031 -12.4375 7.3125 -12.4375 C 7.914062 -12.4375 8.378906 -12.34375 8.703125 -12.15625 C 9.035156 -11.96875 9.203125 -11.660156 9.203125 -11.234375 C 9.203125 -10.972656 9.144531 -10.765625 9.03125 -10.609375 C 8.914062 -10.453125 8.765625 -10.332031 8.578125 -10.25 C 8.390625 -10.164062 8.164062 -10.113281 7.90625 -10.09375 C 7.65625 -10.070312 7.382812 -10.0625 7.09375 -10.0625 C 6.925781 -10.0625 6.738281 -10.0625 6.53125 -10.0625 C 6.320312 -10.0625 6.128906 -10.078125 5.953125 -10.109375 C 5.953125 -9.242188 5.953125 -8.453125 5.953125 -7.734375 C 5.953125 -7.015625 5.941406 -6.320312 5.921875 -5.65625 C 5.898438 -5 5.878906 -4.34375 5.859375 -3.6875 C 5.847656 -3.039062 5.828125 -2.347656 5.796875 -1.609375 C 5.785156 -1.222656 5.75 -0.921875 5.6875 -0.703125 C 5.632812 -0.492188 5.554688 -0.332031 5.453125 -0.21875 C 5.359375 -0.101562 5.25 -0.03125 5.125 0 C 5 0.0195312 4.859375 0.03125 4.703125 0.03125 C 4.398438 0.03125 4.144531 -0.0703125 3.9375 -0.28125 C 3.738281 -0.488281 3.625 -0.925781 3.59375 -1.59375 Z M 3.59375 -1.59375 "/></g></g></g><g fill="#b7e92f" fill-opacity="1"><g transform="translate(51.166341, 23.865385)"><g><path d="M 11.53125 0.09375 C 11.269531 0.09375 11.0625 0.0507812 10.90625 -0.03125 C 10.75 -0.125 10.628906 -0.242188 10.546875 -0.390625 C 10.460938 -0.535156 10.40625 -0.707031 10.375 -0.90625 C 10.34375 -1.113281 10.316406 -1.332031 10.296875 -1.5625 C 9.890625 -1.0625 9.363281 -0.640625 8.71875 -0.296875 C 8.070312 0.046875 7.253906 0.21875 6.265625 0.21875 C 5.628906 0.21875 4.976562 0.125 4.3125 -0.0625 C 3.65625 -0.25 3.054688 -0.570312 2.515625 -1.03125 C 1.984375 -1.5 1.546875 -2.125 1.203125 -2.90625 C 0.859375 -3.695312 0.6875 -4.6875 0.6875 -5.875 C 0.6875 -6.800781 0.800781 -7.671875 1.03125 -8.484375 C 1.257812 -9.304688 1.601562 -10.019531 2.0625 -10.625 C 2.53125 -11.238281 3.113281 -11.722656 3.8125 -12.078125 C 4.519531 -12.441406 5.34375 -12.625 6.28125 -12.625 C 7.113281 -12.625 7.859375 -12.472656 8.515625 -12.171875 C 9.171875 -11.867188 9.757812 -11.375 10.28125 -10.6875 C 10.28125 -10.882812 10.285156 -11.082031 10.296875 -11.28125 C 10.316406 -11.488281 10.363281 -11.675781 10.4375 -11.84375 C 10.507812 -12.019531 10.625 -12.160156 10.78125 -12.265625 C 10.945312 -12.378906 11.171875 -12.4375 11.453125 -12.4375 C 11.691406 -12.4375 11.914062 -12.335938 12.125 -12.140625 C 12.34375 -11.941406 12.46875 -11.515625 12.5 -10.859375 C 12.550781 -9.992188 12.585938 -9.21875 12.609375 -8.53125 C 12.640625 -7.851562 12.65625 -7.144531 12.65625 -6.40625 C 12.65625 -5.507812 12.644531 -4.6875 12.625 -3.9375 C 12.601562 -3.1875 12.5625 -2.390625 12.5 -1.546875 C 12.46875 -1.171875 12.421875 -0.867188 12.359375 -0.640625 C 12.304688 -0.421875 12.238281 -0.257812 12.15625 -0.15625 C 12.070312 -0.0507812 11.972656 0.015625 11.859375 0.046875 C 11.753906 0.078125 11.644531 0.09375 11.53125 0.09375 Z M 10.203125 -6.109375 C 10.203125 -6.960938 10.070312 -7.65625 9.8125 -8.1875 C 9.5625 -8.726562 9.242188 -9.148438 8.859375 -9.453125 C 8.484375 -9.753906 8.070312 -9.960938 7.625 -10.078125 C 7.1875 -10.191406 6.78125 -10.25 6.40625 -10.25 C 5.820312 -10.25 5.320312 -10.140625 4.90625 -9.921875 C 4.488281 -9.710938 4.148438 -9.425781 3.890625 -9.0625 C 3.628906 -8.695312 3.4375 -8.265625 3.3125 -7.765625 C 3.1875 -7.265625 3.125 -6.722656 3.125 -6.140625 C 3.125 -4.703125 3.4375 -3.640625 4.0625 -2.953125 C 4.695312 -2.273438 5.550781 -1.9375 6.625 -1.9375 C 7.257812 -1.9375 7.800781 -2.046875 8.25 -2.265625 C 8.707031 -2.484375 9.078125 -2.78125 9.359375 -3.15625 C 9.640625 -3.53125 9.847656 -3.972656 9.984375 -4.484375 C 10.128906 -5.003906 10.203125 -5.546875 10.203125 -6.109375 Z M 10.203125 -6.109375 "/></g></g></g><g fill="#b7e92f" fill-opacity="1"><g transform="translate(65.185759, 23.865385)"><g><path d="M 1.640625 -1.421875 C 1.617188 -2.003906 1.597656 -2.6875 1.578125 -3.46875 C 1.566406 -4.257812 1.554688 -5.109375 1.546875 -6.015625 C 1.546875 -6.929688 1.539062 -7.894531 1.53125 -8.90625 C 1.519531 -9.914062 1.515625 -10.953125 1.515625 -12.015625 C 1.515625 -13.171875 1.519531 -14.164062 1.53125 -15 C 1.550781 -15.832031 1.597656 -16.515625 1.671875 -17.046875 C 1.742188 -17.585938 1.863281 -17.984375 2.03125 -18.234375 C 2.195312 -18.492188 2.425781 -18.625 2.71875 -18.625 C 2.988281 -18.625 3.226562 -18.53125 3.4375 -18.34375 C 3.65625 -18.164062 3.78125 -17.753906 3.8125 -17.109375 C 3.882812 -15.929688 3.925781 -14.707031 3.9375 -13.4375 C 3.957031 -12.175781 3.96875 -10.9375 3.96875 -9.71875 C 3.96875 -8.976562 3.96875 -8.269531 3.96875 -7.59375 C 3.96875 -6.914062 3.957031 -6.242188 3.9375 -5.578125 C 3.925781 -4.921875 3.910156 -4.25 3.890625 -3.5625 C 3.867188 -2.882812 3.84375 -2.175781 3.8125 -1.4375 C 3.800781 -1.050781 3.765625 -0.75 3.703125 -0.53125 C 3.648438 -0.320312 3.570312 -0.160156 3.46875 -0.046875 C 3.375 0.0664062 3.265625 0.132812 3.140625 0.15625 C 3.015625 0.1875 2.875 0.203125 2.71875 0.203125 C 2.425781 0.203125 2.179688 0.0976562 1.984375 -0.109375 C 1.785156 -0.316406 1.671875 -0.753906 1.640625 -1.421875 Z M 1.640625 -1.421875 "/></g></g></g><g fill="#b7e92f" fill-opacity="1"><g transform="translate(70.666299, 23.865385)"><g><path d="M 5.953125 0 C 5.035156 0 4.296875 -0.0703125 3.734375 -0.21875 C 3.179688 -0.363281 2.753906 -0.570312 2.453125 -0.84375 C 2.148438 -1.113281 1.945312 -1.441406 1.84375 -1.828125 C 1.738281 -2.222656 1.660156 -2.664062 1.609375 -3.15625 C 1.566406 -3.726562 1.53125 -4.484375 1.5 -5.421875 C 1.476562 -6.359375 1.46875 -7.332031 1.46875 -8.34375 C 1.46875 -8.832031 1.472656 -9.347656 1.484375 -9.890625 C 1.492188 -10.441406 1.5 -10.984375 1.5 -11.515625 C 1.507812 -12.046875 1.519531 -12.535156 1.53125 -12.984375 C 1.550781 -13.441406 1.578125 -13.835938 1.609375 -14.171875 C 1.660156 -14.671875 1.742188 -15.125 1.859375 -15.53125 C 1.972656 -15.945312 2.1875 -16.300781 2.5 -16.59375 C 2.820312 -16.882812 3.269531 -17.109375 3.84375 -17.265625 C 4.425781 -17.421875 5.203125 -17.5 6.171875 -17.5 C 8.347656 -17.5 9.976562 -17.09375 11.0625 -16.28125 C 12.15625 -15.476562 12.703125 -14.332031 12.703125 -12.84375 C 12.703125 -12.082031 12.535156 -11.375 12.203125 -10.71875 C 11.867188 -10.0625 11.289062 -9.570312 10.46875 -9.25 C 10.925781 -9.164062 11.34375 -8.992188 11.71875 -8.734375 C 12.09375 -8.472656 12.414062 -8.160156 12.6875 -7.796875 C 12.957031 -7.429688 13.160156 -7.019531 13.296875 -6.5625 C 13.429688 -6.113281 13.5 -5.664062 13.5 -5.21875 C 13.5 -4.625 13.375 -4.019531 13.125 -3.40625 C 12.882812 -2.800781 12.472656 -2.242188 11.890625 -1.734375 C 11.304688 -1.234375 10.523438 -0.816406 9.546875 -0.484375 C 8.578125 -0.160156 7.378906 0 5.953125 0 Z M 11.0625 -5.28125 C 11.0625 -5.875 10.925781 -6.347656 10.65625 -6.703125 C 10.382812 -7.066406 10.035156 -7.34375 9.609375 -7.53125 C 9.191406 -7.71875 8.71875 -7.84375 8.1875 -7.90625 C 7.664062 -7.96875 7.144531 -8 6.625 -8 C 6.21875 -8 5.796875 -8 5.359375 -8 C 4.921875 -8 4.515625 -7.992188 4.140625 -7.984375 C 4.117188 -7.640625 4.097656 -7.285156 4.078125 -6.921875 C 4.066406 -6.566406 4.054688 -6.226562 4.046875 -5.90625 C 4.035156 -5.59375 4.03125 -5.316406 4.03125 -5.078125 C 4.03125 -4.835938 4.03125 -4.671875 4.03125 -4.578125 C 4.03125 -4.140625 4.0625 -3.769531 4.125 -3.46875 C 4.195312 -3.175781 4.320312 -2.941406 4.5 -2.765625 C 4.675781 -2.585938 4.929688 -2.460938 5.265625 -2.390625 C 5.609375 -2.316406 6.039062 -2.28125 6.5625 -2.28125 C 7.988281 -2.28125 9.09375 -2.53125 9.875 -3.03125 C 10.664062 -3.539062 11.0625 -4.289062 11.0625 -5.28125 Z M 6.53125 -15.171875 C 5.988281 -15.171875 5.550781 -15.125 5.21875 -15.03125 C 4.882812 -14.945312 4.628906 -14.832031 4.453125 -14.6875 C 4.285156 -14.539062 4.171875 -14.359375 4.109375 -14.140625 C 4.054688 -13.929688 4.03125 -13.703125 4.03125 -13.453125 L 4.03125 -10.03125 C 4.257812 -10.007812 4.5 -10 4.75 -10 C 5.007812 -10 5.253906 -10 5.484375 -10 C 6.066406 -10 6.640625 -10.039062 7.203125 -10.125 C 7.765625 -10.207031 8.273438 -10.347656 8.734375 -10.546875 C 9.191406 -10.742188 9.554688 -11.015625 9.828125 -11.359375 C 10.109375 -11.703125 10.25 -12.140625 10.25 -12.671875 C 10.25 -13.410156 9.953125 -14.007812 9.359375 -14.46875 C 8.765625 -14.9375 7.820312 -15.171875 6.53125 -15.171875 Z M 6.53125 -15.171875 "/></g></g></g><g fill="#b7e92f" fill-opacity="1"><g transform="translate(84.90591, 23.865385)"><g><path d="M 11.53125 0.09375 C 11.269531 0.09375 11.0625 0.0507812 10.90625 -0.03125 C 10.75 -0.125 10.628906 -0.242188 10.546875 -0.390625 C 10.460938 -0.535156 10.40625 -0.707031 10.375 -0.90625 C 10.34375 -1.113281 10.316406 -1.332031 10.296875 -1.5625 C 9.890625 -1.0625 9.363281 -0.640625 8.71875 -0.296875 C 8.070312 0.046875 7.253906 0.21875 6.265625 0.21875 C 5.628906 0.21875 4.976562 0.125 4.3125 -0.0625 C 3.65625 -0.25 3.054688 -0.570312 2.515625 -1.03125 C 1.984375 -1.5 1.546875 -2.125 1.203125 -2.90625 C 0.859375 -3.695312 0.6875 -4.6875 0.6875 -5.875 C 0.6875 -6.800781 0.800781 -7.671875 1.03125 -8.484375 C 1.257812 -9.304688 1.601562 -10.019531 2.0625 -10.625 C 2.53125 -11.238281 3.113281 -11.722656 3.8125 -12.078125 C 4.519531 -12.441406 5.34375 -12.625 6.28125 -12.625 C 7.113281 -12.625 7.859375 -12.472656 8.515625 -12.171875 C 9.171875 -11.867188 9.757812 -11.375 10.28125 -10.6875 C 10.28125 -10.882812 10.285156 -11.082031 10.296875 -11.28125 C 10.316406 -11.488281 10.363281 -11.675781 10.4375 -11.84375 C 10.507812 -12.019531 10.625 -12.160156 10.78125 -12.265625 C 10.945312 -12.378906 11.171875 -12.4375 11.453125 -12.4375 C 11.691406 -12.4375 11.914062 -12.335938 12.125 -12.140625 C 12.34375 -11.941406 12.46875 -11.515625 12.5 -10.859375 C 12.550781 -9.992188 12.585938 -9.21875 12.609375 -8.53125 C 12.640625 -7.851562 12.65625 -7.144531 12.65625 -6.40625 C 12.65625 -5.507812 12.644531 -4.6875 12.625 -3.9375 C 12.601562 -3.1875 12.5625 -2.390625 12.5 -1.546875 C 12.46875 -1.171875 12.421875 -0.867188 12.359375 -0.640625 C 12.304688 -0.421875 12.238281 -0.257812 12.15625 -0.15625 C 12.070312 -0.0507812 11.972656 0.015625 11.859375 0.046875 C 11.753906 0.078125 11.644531 0.09375 11.53125 0.09375 Z M 10.203125 -6.109375 C 10.203125 -6.960938 10.070312 -7.65625 9.8125 -8.1875 C 9.5625 -8.726562 9.242188 -9.148438 8.859375 -9.453125 C 8.484375 -9.753906 8.070312 -9.960938 7.625 -10.078125 C 7.1875 -10.191406 6.78125 -10.25 6.40625 -10.25 C 5.820312 -10.25 5.320312 -10.140625 4.90625 -9.921875 C 4.488281 -9.710938 4.148438 -9.425781 3.890625 -9.0625 C 3.628906 -8.695312 3.4375 -8.265625 3.3125 -7.765625 C 3.1875 -7.265625 3.125 -6.722656 3.125 -6.140625 C 3.125 -4.703125 3.4375 -3.640625 4.0625 -2.953125 C 4.695312 -2.273438 5.550781 -1.9375 6.625 -1.9375 C 7.257812 -1.9375 7.800781 -2.046875 8.25 -2.265625 C 8.707031 -2.484375 9.078125 -2.78125 9.359375 -3.15625 C 9.640625 -3.53125 9.847656 -3.972656 9.984375 -4.484375 C 10.128906 -5.003906 10.203125 -5.546875 10.203125 -6.109375 Z M 10.203125 -6.109375 "/></g></g></g><g fill="#b7e92f" fill-opacity="1"><g transform="translate(98.925324, 23.865385)"><g><path d="M 5.796875 -12.765625 C 6.140625 -12.765625 6.570312 -12.734375 7.09375 -12.671875 C 7.613281 -12.617188 8.109375 -12.515625 8.578125 -12.359375 C 9.054688 -12.210938 9.46875 -12 9.8125 -11.71875 C 10.15625 -11.4375 10.328125 -11.085938 10.328125 -10.671875 C 10.328125 -10.421875 10.253906 -10.207031 10.109375 -10.03125 C 9.972656 -9.851562 9.757812 -9.765625 9.46875 -9.765625 C 9.257812 -9.765625 9.019531 -9.796875 8.75 -9.859375 C 8.476562 -9.921875 8.179688 -10 7.859375 -10.09375 C 7.546875 -10.1875 7.203125 -10.265625 6.828125 -10.328125 C 6.460938 -10.390625 6.078125 -10.421875 5.671875 -10.421875 C 4.992188 -10.421875 4.4375 -10.3125 4 -10.09375 C 3.570312 -9.882812 3.359375 -9.554688 3.359375 -9.109375 C 3.359375 -8.835938 3.429688 -8.613281 3.578125 -8.4375 C 3.734375 -8.257812 3.945312 -8.097656 4.21875 -7.953125 C 4.488281 -7.816406 4.804688 -7.703125 5.171875 -7.609375 C 5.535156 -7.515625 5.925781 -7.414062 6.34375 -7.3125 C 6.84375 -7.1875 7.34375 -7.039062 7.84375 -6.875 C 8.34375 -6.707031 8.785156 -6.484375 9.171875 -6.203125 C 9.566406 -5.921875 9.882812 -5.5625 10.125 -5.125 C 10.375 -4.695312 10.5 -4.164062 10.5 -3.53125 C 10.5 -2.320312 10.039062 -1.359375 9.125 -0.640625 C 8.207031 0.0664062 6.863281 0.421875 5.09375 0.421875 C 4.695312 0.421875 4.226562 0.390625 3.6875 0.328125 C 3.15625 0.273438 2.648438 0.171875 2.171875 0.015625 C 1.703125 -0.140625 1.300781 -0.359375 0.96875 -0.640625 C 0.632812 -0.929688 0.46875 -1.3125 0.46875 -1.78125 C 0.46875 -2.113281 0.546875 -2.363281 0.703125 -2.53125 C 0.859375 -2.707031 1.046875 -2.796875 1.265625 -2.796875 C 1.453125 -2.796875 1.640625 -2.738281 1.828125 -2.625 C 2.023438 -2.507812 2.257812 -2.382812 2.53125 -2.25 C 2.8125 -2.125 3.148438 -2.003906 3.546875 -1.890625 C 3.941406 -1.773438 4.421875 -1.71875 4.984375 -1.71875 C 5.203125 -1.71875 5.484375 -1.726562 5.828125 -1.75 C 6.171875 -1.769531 6.507812 -1.835938 6.84375 -1.953125 C 7.175781 -2.066406 7.457031 -2.222656 7.6875 -2.421875 C 7.925781 -2.628906 8.046875 -2.921875 8.046875 -3.296875 C 8.046875 -3.597656 7.960938 -3.847656 7.796875 -4.046875 C 7.640625 -4.253906 7.421875 -4.429688 7.140625 -4.578125 C 6.867188 -4.722656 6.546875 -4.847656 6.171875 -4.953125 C 5.804688 -5.054688 5.421875 -5.164062 5.015625 -5.28125 C 4.546875 -5.414062 4.066406 -5.5625 3.578125 -5.71875 C 3.097656 -5.882812 2.660156 -6.097656 2.265625 -6.359375 C 1.878906 -6.617188 1.5625 -6.945312 1.3125 -7.34375 C 1.070312 -7.75 0.953125 -8.242188 0.953125 -8.828125 C 0.953125 -9.390625 1.066406 -9.910156 1.296875 -10.390625 C 1.523438 -10.867188 1.847656 -11.285156 2.265625 -11.640625 C 2.691406 -12.003906 3.203125 -12.28125 3.796875 -12.46875 C 4.398438 -12.664062 5.066406 -12.765625 5.796875 -12.765625 Z M 5.796875 -12.765625 "/></g></g></g><g fill="#b7e92f" fill-opacity="1"><g transform="translate(110.179997, 23.865385)"><g><path d="M 1.65625 -1.515625 C 1.625 -2.117188 1.597656 -2.804688 1.578125 -3.578125 C 1.554688 -4.359375 1.546875 -5.210938 1.546875 -6.140625 C 1.546875 -7.296875 1.550781 -8.285156 1.5625 -9.109375 C 1.582031 -9.929688 1.628906 -10.609375 1.703125 -11.140625 C 1.773438 -11.671875 1.890625 -12.0625 2.046875 -12.3125 C 2.210938 -12.570312 2.441406 -12.703125 2.734375 -12.703125 C 3.015625 -12.703125 3.257812 -12.601562 3.46875 -12.40625 C 3.6875 -12.207031 3.8125 -11.785156 3.84375 -11.140625 C 3.9375 -9.421875 3.984375 -7.765625 3.984375 -6.171875 C 3.984375 -5.347656 3.96875 -4.582031 3.9375 -3.875 C 3.90625 -3.164062 3.875 -2.390625 3.84375 -1.546875 C 3.820312 -1.148438 3.78125 -0.84375 3.71875 -0.625 C 3.664062 -0.414062 3.59375 -0.253906 3.5 -0.140625 C 3.40625 -0.0234375 3.296875 0.0390625 3.171875 0.0625 C 3.046875 0.0820312 2.898438 0.09375 2.734375 0.09375 C 2.441406 0.09375 2.195312 -0.00390625 2 -0.203125 C 1.8125 -0.410156 1.695312 -0.847656 1.65625 -1.515625 Z M 2.765625 -17.125 C 3.140625 -17.125 3.484375 -16.976562 3.796875 -16.6875 C 4.117188 -16.394531 4.28125 -16.046875 4.28125 -15.640625 C 4.28125 -15.242188 4.113281 -14.898438 3.78125 -14.609375 C 3.457031 -14.328125 3.09375 -14.1875 2.6875 -14.1875 C 2.34375 -14.1875 2.019531 -14.328125 1.71875 -14.609375 C 1.414062 -14.898438 1.265625 -15.257812 1.265625 -15.6875 C 1.265625 -16.070312 1.414062 -16.40625 1.71875 -16.6875 C 2.019531 -16.976562 2.367188 -17.125 2.765625 -17.125 Z M 2.765625 -17.125 "/></g></g></g><g clip-path="url(#c1b5faf569)"><g fill="#b7e92f" fill-opacity="1"><g transform="translate(115.709478, 23.865385)"><g><path d="M 7.078125 -12.484375 C 7.546875 -12.484375 8.019531 -12.441406 8.5 -12.359375 C 8.976562 -12.273438 9.414062 -12.160156 9.8125 -12.015625 C 10.207031 -11.867188 10.523438 -11.6875 10.765625 -11.46875 C 11.015625 -11.257812 11.140625 -11.015625 11.140625 -10.734375 C 11.140625 -10.023438 10.726562 -9.671875 9.90625 -9.671875 C 9.707031 -9.671875 9.523438 -9.695312 9.359375 -9.75 C 9.191406 -9.8125 8.992188 -9.867188 8.765625 -9.921875 C 8.535156 -9.972656 8.25 -10.023438 7.90625 -10.078125 C 7.5625 -10.140625 7.132812 -10.171875 6.625 -10.171875 C 5.550781 -10.171875 4.71875 -9.804688 4.125 -9.078125 C 3.539062 -8.347656 3.25 -7.394531 3.25 -6.21875 C 3.25 -4.925781 3.546875 -3.890625 4.140625 -3.109375 C 4.742188 -2.328125 5.59375 -1.9375 6.6875 -1.9375 C 7.363281 -1.9375 7.914062 -1.992188 8.34375 -2.109375 C 8.769531 -2.222656 9.113281 -2.351562 9.375 -2.5 C 9.644531 -2.644531 9.863281 -2.773438 10.03125 -2.890625 C 10.207031 -3.003906 10.40625 -3.0625 10.625 -3.0625 C 10.914062 -3.0625 11.144531 -3 11.3125 -2.875 C 11.488281 -2.75 11.578125 -2.5 11.578125 -2.125 C 11.578125 -1.738281 11.425781 -1.394531 11.125 -1.09375 C 10.820312 -0.800781 10.441406 -0.554688 9.984375 -0.359375 C 9.523438 -0.171875 9.03125 -0.03125 8.5 0.0625 C 7.96875 0.164062 7.484375 0.21875 7.046875 0.21875 C 5.078125 0.21875 3.523438 -0.328125 2.390625 -1.421875 C 1.265625 -2.515625 0.703125 -4.0625 0.703125 -6.0625 C 0.703125 -6.925781 0.835938 -7.742188 1.109375 -8.515625 C 1.378906 -9.296875 1.78125 -9.976562 2.3125 -10.5625 C 2.851562 -11.15625 3.519531 -11.625 4.3125 -11.96875 C 5.101562 -12.3125 6.023438 -12.484375 7.078125 -12.484375 Z M 7.078125 -12.484375 "/></g></g></g></g></g></g></svg>