<svg xmlns="http://www.w3.org/2000/svg" xmlns:xlink="http://www.w3.org/1999/xlink" width="100" zoomAndPan="magnify" viewBox="0 0 75 74.999997" height="100" preserveAspectRatio="xMidYMid meet" version="1.0"><defs><clipPath id="0d232644a0"><path d="M 10.414062 6.808594 L 64 6.808594 L 64 65 L 10.414062 65 Z M 10.414062 6.808594 " clip-rule="nonzero"/></clipPath></defs><g clip-path="url(#0d232644a0)"><path fill="#1f2d47" d="M 63.445312 35.972656 C 63.074219 30.636719 60.957031 25.460938 57.617188 21.277344 C 55.410156 18.503906 52.902344 16.648438 51.875 15.90625 C 49.050781 13.804688 45.660156 12.003906 43.960938 11.542969 C 43.804688 11.507812 43.574219 11.507812 43.34375 11.3125 C 41.25 9.574219 41.519531 7.691406 40.625 7.570312 C 40.234375 7.515625 39.988281 7.835938 39.777344 8.132812 C 39.5625 8.398438 39.527344 8.699219 39.492188 9 C 39.476562 9.175781 39.492188 9.335938 39.300781 9.441406 C 38.644531 9.757812 37.410156 9.246094 37.125 8.574219 C 36.96875 8.152344 36.738281 7.761719 36.507812 7.375 C 36.191406 6.84375 35.75 6.914062 35.359375 7.25 C 34.144531 8.328125 35.246094 9.609375 33.859375 9.421875 C 31.414062 9.089844 30.480469 10.085938 27.289062 8.699219 C 26.617188 8.398438 25.558594 8.71875 25.414062 9.351562 C 25.007812 11.183594 25.75 12.867188 27.660156 13.734375 C 26.816406 14.855469 26.410156 16.425781 26.511719 17.601562 C 27.828125 16.285156 29.699219 15.167969 31.542969 14.703125 C 31.6875 14.722656 31.828125 14.777344 31.96875 14.828125 C 33.558594 15.269531 35.078125 15.90625 36.613281 16.542969 C 37.425781 16.855469 37.960938 17.390625 37.515625 18.132812 C 36.96875 19.050781 35.679688 19.402344 34.8125 19.933594 C 34.5 20.117188 34.195312 20.300781 33.886719 20.488281 C 32.730469 20.148438 31.539062 19.9375 30.371094 20.238281 C 27.332031 21.027344 25.910156 24.523438 24.863281 27.210938 C 25.449219 27.183594 26.023438 26.832031 26.359375 26.292969 C 26.460938 26.996094 26.566406 27.699219 26.671875 28.402344 C 26.976562 27.285156 27.539062 25.839844 28.609375 24.472656 C 29.253906 23.644531 30.054688 22.628906 31.171875 22.265625 C 30.671875 22.878906 30.941406 23.507812 31.542969 23.875 C 32.570312 24.410156 36.425781 24.40625 39.671875 22.496094 C 40.890625 21.789062 42.265625 20.585938 43.75 20.585938 C 45.109375 20.585938 46.839844 21.613281 47.953125 22.355469 C 52.035156 25.019531 54.4375 29.894531 54.597656 34.773438 C 54.808594 40.832031 51.609375 46.90625 46.507812 50.191406 C 38.363281 55.433594 29.695312 51.40625 29.125 51.128906 C 28.289062 50.722656 22.167969 47.628906 19.925781 40.5 C 17.816406 33.796875 19.976562 26.847656 25.105469 22.109375 C 27.71875 19.699219 30.699219 18.386719 30.378906 17.441406 C 30.242188 17.039062 29.5625 16.898438 28.984375 16.84375 C 28.164062 17.402344 27.90625 17.800781 25.769531 19.898438 C 25.621094 16.53125 25.601562 16.445312 25.628906 16.066406 C 25.660156 15.609375 25.738281 15.472656 25.699219 15.429688 C 25.484375 15.199219 22.003906 17.898438 20.179688 19.644531 C 14.324219 25.246094 12.1875 31.550781 11.402344 35.65625 C 12.039062 34.054688 14.042969 33.492188 15.417969 34.558594 C 15.800781 34.859375 15.871094 35.414062 15.574219 35.800781 C 15.273438 36.183594 14.71875 36.253906 14.332031 35.953125 C 13.902344 35.617188 13.25 35.789062 13.042969 36.308594 C 12.871094 36.75 12.371094 36.988281 11.898438 36.808594 C 11.472656 36.636719 11.261719 36.175781 11.386719 35.746094 C 10.894531 38.355469 10.953125 40.058594 10.953125 40.058594 C 11.539062 54.648438 25.0625 61.480469 25.644531 61.761719 C 39.003906 68.226562 51.433594 60.0625 51.945312 59.714844 C 59.542969 54.539062 64.097656 45.15625 63.445312 35.972656 Z M 32.941406 13.058594 C 32.335938 13.058594 31.847656 12.566406 31.847656 11.960938 C 31.847656 11.355469 32.335938 10.867188 32.941406 10.867188 C 33.546875 10.867188 34.039062 11.355469 34.039062 11.960938 C 34.039062 12.566406 33.546875 13.058594 32.941406 13.058594 Z M 17.78125 46.617188 C 17.671875 47.089844 17.203125 47.390625 16.722656 47.277344 C 16.175781 47.15625 15.671875 47.59375 15.703125 48.144531 C 15.730469 48.628906 15.355469 49.046875 14.871094 49.074219 C 14.851562 49.074219 14.835938 49.078125 14.820312 49.078125 C 14.355469 49.078125 13.964844 48.714844 13.9375 48.242188 C 13.839844 46.515625 15.429688 45.167969 17.121094 45.558594 C 17.59375 45.667969 17.890625 46.140625 17.78125 46.617188 Z M 18.5 39.582031 C 18.390625 40.058594 17.917969 40.359375 17.441406 40.246094 C 16.902344 40.125 16.386719 40.550781 16.417969 41.113281 C 16.445312 41.597656 16.074219 42.015625 15.585938 42.042969 C 15.570312 42.042969 15.550781 42.046875 15.535156 42.046875 C 15.070312 42.046875 14.679688 41.683594 14.652344 41.210938 C 14.554688 39.464844 16.167969 38.136719 17.835938 38.523438 C 18.308594 38.636719 18.609375 39.109375 18.5 39.582031 Z M 17.960938 30.238281 C 17.554688 29.839844 16.890625 29.960938 16.636719 30.4375 C 16.476562 30.734375 16.171875 30.902344 15.859375 30.902344 C 15.195312 30.902344 14.765625 30.191406 15.082031 29.601562 C 15.898438 28.078125 17.960938 27.761719 19.195312 28.976562 C 19.546875 29.320312 19.550781 29.878906 19.210938 30.226562 C 18.867188 30.574219 18.308594 30.578125 17.960938 30.238281 Z M 20.460938 51.339844 C 18.578125 51.921875 18.738281 47.429688 21.800781 47.382812 C 21.804688 47.382812 21.8125 47.382812 21.816406 47.382812 C 22.296875 47.382812 22.691406 47.769531 22.699219 48.253906 C 22.707031 48.742188 22.316406 49.140625 21.832031 49.148438 C 21.277344 49.160156 20.882812 49.707031 21.042969 50.234375 C 21.1875 50.699219 20.929688 51.195312 20.460938 51.339844 Z M 23.328125 54.765625 C 22.773438 54.828125 22.4375 55.410156 22.648438 55.917969 C 22.839844 56.367188 22.625 56.886719 22.175781 57.074219 C 21.730469 57.261719 21.210938 57.054688 21.019531 56.601562 C 20.351562 55.007812 21.402344 53.207031 23.128906 53.011719 C 23.605469 52.941406 24.050781 53.300781 24.105469 53.785156 C 24.160156 54.273438 23.8125 54.710938 23.328125 54.765625 Z M 29.214844 55.816406 C 28.6875 55.972656 28.453125 56.605469 28.753906 57.074219 C 29.136719 57.667969 28.703125 58.4375 28.011719 58.4375 C 26.566406 58.4375 26.15625 54.890625 28.707031 54.125 C 29.171875 53.988281 29.667969 54.25 29.808594 54.71875 C 29.945312 55.183594 29.683594 55.675781 29.214844 55.816406 Z M 34.671875 62.515625 C 32.953125 62.292969 31.929688 60.476562 32.621094 58.894531 C 32.816406 58.445312 33.335938 58.238281 33.785156 58.4375 C 34.230469 58.632812 34.4375 59.152344 34.238281 59.601562 C 34.019531 60.109375 34.351562 60.695312 34.898438 60.765625 C 35.382812 60.828125 35.726562 61.269531 35.664062 61.753906 C 35.605469 62.207031 35.203125 62.570312 34.671875 62.515625 Z M 40.59375 59.015625 C 38.878906 58.792969 37.851562 56.980469 38.542969 55.394531 C 38.738281 54.945312 39.257812 54.742188 39.707031 54.9375 C 40.152344 55.128906 40.359375 55.652344 40.164062 56.097656 C 39.941406 56.605469 40.273438 57.191406 40.820312 57.261719 C 41.304688 57.324219 41.648438 57.769531 41.585938 58.253906 C 41.523438 58.714844 41.105469 59.074219 40.59375 59.015625 Z M 48.03125 59.816406 C 44.917969 60.160156 44.304688 55.746094 46.179688 56.074219 C 46.660156 56.15625 46.984375 56.609375 46.90625 57.089844 C 46.8125 57.644531 47.289062 58.128906 47.828125 58.058594 C 48.324219 57.996094 48.753906 58.351562 48.808594 58.835938 C 48.863281 59.320312 48.519531 59.757812 48.03125 59.816406 Z M 50.734375 54.34375 C 49.015625 54.546875 47.574219 53.039062 47.863281 51.328125 C 47.941406 50.84375 48.398438 50.515625 48.878906 50.601562 C 49.359375 50.683594 49.683594 51.136719 49.605469 51.617188 C 49.511719 52.164062 49.96875 52.652344 50.527344 52.589844 C 51.015625 52.519531 51.449219 52.878906 51.507812 53.363281 C 51.5625 53.847656 51.21875 54.285156 50.734375 54.34375 Z M 57.3125 28.234375 C 57.832031 28.441406 58.402344 28.089844 58.457031 27.539062 C 58.503906 27.054688 58.949219 26.710938 59.421875 26.75 C 59.90625 26.796875 60.261719 27.230469 60.214844 27.714844 C 60.039062 29.457031 58.238281 30.511719 56.652344 29.871094 C 56.199219 29.691406 55.980469 29.175781 56.164062 28.722656 C 56.347656 28.269531 56.863281 28.054688 57.3125 28.234375 Z M 59.976562 34.957031 C 59.078125 36.414062 57.007812 36.632812 55.832031 35.332031 C 55.503906 34.96875 55.53125 34.410156 55.894531 34.082031 C 56.253906 33.757812 56.8125 33.785156 57.140625 34.144531 C 57.53125 34.578125 58.195312 34.476562 58.476562 34.027344 C 58.730469 33.609375 59.277344 33.484375 59.691406 33.738281 C 60.105469 33.996094 60.234375 34.542969 59.976562 34.957031 Z M 50.179688 20.371094 C 49.699219 20.289062 49.375 19.832031 49.453125 19.351562 C 49.535156 18.871094 49.988281 18.539062 50.472656 18.628906 C 51.019531 18.71875 51.503906 18.257812 51.441406 17.707031 C 51.382812 17.222656 51.730469 16.78125 52.214844 16.726562 C 52.707031 16.660156 53.136719 17.015625 53.195312 17.5 C 53.398438 19.226562 51.882812 20.652344 50.179688 20.371094 Z M 52.394531 26.105469 C 51.957031 25.886719 51.78125 25.355469 52 24.921875 C 52.214844 24.484375 52.746094 24.304688 53.183594 24.523438 C 53.6875 24.773438 54.28125 24.464844 54.382812 23.925781 C 54.46875 23.445312 54.9375 23.125 55.410156 23.214844 C 55.890625 23.304688 56.207031 23.761719 56.117188 24.242188 C 55.804688 25.960938 53.929688 26.871094 52.394531 26.105469 Z M 57.035156 51.859375 C 56.605469 52.144531 56.101562 52.292969 55.589844 52.292969 C 53.492188 52.292969 52.289062 49.800781 53.6875 49.359375 C 54.15625 49.214844 54.648438 49.472656 54.796875 49.941406 C 54.960938 50.472656 55.601562 50.691406 56.058594 50.386719 C 56.460938 50.117188 57.011719 50.226562 57.28125 50.632812 C 57.550781 51.039062 57.441406 51.585938 57.035156 51.859375 Z M 58.3125 45.421875 C 57.148438 46.707031 55.074219 46.503906 54.167969 45.027344 C 53.914062 44.613281 54.042969 44.070312 54.460938 43.8125 C 54.875 43.558594 55.421875 43.6875 55.675781 44.105469 C 55.96875 44.585938 56.644531 44.632812 57.007812 44.234375 C 57.335938 43.871094 57.894531 43.847656 58.253906 44.171875 C 58.613281 44.5 58.640625 45.058594 58.3125 45.421875 Z M 62.226562 41.046875 C 61.066406 42.324219 58.992188 42.136719 58.082031 40.65625 C 57.828125 40.238281 57.960938 39.695312 58.375 39.441406 C 58.792969 39.1875 59.335938 39.316406 59.589844 39.730469 C 59.890625 40.226562 60.570312 40.246094 60.921875 39.859375 C 61.25 39.5 61.808594 39.472656 62.167969 39.800781 C 62.53125 40.128906 62.554688 40.6875 62.226562 41.046875 Z M 62.226562 41.046875 " fill-opacity="1" fill-rule="nonzero"/></g></svg>